<svg width="107" height="20" viewBox="0 0 107 20" fill="none" xmlns="http://www.w3.org/2000/svg">
<rect x="0.5" y="0.5" width="106" height="19" rx="3.5" fill="white"/>
<rect x="0.5" y="0.5" width="106" height="19" rx="3.5" stroke="#746757"/>
<path d="M17.689 9.27148V10.2695H12.7534V11.2676H16.2808V14.0566H9.17141V15.0547H16.6362V16.0391H7.88625V13.1543H14.9956V12.2383H7.84523V11.2676H11.4546V10.2695H6.54641V9.27148H17.689ZM12.7534 3.85742V4.9375H16.5679V5.93555H12.8628C13.1089 6.9541 14.729 7.68555 17.1284 7.80859L16.7593 8.79297C14.606 8.64258 12.8765 8.02051 12.1109 6.96094C11.3316 8.02051 9.59523 8.64258 7.46242 8.79297L7.07961 7.80859C9.47902 7.68555 11.0991 6.9541 11.3589 5.93555H7.65383V4.9375H11.4546V3.85742H12.7534ZM22.659 5.83984C22.6658 7.47363 23.7801 9.01855 25.6121 9.6543L24.9148 10.6797C23.5682 10.1875 22.5633 9.19629 22.0301 7.95898C21.5037 9.32617 20.4646 10.3926 19.0223 10.9258L18.3387 9.88672C20.2527 9.2168 21.3602 7.58301 21.3602 5.77148V4.54102H22.659V5.83984ZM28.5652 11.8008V16.1621H27.2391V12.8535H20.2664V11.8008H28.5652ZM28.5652 3.91211V11.1582H27.2391V7.4668H24.6824V6.40039H27.2391V3.91211H28.5652ZM41.3555 10.1055V11.1582H36.502V13.5098H35.2032V11.1582H30.1583V10.1055H41.3555ZM39.9063 4.47266V8.84766H31.5802V4.47266H39.9063ZM32.8653 5.51172V7.79492H38.6212V5.51172H32.8653ZM40.1114 14.8359V15.9023H31.5391V12.3887H32.8516V14.8359H40.1114ZM46.2435 7.52148C46.2435 9.44238 47.5355 11.6094 49.388 12.4844L48.6498 13.5234C47.2621 12.8535 46.1752 11.4658 45.6283 9.85938C45.0677 11.6025 43.933 13.127 42.5248 13.8242L41.7728 12.7852C43.6117 11.8965 44.9584 9.5791 44.9584 7.52148V6.22266H42.2103V5.14258H48.9095V6.22266H46.2435V7.52148ZM51.5345 3.91211V8.7793H53.4896V9.87305H51.5345V16.1621H50.222V3.91211H51.5345ZM64.9948 10.1055V11.1582H60.1413V13.5098H58.8424V11.1582H53.7975V10.1055H64.9948ZM63.5455 4.47266V8.84766H55.2194V4.47266H63.5455ZM56.5045 5.51172V7.79492H62.2604V5.51172H56.5045ZM63.7506 14.8359V15.9023H55.1784V12.3887H56.4909V14.8359H63.7506ZM75.3652 4.67773V5.74414C75.3652 6.90625 75.3652 8.17773 75.037 9.92773H76.8007V10.9941H71.8378V16.1621H70.5253V10.9941H65.6308V9.92773H73.7245C74.0868 8.19141 74.0868 6.89258 74.08 5.74414V5.73047H66.998V4.67773H75.3652ZM87.6633 3.91211V16.1758H86.3781V9.38086H83.8352V8.31445H86.3781V3.91211H87.6633ZM81.8117 7.33008C81.8117 9.40137 83.1311 11.6504 84.9973 12.5117L84.2316 13.5371C82.8303 12.8535 81.7365 11.4316 81.1828 9.75C80.6359 11.541 79.5148 13.0654 78.093 13.7969L77.3137 12.7578C79.1799 11.8623 80.4992 9.53125 80.4992 7.33008V6.20898H77.7922V5.14258H84.5461V6.20898H81.8117V7.33008ZM93.5493 6.1543C93.5425 7.70605 94.6294 9.12793 96.4888 9.72266L95.8598 10.748C94.4653 10.2969 93.4536 9.3877 92.9204 8.21875C92.3804 9.56543 91.3071 10.625 89.8306 11.1309L89.1743 10.1055C91.0884 9.44922 92.23 7.86328 92.2368 6.16797V5.85352H89.5571V4.78711H96.188V5.85352H93.5493V6.1543ZM98.8813 3.91211V6.93359H100.659V8.01367H98.8813V11.2676H97.5825V3.91211H98.8813ZM94.9302 11.5547C97.4526 11.5547 99.0112 12.3955 99.0181 13.8379C99.0112 15.2871 97.4595 16.1416 94.9302 16.1348C92.394 16.1416 90.8286 15.2871 90.8286 13.8379C90.8286 12.3955 92.4009 11.5547 94.9302 11.5547ZM94.9302 12.5938C93.1665 12.5938 92.1206 13.0312 92.1138 13.8379C92.1206 14.6582 93.1597 15.1162 94.9302 15.1094C96.6938 15.1162 97.7329 14.6582 97.7329 13.8379C97.7329 13.0312 96.687 12.5938 94.9302 12.5938Z" fill="#746757"/>
</svg>
