<svg width="84" height="20" viewBox="0 0 84 20" fill="none" xmlns="http://www.w3.org/2000/svg">
<rect x="0.5" y="0.5" width="83" height="19" rx="3.5" fill="white"/>
<rect x="0.5" y="0.5" width="83" height="19" rx="3.5" stroke="#746757"/>
<path d="M18.0086 9.27148V10.2695H13.073V11.2676H16.6004V14.0566H9.49102V15.0547H16.9559V16.0391H8.20586V13.1543H15.3152V12.2383H8.16484V11.2676H11.7742V10.2695H6.86602V9.27148H18.0086ZM13.073 3.85742V4.9375H16.8875V5.93555H13.1824C13.4285 6.9541 15.0486 7.68555 17.448 7.80859L17.0789 8.79297C14.9256 8.64258 13.1961 8.02051 12.4305 6.96094C11.6512 8.02051 9.91484 8.64258 7.78203 8.79297L7.39922 7.80859C9.79863 7.68555 11.4188 6.9541 11.6785 5.93555H7.97344V4.9375H11.7742V3.85742H13.073ZM22.9786 5.83984C22.9854 7.47363 24.0997 9.01855 25.9317 9.6543L25.2345 10.6797C23.8878 10.1875 22.8829 9.19629 22.3497 7.95898C21.8233 9.32617 20.7843 10.3926 19.3419 10.9258L18.6583 9.88672C20.5723 9.2168 21.6798 7.58301 21.6798 5.77148V4.54102H22.9786V5.83984ZM28.8848 11.8008V16.1621H27.5587V12.8535H20.586V11.8008H28.8848ZM28.8848 3.91211V11.1582H27.5587V7.4668H25.002V6.40039H27.5587V3.91211H28.8848ZM41.6752 10.1055V11.1582H36.8216V13.5098H35.5228V11.1582H30.4779V10.1055H41.6752ZM40.2259 4.47266V8.84766H31.8998V4.47266H40.2259ZM33.1849 5.51172V7.79492H38.9408V5.51172H33.1849ZM40.431 14.8359V15.9023H31.8588V12.3887H33.1713V14.8359H40.431ZM46.5631 7.52148C46.5631 9.44238 47.8551 11.6094 49.7077 12.4844L48.9694 13.5234C47.5817 12.8535 46.4948 11.4658 45.9479 9.85938C45.3873 11.6025 44.2526 13.127 42.8444 13.8242L42.0924 12.7852C43.9313 11.8965 45.278 9.5791 45.278 7.52148V6.22266H42.5299V5.14258H49.2291V6.22266H46.5631V7.52148ZM51.8541 3.91211V8.7793H53.8092V9.87305H51.8541V16.1621H50.5416V3.91211H51.8541ZM64.3437 3.92578V12.8809H63.0175V8.30078H60.707V7.23438H63.0175V3.92578H64.3437ZM64.6581 14.8359V15.9023H56.373V12.1016H57.6855V14.8359H64.6581ZM58.5058 6.37305C58.5126 7.93164 59.62 9.45605 61.4589 10.0918L60.8027 11.1035C59.4218 10.625 58.4101 9.64062 57.8769 8.42383C57.3437 9.77734 56.2636 10.8574 54.8007 11.377L54.1308 10.3379C56.0243 9.68848 57.2001 8.0752 57.1933 6.38672V5.92188H54.5273V4.86914H61.1308V5.92188H58.5058V6.37305ZM72.1574 8.21875V9.91406H77.1066V10.9668H65.9367V9.91406H70.8723V8.21875H72.1574ZM72.1848 4.60938C72.1779 6.16797 74.0852 7.52832 76.4504 7.84961L75.9582 8.875C74.0305 8.56055 72.3078 7.6377 71.5285 6.27734C70.7287 7.63086 69.0061 8.56738 67.0715 8.875L66.5793 7.84961C68.9377 7.52832 70.8518 6.1543 70.8586 4.60938V4.11719H72.1848V4.60938ZM71.5148 11.8691C74.1672 11.8691 75.76 12.6484 75.7531 14.0156C75.76 15.3828 74.174 16.1416 71.5148 16.1348C68.8488 16.1416 67.2629 15.3828 67.2629 14.0156C67.2629 12.6484 68.8557 11.8691 71.5148 11.8691ZM71.5148 12.8809C69.6486 12.874 68.5822 13.2705 68.5891 14.0156C68.5822 14.7471 69.6418 15.1436 71.5148 15.1367C73.3947 15.1436 74.4406 14.7471 74.4406 14.0156C74.4406 13.2705 73.3811 12.874 71.5148 12.8809Z" fill="#746757"/>
</svg>
