<svg width="84" height="20" viewBox="0 0 84 20" fill="none" xmlns="http://www.w3.org/2000/svg">
<rect x="0.5" y="0.5" width="83" height="19" rx="3.5" fill="white"/>
<rect x="0.5" y="0.5" width="83" height="19" rx="3.5" stroke="#746757"/>
<path d="M17.0105 3.91211V10.4883H15.698V3.91211H17.0105ZM10.2703 11.0762V12.4707H15.7254V11.0762H17.0105V15.998H8.98516V11.0762H10.2703ZM10.2703 14.9453H15.7254V13.4824H10.2703V14.9453ZM10.366 4.47266C12.2459 4.46582 13.6268 5.6416 13.6199 7.31641C13.6268 8.99805 12.2459 10.1533 10.366 10.1602C8.4793 10.1533 7.0916 8.99805 7.09844 7.31641C7.0916 5.6416 8.4793 4.46582 10.366 4.47266ZM10.366 5.56641C9.20391 5.55957 8.36992 6.26367 8.36992 7.31641C8.36992 8.36914 9.20391 9.06641 10.366 9.06641C11.5145 9.06641 12.3484 8.36914 12.3484 7.31641C12.3484 6.26367 11.5145 5.55957 10.366 5.56641ZM24.4962 4.63672V8.21875H20.463V9.91406C22.5958 9.90723 23.7511 9.85938 25.1251 9.61328L25.2618 10.6797C23.7647 10.9258 22.5411 10.9668 20.0665 10.9668H19.1778V7.23438H23.211V5.68945H19.1505V4.63672H24.4962ZM28.8848 3.92578V11.4453H27.5587V9.29883H25.2891V8.25977H27.5587V6.75586H25.2891V5.70312H27.5587V3.92578H28.8848ZM28.8848 12.0742V16.1758H27.5587V13.1406H20.5587V12.0742H28.8848ZM37.3959 5.18359V6.23633H30.5052V5.18359H33.3627V3.80273H34.6615V5.18359H37.3959ZM34.0052 6.79688C35.6664 6.79688 36.8216 7.71973 36.8216 9.08008C36.8216 10.4336 35.6664 11.3564 34.0052 11.3496C32.3373 11.3564 31.1752 10.4336 31.1752 9.08008C31.1752 7.71973 32.3373 6.79688 34.0052 6.79688ZM34.0052 7.79492C33.0414 7.80176 32.3988 8.29395 32.4056 9.08008C32.3988 9.86621 33.0414 10.3584 34.0052 10.3652C34.9486 10.3584 35.6117 9.86621 35.6048 9.08008C35.6117 8.29395 34.9486 7.80176 34.0052 7.79492ZM40.7045 3.91211V11.7871H39.3783V10.2422H37.4232V9.17578H39.3783V7.83594H37.4369V6.7832H39.3783V3.91211H40.7045ZM36.6166 11.9238C39.1869 11.9238 40.7523 12.7031 40.7591 14.043C40.7523 15.3623 39.1869 16.1416 36.6166 16.1348C34.0394 16.1416 32.4671 15.3623 32.4603 14.043C32.4671 12.7031 34.0394 11.9238 36.6166 11.9238ZM36.6166 12.9492C34.8734 12.9424 33.8207 13.3115 33.8275 14.043C33.8207 14.7402 34.8734 15.1367 36.6166 15.1367C38.3529 15.1367 39.392 14.7402 39.392 14.043C39.392 13.3115 38.3461 12.9424 36.6166 12.9492ZM46.7545 5.67578C46.7545 7.37109 47.9166 8.92285 49.7897 9.54492L49.1471 10.5703C47.7184 10.0781 46.6657 9.08008 46.112 7.80859C45.5651 9.17578 44.485 10.2695 43.0221 10.7891L42.3659 9.75C44.2936 9.08691 45.4352 7.41895 45.4284 5.67578V4.48633H46.7545V5.67578ZM52.4694 11.8555V16.1621H51.1569V12.9219H44.1705V11.8555H52.4694ZM52.4694 3.91211V11.2539H51.1569V3.91211H52.4694ZM60.9394 4.8418V5.52539C60.9394 6.3457 60.9394 7.5625 60.6386 9.14844L59.3534 9.01172C59.6132 7.66504 59.6542 6.67383 59.6542 5.9082H54.7597V4.8418H60.9394ZM57.8222 7.61719V10.1191C59.1347 10.0713 60.495 9.97559 61.7187 9.80469L61.8007 10.748C59.2509 11.1924 56.2909 11.2539 54.1445 11.2676L54.0214 10.1875C54.7665 10.1875 55.6279 10.1875 56.537 10.1602V7.61719H57.8222ZM63.7968 3.91211V7.82227H65.4921V8.90234H63.7968V13.1133H62.498V3.91211H63.7968ZM64.207 14.8359V15.9023H55.8808V12.2793H57.1796V14.8359H64.207ZM76.1223 3.91211V16.1758H74.8098V3.91211H76.1223ZM72.3625 5.01953V9.50391H67.9602V12.1699C69.9426 12.1562 71.6994 12.0742 73.7297 11.7461L73.8664 12.7988C71.6994 13.1611 69.8674 13.25 67.6867 13.25H66.6477V8.45117H71.0363V6.08594H66.6203V5.01953H72.3625Z" fill="#746757"/>
</svg>
