<svg width="74" height="18" viewBox="0 0 74 18" fill="none" xmlns="http://www.w3.org/2000/svg">
<rect x="0.5" y="0.5" width="73" height="17" rx="3.5" fill="white"/>
<rect x="0.5" y="0.5" width="73" height="17" rx="3.5" stroke="#746757"/>
<path d="M11.6704 5.90608C10.9867 7.14917 9.48258 8.03591 7.77539 8.30939L7.32788 7.40193C9.38727 7.12431 11.0862 5.83149 11.0862 4.41851V3.84668H12.2464V4.41851C12.2464 5.81492 13.9494 7.12431 16.0171 7.40193L15.5737 8.30939C13.8583 8.03591 12.3541 7.14088 11.6704 5.90608ZM6.87622 9.34116H16.448V10.261H12.1842V13.9945H11.0903V10.261H6.87622V9.34116ZM25.2532 3.50276V5.77762H26.7863V6.7058H25.2532V8.98481H24.1427V3.50276H25.2532ZM23.1233 7.16575L23.2601 8.08564C21.4949 8.42127 19.8913 8.53729 18.3416 8.53315H17.4838V3.97514H18.6026V7.60912C20.0239 7.59254 21.5073 7.49724 23.1233 7.16575ZM19.6095 10.7914H24.1427V9.50691H25.2573V13.8619H18.5115V9.50691H19.6095V10.7914ZM19.6095 12.9586H24.1427V11.6948H19.6095V12.9586ZM30.8345 4.62569H33.3995V5.50414H27.1508V4.62569H29.7282V3.41989H30.8345V4.62569ZM35.3884 3.49448V6.33702H36.9091V7.27762H35.3884V10.232H34.2738V3.49448H35.3884ZM30.2793 9.70994C28.7461 9.71409 27.7185 8.98066 27.7227 7.84945C27.7185 6.72652 28.7461 5.98481 30.2793 5.98481C31.7917 5.98481 32.8193 6.72652 32.8235 7.84945C32.8193 8.98066 31.7917 9.71409 30.2793 9.70994ZM28.7959 7.84945C28.7876 8.47928 29.3843 8.86464 30.2793 8.86464C31.166 8.86464 31.7627 8.47928 31.771 7.84945C31.7627 7.21547 31.166 6.81354 30.2793 6.80525C29.3843 6.81354 28.7876 7.21547 28.7959 7.84945ZM32.0321 10.3149C34.1743 10.3149 35.5044 10.9945 35.5044 12.1547C35.5044 13.2983 34.1743 13.9779 32.0321 13.9779C29.8649 13.9779 28.5431 13.2983 28.5514 12.1547C28.5431 10.9945 29.8649 10.3149 32.0321 10.3149ZM32.0321 13.1243C33.5196 13.1326 34.3939 12.768 34.3939 12.1547C34.3939 11.5166 33.5196 11.1768 32.0321 11.1768C30.5238 11.1768 29.6453 11.5166 29.6536 12.1547C29.6453 12.768 30.5238 13.1326 32.0321 13.1243ZM42.6024 7.53039V8.75276H46.8413V9.65193H37.2695V8.75276H41.496V7.53039H38.4877V3.92956H45.619V7.53039H42.6024ZM44.5209 4.80801H39.5775V6.6395H44.5209V4.80801ZM44.5457 11.529H38.3303V10.6464H45.6645V13.9945H44.5457V11.529ZM55.7045 3.49448V6.8384H57.1506V7.77901H55.7045V11.384H54.5732V3.49448H55.7045ZM52.9779 7.9779L51.8757 7.8826C52.1036 6.71409 52.1409 5.86878 52.1492 5.20994H47.9476V4.29005H53.2431V4.8826C53.2349 5.58287 53.2349 6.62707 52.9779 7.9779ZM53.9061 8.54558L53.9724 9.35773C51.7804 9.74309 49.2735 9.78453 47.4172 9.78867L47.3136 8.88536C47.96 8.88122 48.6934 8.87707 49.4641 8.8605V6.65193H50.5663V8.8232C51.6934 8.77762 52.8495 8.69475 53.9061 8.54558ZM48.9089 10.6713H50.0194V12.8674H56.0401V13.779H48.9089V10.6713ZM65.1394 14.0152V3.49448H66.2416V14.0152H65.1394ZM59.2679 8.28039V10.576C60.9668 10.5677 62.4543 10.489 64.2113 10.1989L64.3148 11.1188C62.4543 11.4254 60.8715 11.4959 59.0234 11.4959H58.1242V7.38536H61.9032V5.35083H58.1118V4.43923H63.0303V8.28039H59.2679Z" fill="#746757"/>
</svg>
