<svg width="84" height="20" viewBox="0 0 84 20" fill="none" xmlns="http://www.w3.org/2000/svg">
<rect x="0.5" y="0.5" width="83" height="19" rx="3.5" fill="white"/>
<rect x="0.5" y="0.5" width="83" height="19" rx="3.5" stroke="#746757"/>
<path d="M13.1277 4.97852C13.1277 6.5918 15.117 8.12988 17.5027 8.47852L16.9832 9.53125C14.9939 9.20312 13.2439 8.15723 12.4578 6.71484C11.658 8.16406 9.90801 9.20312 7.90508 9.53125L7.37188 8.47852C9.78496 8.12988 11.7537 6.62598 11.7605 4.97852V4.32227H13.1277V4.97852ZM18.0223 10.7344V11.8145H13.0457V16.1621H11.7605V11.8145H6.85234V10.7344H18.0223ZM28.297 3.92578V6.57812H30.0743V7.6582H28.297V10.3242H26.9845V3.92578H28.297ZM20.545 4.45898V8.71094C22.172 8.69043 23.9356 8.57422 25.8087 8.19141L25.9591 9.25781C23.9083 9.6748 22.0352 9.80469 20.2305 9.80469H19.2325V4.45898H20.545ZM21.7071 10.9258V12.4297H26.9981V10.9258H28.2833V15.998H20.4083V10.9258H21.7071ZM21.7071 14.9453H26.9981V13.4824H21.7071V14.9453ZM40.1029 3.91211V7.23438H41.8802V8.31445H40.1029V11.7598H38.8041V3.91211H40.1029ZM36.1927 11.8691C38.7015 11.8691 40.2464 12.6621 40.2396 14.0156C40.2464 15.3486 38.7015 16.1416 36.1927 16.1348C33.6908 16.1416 32.1322 15.3486 32.1322 14.0156C32.1322 12.6621 33.6908 11.8691 36.1927 11.8691ZM36.1927 12.8809C34.4564 12.874 33.431 13.2773 33.431 14.0156C33.431 14.7334 34.4496 15.1436 36.1927 15.1367C37.9427 15.1436 38.9613 14.7334 38.9545 14.0156C38.9613 13.2773 37.9359 12.874 36.1927 12.8809ZM37.7923 5.22461V6.26367H30.5189V5.22461H33.4994V3.81641H34.8119V5.22461H37.7923ZM34.1556 6.82422C35.9261 6.82422 37.1361 7.68555 37.1361 8.98438C37.1361 10.3105 35.9193 11.1582 34.1556 11.1582C32.3783 11.1582 31.1752 10.3105 31.1752 8.98438C31.1752 7.68555 32.3714 6.82422 34.1556 6.82422ZM34.1556 7.79492C33.1166 7.80176 32.4125 8.25293 32.4193 8.98438C32.4125 9.72949 33.1166 10.1807 34.1556 10.1738C35.181 10.1807 35.8851 9.72949 35.892 8.98438C35.8851 8.25293 35.181 7.80176 34.1556 7.79492ZM52.0455 4.41797V8.62891H48.5319V10.0508H53.4674V11.1035H42.2975V10.0508H47.233V8.62891H43.7194V4.41797H52.0455ZM45.0045 5.45703V7.57617H50.7604V5.45703H45.0045ZM52.1002 12.252V16.1621H50.7877V13.291H43.5416V12.252H52.1002ZM58.3964 5.86719C58.3964 7.45996 59.5107 8.9502 61.3359 9.57227L60.6933 10.5977C59.3124 10.1191 58.2939 9.1416 57.7675 7.91797C57.2275 9.25098 56.1816 10.2969 54.7323 10.8164L54.0624 9.76367C55.9833 9.11426 57.0907 7.51465 57.0976 5.75781V4.54102H58.3964V5.86719ZM63.7421 3.91211V7.07031H65.5195V8.16406H63.7421V11.3223H62.4433V3.91211H63.7421ZM63.7421 11.9102V16.1621H62.4433V12.9629H55.662V11.9102H63.7421ZM76.4641 3.91211V16.1484H75.2062V3.91211H76.4641ZM73.9621 4.17188V15.5469H72.7316V9.32617H70.8312V8.24609H72.7316V4.17188H73.9621ZM69.6418 7.30273C69.6418 9.41504 70.4895 11.5137 72.2121 12.5117L71.4328 13.4688C70.257 12.7715 69.4572 11.5205 69.0266 10.0371C68.5891 11.6436 67.7619 13.0039 66.5656 13.7559L65.7727 12.7988C67.509 11.7324 68.384 9.49707 68.384 7.30273V6.3457H66.1418V5.2793H71.7473V6.3457H69.6418V7.30273Z" fill="#746757"/>
</svg>
