<svg width="75" height="20" viewBox="0 0 75 20" fill="none" xmlns="http://www.w3.org/2000/svg">
<rect x="0.5" y="0.5" width="74" height="19" rx="3.5" fill="white"/>
<rect x="0.5" y="0.5" width="74" height="19" rx="3.5" stroke="#26AD9F"/>
<path d="M11.0135 5.74414C11.0203 7.45312 12.1209 8.97754 13.9529 9.59961L13.2693 10.625C11.9637 10.1465 10.9451 9.2168 10.3982 7.97266C9.86504 9.36035 8.79863 10.4473 7.3084 10.9941L6.61113 9.92773C8.55254 9.26465 9.70781 7.65137 9.71465 5.79883V4.58203H11.0135V5.74414ZM16.8787 3.91211V11.1309H15.5525V7.4668H12.9959V6.40039H15.5525V3.91211H16.8787ZM12.7771 11.4727C15.3338 11.4795 16.9197 12.334 16.9197 13.8105C16.9197 15.2871 15.3338 16.1416 12.7771 16.1348C10.2068 16.1416 8.6209 15.2871 8.6209 13.8105C8.6209 12.334 10.2068 11.4795 12.7771 11.4727ZM12.7771 12.5117C10.9793 12.5117 9.91973 12.9766 9.91973 13.8105C9.91973 14.6445 10.9861 15.1162 12.7771 15.1094C14.5613 15.1162 15.6277 14.6445 15.6209 13.8105C15.6277 12.9766 14.5682 12.5117 12.7771 12.5117ZM22.8604 6.07227C22.8673 7.61035 23.9747 9.13477 25.8136 9.76367L25.1573 10.7891C23.7764 10.3105 22.7647 9.32617 22.2315 8.10938C21.7052 9.44922 20.6388 10.5361 19.1554 11.0625L18.4854 10.0234C20.379 9.37402 21.5548 7.75391 21.5479 6.07227V5.75781H18.8819V4.70508H25.4854V5.75781H22.8604V6.07227ZM28.6983 11.8555V16.1621H27.3721V12.9219H20.3995V11.8555H28.6983ZM28.6983 3.91211V11.2266H27.3721V8.10938H25.1163V7.01562H27.3721V3.91211H28.6983ZM41.5023 13.6465V14.7129H30.305V13.6465H33.2992V10.9121H31.2894V9.87305H33.1078V6.05859H31.2484V4.99219H40.4906V6.05859H38.6312V9.87305H40.4632V10.9121H38.4261V13.6465H41.5023ZM34.4066 9.87305H37.3324V6.05859H34.4066V9.87305ZM34.6117 13.6465H37.141V10.9121H34.6117V13.6465ZM55.4755 3.92578V12.8262H54.163V3.92578H55.4755ZM55.8447 14.8359V15.9023H47.4638V11.9238H48.7626V14.8359H55.8447ZM48.831 4.74609C50.6767 4.75293 52.0917 6.01758 52.0849 7.79492C52.0917 9.56543 50.6767 10.8369 48.831 10.8438C46.9648 10.8369 45.5566 9.56543 45.5634 7.79492C45.5566 6.01758 46.9648 4.75293 48.831 4.74609ZM48.831 5.88086C47.6962 5.88086 46.8349 6.64648 46.8349 7.79492C46.8349 8.92285 47.6962 9.68164 48.831 9.68164C49.9589 9.68164 50.8134 8.92285 50.8134 7.79492C50.8134 6.64648 49.9589 5.88086 48.831 5.88086ZM60.8967 9.95508V12.3066C61.7443 12.2725 62.5852 12.1973 63.3303 12.0879L63.3986 13.0586C61.3547 13.4482 58.798 13.4961 57.1506 13.4961L56.9865 12.4023C57.7248 12.4023 58.6682 12.3955 59.6525 12.3613V9.95508H60.8967ZM67.5959 3.91211V16.1484H66.3518V9.96875H65.0256V15.5332H63.8088V4.1582H65.0256V8.90234H66.3518V3.91211H67.5959ZM60.924 5.92188C60.924 7.25488 61.799 8.5332 63.385 9.10742L62.715 10.0918C61.5529 9.66113 60.7395 8.84082 60.3088 7.82227C59.8508 8.95703 58.9826 9.88672 57.7111 10.3652L57.0549 9.36719C58.716 8.76562 59.632 7.38477 59.6252 5.92188V4.88281H60.924V5.92188Z" fill="#26AD9F"/>
</svg>
