<svg width="40" height="20" viewBox="0 0 40 20" fill="none" xmlns="http://www.w3.org/2000/svg">
<rect width="40" height="20" rx="4" fill="#746757"/>
<path d="M17.414 8.30939V3.91022H18.7144V16.1844H17.414V9.37293H14.8905V8.30939H17.414ZM12.8698 6.21133V7.35704C12.8698 9.43094 14.1702 11.6644 16.0508 12.5007L15.2773 13.5352C13.8608 12.8488 12.7683 11.4275 12.2269 9.75483C11.6758 11.5338 10.559 13.0566 9.1426 13.7866L8.35462 12.7666C10.2255 11.8771 11.5452 9.56146 11.5549 7.35704V6.21133H8.84288V5.14296H15.5867V6.21133H12.8698ZM29.9394 3.91022V6.9413H31.7136V8.0145H29.9394V11.2631H28.639V3.91022H29.9394ZM23.9643 8.21754C23.4325 9.55663 22.3545 10.6202 20.88 11.1326L20.2177 10.0981C22.1273 9.46478 23.2827 7.87914 23.2923 6.18232V5.84392H20.5948V4.79006H27.2322V5.84392H24.5879V6.17265C24.5879 7.72445 25.6708 9.14572 27.532 9.74033L26.9132 10.7555C25.5161 10.3059 24.5009 9.3826 23.9643 8.21754ZM25.9802 11.5628C28.5085 11.5628 30.0506 12.3992 30.0506 13.8398C30.0506 15.2949 28.5085 16.1409 25.9802 16.1409C23.4325 16.1409 21.8711 15.2949 21.8711 13.8398C21.8711 12.3992 23.4325 11.5628 25.9802 11.5628ZM25.9802 15.116C27.7447 15.116 28.7792 14.6568 28.7792 13.8398C28.7792 13.0373 27.7447 12.5877 25.9802 12.5925C24.2108 12.5877 23.1618 13.0373 23.1715 13.8398C23.1618 14.6568 24.2108 15.116 25.9802 15.116Z" fill="white"/>
</svg>
