<svg width="60" height="20" viewBox="0 0 60 20" fill="none" xmlns="http://www.w3.org/2000/svg">
<rect x="0.5" y="0.5" width="59" height="19" rx="3.5" fill="white"/>
<rect x="0.5" y="0.5" width="59" height="19" rx="3.5" stroke="#746757"/>
<path d="M16.5567 5.04688V6.19531C16.5567 7.67188 16.5704 9.36719 16.0372 11.9238L14.7384 11.7734C14.9708 10.7344 15.1007 9.8252 15.1759 8.99805L7.82039 9.4082L7.62898 8.28711L15.2442 8C15.2716 7.34375 15.2716 6.74902 15.2716 6.19531V6.11328H7.98445V5.04688H16.5567ZM17.8282 13.4961V14.5625H6.65828V13.4961H10.8966V10.3926H12.2091V13.4961H17.8282ZM28.4173 9.70898V10.7754H19.8724V5.00586H28.2943V6.07227H21.1713V9.70898H28.4173ZM29.6888 13.4824V14.5488H18.4916V13.4824H29.6888ZM37.1198 4.8418V5.52539C37.1198 6.3457 37.1198 7.5625 36.819 9.14844L35.5338 9.01172C35.7936 7.66504 35.8346 6.67383 35.8346 5.9082H30.9401V4.8418H37.1198ZM34.0026 7.61719V10.1191C35.3151 10.0713 36.6754 9.97559 37.8991 9.80469L37.9811 10.748C35.4313 11.1924 32.4713 11.2539 30.3248 11.2676L30.2018 10.1875C30.9469 10.1875 31.8082 10.1875 32.7174 10.1602V7.61719H34.0026ZM39.9772 3.91211V7.82227H41.6725V8.90234H39.9772V13.1133H38.6784V3.91211H39.9772ZM40.3873 14.8359V15.9023H32.0612V12.2793H33.36V14.8359H40.3873ZM52.3027 3.91211V16.1758H50.9902V3.91211H52.3027ZM48.5429 5.01953V9.50391H44.1405V12.1699C46.123 12.1562 47.8798 12.0742 49.9101 11.7461L50.0468 12.7988C47.8798 13.1611 46.0478 13.25 43.8671 13.25H42.828V8.45117H47.2167V6.08594H42.8007V5.01953H48.5429Z" fill="#746757"/>
</svg>
