<svg width="60" height="20" viewBox="0 0 60 20" fill="none" xmlns="http://www.w3.org/2000/svg">
<rect x="0.5" y="0.5" width="59" height="19" rx="3.5" fill="white"/>
<rect x="0.5" y="0.5" width="59" height="19" rx="3.5" stroke="#26AD9F"/>
<path d="M10.9649 6.50977C10.9718 7.94531 12.1407 9.25098 14.0001 9.76367L13.4122 10.8027C11.9766 10.3857 10.9034 9.51758 10.3497 8.39648C9.79598 9.62012 8.72273 10.5703 7.25984 11.0215L6.64461 9.98242C8.52449 9.44238 9.66609 8.04102 9.66609 6.50977V6.31836H7.01375V5.2793H9.66609V3.87109H10.9786V5.2793H13.6173V6.31836H10.9649V6.50977ZM16.8848 3.91211V11.1309H15.5587V8.32812H13.2891V7.26172H15.5587V3.91211H16.8848ZM16.8848 11.7461V15.998H8.80477V11.7461H16.8848ZM10.0899 12.7715V14.959H15.5997V12.7715H10.0899ZM29.6752 11.1035V12.1562H24.6849V16.1621H23.3998V12.1562H18.4779V11.1035H29.6752ZM21.1576 4.4043V5.99023H26.9818V4.4043H28.2806V9.72266H19.8588V4.4043H21.1576ZM21.1576 8.66992H26.9818V7.0293H21.1576V8.66992ZM37.3385 5.16992V6.23633H36.067V11.9375C36.6686 11.8965 37.2633 11.8418 37.8307 11.7734L37.9127 12.7305C35.3561 13.1611 32.4166 13.1953 30.2975 13.1953L30.1471 12.1152L31.7194 12.1016V6.23633H30.4616V5.16992H37.3385ZM39.8541 3.91211V8.72461H41.8092V9.81836H39.8541V16.1621H38.5416V3.91211H39.8541ZM32.9909 12.0742C33.5788 12.0674 34.1871 12.0469 34.7955 12.0195V6.23633H32.9909V12.0742ZM45.6034 4.33594C47.456 4.33594 48.8163 5.46387 48.8163 7.08398C48.8163 8.67676 47.456 9.80469 45.6034 9.80469C43.7441 9.80469 42.37 8.67676 42.3769 7.08398C42.37 5.46387 43.7441 4.33594 45.6034 4.33594ZM45.6034 5.40234C44.4823 5.40234 43.6484 6.07227 43.6484 7.08398C43.6484 8.08203 44.4892 8.73828 45.6034 8.73828C46.7109 8.73828 47.5517 8.08203 47.5585 7.08398C47.5517 6.07227 46.7177 5.40234 45.6034 5.40234ZM52.289 3.91211V10.1328H50.9765V3.91211H52.289ZM52.289 10.707V13.7969H45.5351V14.959H52.6855V15.998H44.2636V12.8262H51.0038V11.7461H44.2363V10.707H52.289Z" fill="#26AD9F"/>
</svg>
