<svg width="60" height="20" viewBox="0 0 60 20" fill="none" xmlns="http://www.w3.org/2000/svg">
<rect width="60" height="20" rx="4" fill="#02C75A"/>
<path d="M17.8692 13.5371V14.6172H6.67195V13.5371H11.5665V10.6387H12.8653V13.5371H17.8692ZM12.9063 5.62109C12.9063 7.55566 15.0255 9.36035 17.377 9.77734L16.8165 10.8711C14.8341 10.4746 13.0225 9.22363 12.2091 7.54883C11.4024 9.2168 9.59773 10.4678 7.61531 10.8711L7.05477 9.77734C9.41316 9.36035 11.5186 7.54199 11.5255 5.62109V4.69141H12.9063V5.62109ZM29.6752 10.8301V11.9102H26.8451V16.1484H25.5189V11.9102H22.5931V16.1484H21.2533V11.9102H18.4779V10.8301H29.6752ZM24.056 4.37695C26.6468 4.37695 28.4173 5.42285 28.4173 7.07031C28.4173 8.71094 26.64 9.75684 24.056 9.75C21.4652 9.75684 19.6947 8.71094 19.6947 7.07031C19.6947 5.42285 21.4652 4.37695 24.056 4.37695ZM24.056 5.42969C22.2377 5.42285 21.0345 6.05176 21.0345 7.07031C21.0345 8.08203 22.2445 8.69727 24.056 8.69727C25.8607 8.69727 27.0775 8.08203 27.0775 7.07031C27.0775 6.05176 25.8675 5.42285 24.056 5.42969ZM39.9362 3.92578V7.5625H41.6862V8.64258H39.9362V12.1562H38.6373V3.92578H39.9362ZM30.2155 10.8027C31.1793 10.8027 32.2731 10.7959 33.4147 10.7617V9.92773C32.027 9.78418 31.1452 9.13477 31.1452 8.16406C31.1452 7.03613 32.3004 6.33887 34.0573 6.33203C35.8278 6.33887 36.983 7.03613 36.983 8.16406C36.983 9.12793 36.1149 9.77734 34.7272 9.92773V10.7207C35.8209 10.6729 36.9215 10.5908 37.9538 10.4473L38.0495 11.3633C35.4176 11.8213 32.5397 11.835 30.3795 11.8418L30.2155 10.8027ZM39.9362 12.7441V16.1621H38.6373V13.7832H31.7467V12.7441H39.9362ZM37.5983 4.96484V5.93555H30.5163V4.96484H33.4147V3.81641H34.7272V4.96484H37.5983ZM34.0573 7.23438C33.0319 7.22754 32.3893 7.56934 32.3893 8.16406C32.3893 8.73145 33.0387 9.09375 34.0573 9.09375C35.0895 9.09375 35.7389 8.73145 35.7389 8.16406C35.7389 7.56934 35.0895 7.22754 34.0573 7.23438ZM52.289 3.92578V12.8262H50.9765V3.92578H52.289ZM52.6581 14.8359V15.9023H44.2773V11.9238H45.5761V14.8359H52.6581ZM45.6445 4.74609C47.4902 4.75293 48.9052 6.01758 48.8984 7.79492C48.9052 9.56543 47.4902 10.8369 45.6445 10.8438C43.7782 10.8369 42.37 9.56543 42.3769 7.79492C42.37 6.01758 43.7782 4.75293 45.6445 4.74609ZM45.6445 5.88086C44.5097 5.88086 43.6484 6.64648 43.6484 7.79492C43.6484 8.92285 44.5097 9.68164 45.6445 9.68164C46.7724 9.68164 47.6269 8.92285 47.6269 7.79492C47.6269 6.64648 46.7724 5.88086 45.6445 5.88086Z" fill="white"/>
</svg>
