<svg width="84" height="20" viewBox="0 0 84 20" fill="none" xmlns="http://www.w3.org/2000/svg">
<rect x="0.5" y="0.5" width="83" height="19" rx="3.5" fill="white"/>
<rect x="0.5" y="0.5" width="83" height="19" rx="3.5" stroke="#746757"/>
<path d="M14.1531 5.12891V6.19531H6.87969V5.12891H9.86016V3.85742H11.1727V5.12891H14.1531ZM10.5164 6.74219C12.2801 6.74219 13.4969 7.63086 13.4969 8.9707C13.4969 10.3105 12.2801 11.1855 10.5164 11.1855C8.73906 11.1855 7.53594 10.3105 7.53594 8.9707C7.53594 7.63086 8.73906 6.74219 10.5164 6.74219ZM10.5164 7.75391C9.47734 7.76074 8.77324 8.21875 8.78008 8.9707C8.77324 9.72266 9.47734 10.1875 10.5164 10.1875C11.5418 10.1875 12.2459 9.72266 12.2527 8.9707C12.2459 8.21875 11.5418 7.76074 10.5164 7.75391ZM16.4637 3.91211V7.2207H18.241V8.31445H16.4637V11.582H15.1648V3.91211H16.4637ZM16.4637 12.1836V16.1621H15.1648V13.25H8.38359V12.1836H16.4637ZM28.8575 3.92578V13.209H27.545V12.0469H25.0841V11.1035H27.545V3.92578H28.8575ZM29.1583 14.8359V15.9023H20.2989V12.3066H21.6114V14.8359H29.1583ZM18.6036 9.50391C20.8389 9.49707 23.9288 9.46973 26.547 9.13477L26.6427 10.0918C25.5899 10.2627 24.4893 10.3721 23.4024 10.4336V12.8262H22.0899V10.502C20.9005 10.5566 19.7657 10.5703 18.7813 10.5703L18.6036 9.50391ZM22.6095 4.39062C24.4141 4.38379 25.6583 5.24512 25.6583 6.53711C25.6583 7.84277 24.4141 8.68359 22.6095 8.68359C20.7979 8.68359 19.5538 7.84277 19.547 6.53711C19.5538 5.24512 20.8048 4.38379 22.6095 4.39062ZM22.6095 5.34766C21.543 5.35449 20.7979 5.8125 20.7911 6.53711C20.7979 7.26172 21.543 7.71289 22.6095 7.71289C23.6827 7.71289 24.4141 7.26172 24.4141 6.53711C24.4141 5.8125 23.6827 5.35449 22.6095 5.34766ZM36.767 4.97852C36.767 6.5918 38.7562 8.12988 41.142 8.47852L40.6224 9.53125C38.6332 9.20312 36.8832 8.15723 36.097 6.71484C35.2972 8.16406 33.5472 9.20312 31.5443 9.53125L31.0111 8.47852C33.4242 8.12988 35.3929 6.62598 35.3998 4.97852V4.32227H36.767V4.97852ZM41.6615 10.7344V11.8145H36.6849V16.1621H35.3998V11.8145H30.4916V10.7344H41.6615ZM51.9362 3.92578V6.57812H53.7135V7.6582H51.9362V10.3242H50.6237V3.92578H51.9362ZM44.1842 4.45898V8.71094C45.8112 8.69043 47.5748 8.57422 49.4479 8.19141L49.5983 9.25781C47.5475 9.6748 45.6745 9.80469 43.8698 9.80469H42.8717V4.45898H44.1842ZM45.3463 10.9258V12.4297H50.6373V10.9258H51.9225V15.998H44.0475V10.9258H45.3463ZM45.3463 14.9453H50.6373V13.4824H45.3463V14.9453ZM64.3437 3.91211V16.1758H63.0585V9.38086H60.5155V8.31445H63.0585V3.91211H64.3437ZM58.4921 7.33008C58.4921 9.40137 59.8114 11.6504 61.6777 12.5117L60.912 13.5371C59.5107 12.8535 58.4169 11.4316 57.8632 9.75C57.3163 11.541 56.1952 13.0654 54.7734 13.7969L53.9941 12.7578C55.8603 11.8623 57.1796 9.53125 57.1796 7.33008V6.20898H54.4726V5.14258H61.2265V6.20898H58.4921V7.33008ZM70.2297 6.1543C70.2229 7.70605 71.3098 9.12793 73.1691 9.72266L72.5402 10.748C71.1457 10.2969 70.134 9.3877 69.6008 8.21875C69.0607 9.56543 67.9875 10.625 66.5109 11.1309L65.8547 10.1055C67.7687 9.44922 68.9104 7.86328 68.9172 6.16797V5.85352H66.2375V4.78711H72.8684V5.85352H70.2297V6.1543ZM75.5617 3.91211V6.93359H77.3391V8.01367H75.5617V11.2676H74.2629V3.91211H75.5617ZM71.6105 11.5547C74.133 11.5547 75.6916 12.3955 75.6984 13.8379C75.6916 15.2871 74.1398 16.1416 71.6105 16.1348C69.0744 16.1416 67.509 15.2871 67.509 13.8379C67.509 12.3955 69.0812 11.5547 71.6105 11.5547ZM71.6105 12.5938C69.8469 12.5938 68.801 13.0312 68.7941 13.8379C68.801 14.6582 69.84 15.1162 71.6105 15.1094C73.3742 15.1162 74.4133 14.6582 74.4133 13.8379C74.4133 13.0312 73.3674 12.5938 71.6105 12.5938Z" fill="#746757"/>
</svg>
