<svg width="60" height="20" viewBox="0 0 60 20" fill="none" xmlns="http://www.w3.org/2000/svg">
<rect width="60" height="20" rx="4" fill="#28251C"/>
<path d="M16.2149 3.91211V8.64258H18.17V9.73633H16.2149V16.1758H14.9024V3.91211H16.2149ZM12.92 5.07422V6.14062H8.47664V12.0605C10.5548 12.0469 12.0929 11.958 13.836 11.6504L13.9864 12.7441C12.086 13.0791 10.4796 13.1611 8.17586 13.1543H7.17781V5.07422H12.92ZM22.9759 7.00195C22.9828 9.27148 24.3295 11.5068 26.2162 12.3477L25.4505 13.4141C24.0287 12.7305 22.9213 11.3428 22.347 9.6543C21.7796 11.4521 20.6517 12.9287 19.1888 13.6465L18.3959 12.5801C20.3168 11.6914 21.6703 9.33984 21.6771 7.00195V4.9375H22.9759V7.00195ZM28.6361 3.91211V16.1758H27.3236V3.91211H28.6361ZM34.5905 6.08594C34.5836 7.6582 35.6774 9.15527 37.5436 9.77734L36.8737 10.8027C35.4928 10.3311 34.4811 9.37402 33.9479 8.16406C33.4079 9.4834 32.3414 10.5293 30.8991 11.0352L30.2155 10.0098C32.1295 9.36035 33.2711 7.78125 33.278 6.09961V5.78516H30.5983V4.73242H37.2291V5.78516H34.5905V6.08594ZM39.9225 3.91211V7.05664H41.6998V8.13672H39.9225V11.2812H38.6237V3.91211H39.9225ZM39.9225 11.9102V16.1621H38.6237V12.9629H31.8424V11.9102H39.9225ZM46.4784 5.74414C46.4853 7.45312 47.5859 8.97754 49.4179 9.59961L48.7343 10.625C47.4286 10.1465 46.4101 9.2168 45.8632 7.97266C45.33 9.36035 44.2636 10.4473 42.7734 10.9941L42.0761 9.92773C44.0175 9.26465 45.1728 7.65137 45.1796 5.79883V4.58203H46.4784V5.74414ZM52.3437 3.91211V11.1309H51.0175V7.4668H48.4609V6.40039H51.0175V3.91211H52.3437ZM48.2421 11.4727C50.7988 11.4795 52.3847 12.334 52.3847 13.8105C52.3847 15.2871 50.7988 16.1416 48.2421 16.1348C45.6718 16.1416 44.0859 15.2871 44.0859 13.8105C44.0859 12.334 45.6718 11.4795 48.2421 11.4727ZM48.2421 12.5117C46.4443 12.5117 45.3847 12.9766 45.3847 13.8105C45.3847 14.6445 46.4511 15.1162 48.2421 15.1094C50.0263 15.1162 51.0927 14.6445 51.0859 13.8105C51.0927 12.9766 50.0331 12.5117 48.2421 12.5117Z" fill="white"/>
</svg>
