<svg width="114" height="20" viewBox="0 0 114 20" fill="none" xmlns="http://www.w3.org/2000/svg">
<rect width="114" height="20" rx="4" fill="#746757"/>
<path d="M17.3427 16.1602V3.91022H18.6479V16.1602H17.3427ZM9.17763 5.22997H15.0077C14.9981 8.81215 13.4753 11.9206 9.26948 13.9268L8.58302 12.8778C11.8413 11.3308 13.4269 9.12155 13.6832 6.2645H9.17763V5.22997ZM26.5083 9.31975V10.5331H31.4537V11.5967H20.2866V10.5331H25.2175V9.31975H21.7466V4.38398H23.0373V5.82942H28.7127V4.38398H30.0035V9.31975H26.5083ZM28.7127 6.83978H23.0373V8.28039H28.7127V6.83978ZM21.6934 12.4765H22.9986V14.8453H30.1968V15.9088H21.6934V12.4765ZM38.734 8.10152V7.03315H41.0206V3.91022H42.3162V11.2003H41.0206V8.10152H38.734ZM35.8576 8.12569C35.321 9.49378 34.2478 10.5912 32.783 11.1278L32.1111 10.0981C34.0061 9.43094 35.1711 7.77762 35.1711 6.08564V5.81492H32.5123V4.75621H39.1256V5.81492H36.4861V6.07597C36.4861 7.62776 37.5931 9.13605 39.4398 9.75967L38.7775 10.7942C37.3997 10.3156 36.3894 9.33425 35.8576 8.12569ZM38.2119 11.5435C40.7789 11.5435 42.35 12.3943 42.3548 13.8543C42.35 15.3094 40.7789 16.1506 38.2119 16.1602C35.6401 16.1506 34.0641 15.3094 34.0738 13.8543C34.0641 12.3943 35.6401 11.5435 38.2119 11.5435ZM38.2119 15.1402C40.0006 15.1499 41.0641 14.6761 41.0689 13.8543C41.0641 13.0228 40.0006 12.549 38.2119 12.549C36.4184 12.549 35.35 13.0228 35.3597 13.8543C35.35 14.6761 36.4184 15.1499 38.2119 15.1402ZM50.1427 11.0552V13.5691H55.1365V14.6423H43.9258V13.5691H48.8568V11.0552H45.2021V4.74655H46.5025V6.85912H52.5163V4.74655H53.807V11.0552H50.1427ZM52.5163 7.90331H46.5025V10.0014H52.5163V7.90331ZM65.4483 8.29489V7.23619H67.7978V3.91989H69.0933V12.8923H67.7978V8.29489H65.4483ZM62.6299 8.43992C62.0885 9.78867 61.0201 10.8715 59.5602 11.3936L58.8882 10.3349C60.7736 9.70166 61.9483 8.08702 61.9483 6.39986V5.91644H59.2895V4.85773H65.9027V5.91644H63.2632V6.39986C63.2632 7.92749 64.3703 9.45994 66.217 10.0787L65.5547 11.1133C64.1721 10.6347 63.1617 9.64848 62.6299 8.43992ZM62.4366 12.0946V14.8453H69.4172V15.9088H61.141V12.0946H62.4366ZM79.9751 16.1602V3.91022H81.2078V16.1602H79.9751ZM75.7355 8.68163H77.5V4.17127H78.723V15.5414H77.5V9.75967H75.7355V8.68163ZM74.3674 7.17334V7.66644C74.3674 9.60014 75.2569 11.5628 76.9489 12.4717L76.2189 13.4337C75.0345 12.8004 74.2127 11.6305 73.7679 10.2431C73.328 11.7272 72.5062 13.0083 71.3218 13.7141L70.558 12.7376C72.2596 11.7417 73.1346 9.64848 73.1443 7.66644V7.17334H70.9351V6.11464H73.1443V4.35014H74.3674V6.11464H76.5428V7.17334H74.3674ZM88.7395 11.0552V13.5691H93.7333V14.6423H82.5226V13.5691H87.4536V11.0552H83.7989V4.74655H85.0993V6.85912H91.1131V4.74655H92.4038V11.0552H88.7395ZM91.1131 7.90331H85.0993V10.0014H91.1131V7.90331ZM103.218 16.1602V3.91022H104.523V16.1602H103.218ZM95.0529 5.22997H100.883C100.873 8.81215 99.3505 11.9206 95.1447 13.9268L94.4583 12.8778C97.7165 11.3308 99.3022 9.12155 99.5584 6.2645H95.0529V5.22997Z" fill="white"/>
</svg>
