<svg width="53" height="18" viewBox="0 0 53 18" fill="none" xmlns="http://www.w3.org/2000/svg">
<rect x="0.5" y="0.5" width="52" height="17" rx="3.5" fill="white"/>
<rect x="0.5" y="0.5" width="52" height="17" rx="3.5" stroke="#26AD9F"/>
<path d="M12.1344 7.25276V6.3453H14.1482V3.50276H15.2587V11.1934H14.1482V7.25276H12.1344ZM9.71864 7.37707C9.25455 8.53315 8.33881 9.46133 7.08743 9.90884L6.51146 9.00138C8.12748 8.45856 9.13439 7.07459 9.13439 5.62845V5.21409H6.85538V4.30663H12.5239V5.21409H10.2615V5.62845C10.2615 6.93784 11.2104 8.25138 12.7932 8.78177L12.2255 9.66851C11.0405 9.25829 10.1744 8.41298 9.71864 7.37707ZM9.5529 10.5097V12.8674H15.5363V13.779H8.4424V10.5097H9.5529ZM24.5859 13.9945V3.49448H25.6426V13.9945H24.5859ZM20.9519 7.58425H22.4644V3.71823H23.5127V13.4641H22.4644V8.50829H20.9519V7.58425ZM19.7793 6.29144V6.71409C19.7793 8.37155 20.5417 10.0539 21.992 10.8329L21.3663 11.6575C20.3511 11.1146 19.6467 10.1119 19.2655 8.92265C18.8884 10.1948 18.184 11.2928 17.1688 11.8978L16.5141 11.0608C17.9727 10.2072 18.7227 8.41298 18.731 6.71409V6.29144H16.8373V5.38398H18.731V3.87155H19.7793V5.38398H21.6439V6.29144H19.7793ZM34.398 13.9986V3.50276H35.4919V13.9986H34.398ZM27.6811 8.71133L27.2129 7.83702C28.7626 7.50967 29.7032 6.5732 29.7032 5.52072V5.51657H27.4491V4.64641H29.7073V3.51934H30.8178V4.64641H33.072V5.51657H30.8178V5.52072C30.8178 6.51519 31.7585 7.37707 33.2875 7.69613L32.8399 8.5663C31.6341 8.29696 30.7433 7.69199 30.2792 6.89641C29.8275 7.76657 28.9242 8.42541 27.6811 8.71133ZM33.6687 9.04696L33.7474 9.85497C32.7902 10.0166 31.7999 10.116 30.8344 10.1782V13.6796H29.7198V10.2362C28.7087 10.2735 27.7474 10.2818 26.9021 10.2818L26.7571 9.35359C28.746 9.35773 31.3814 9.34116 33.6687 9.04696ZM41.6492 6.6105C40.9531 8.0442 39.4075 9.10912 37.7128 9.44061L37.2238 8.51657C39.2459 8.18508 41.0525 6.62707 41.0608 4.95718V4.16989H42.2335V4.95718C42.2335 6.62707 44.0608 8.18508 46.0912 8.51657L45.6023 9.44061C43.9034 9.10497 42.3412 8.05249 41.6492 6.6105ZM42.2003 9.25V11.7528H46.5097V12.6602H36.9006V11.7528H41.1064V9.25H42.2003Z" fill="#26AD9F"/>
</svg>
