<svg width="84" height="20" viewBox="0 0 84 20" fill="none" xmlns="http://www.w3.org/2000/svg">
<rect width="84" height="20" rx="4" fill="#40916C"/>
<path d="M17.2977 3.91211V11.2266H16.0535V3.91211H17.2977ZM14.9188 4.13086V11.1445H13.6746V8.16406H12.5262C12.3006 9.58594 11.2068 10.543 9.75078 10.543C8.13066 10.543 6.94805 9.33984 6.94805 7.61719C6.94805 5.8877 8.13066 4.67773 9.75078 4.67773C11.2137 4.67773 12.3074 5.6416 12.5262 7.08398H13.6746V4.13086H14.9188ZM17.2977 11.7871V16.1621H15.9988V12.8398H8.94414V11.7871H17.2977ZM9.75078 5.78516C8.80059 5.78516 8.12383 6.52344 8.12383 7.61719C8.12383 8.7041 8.80059 9.44238 9.75078 9.43555C10.7078 9.44238 11.3982 8.7041 11.3914 7.61719C11.3982 6.52344 10.7078 5.78516 9.75078 5.78516ZM22.377 5.55273C22.377 6.97461 23.1905 8.36914 24.7149 8.99805L24.045 9.98242C22.9239 9.51758 22.172 8.65625 21.7618 7.60352C21.3243 8.78613 20.5108 9.79102 19.3419 10.3379L18.6173 9.35352C20.2579 8.61523 21.1261 7.00195 21.1192 5.51172V4.41797H22.377V5.55273ZM29.1173 3.92578V10.3926H27.8731V3.92578H29.1173ZM26.67 4.13086V10.2969H25.4395V7.15234H23.6759V6.08594H25.4395V4.13086H26.67ZM29.1173 10.9121V13.9062H22.213V15H29.5684V16.0391H20.9141V12.9355H27.8321V11.9512H20.9005V10.9121H29.1173ZM33.9642 4.33594C35.8168 4.33594 37.1771 5.46387 37.1771 7.08398C37.1771 8.67676 35.8168 9.80469 33.9642 9.80469C32.1048 9.80469 30.7308 8.67676 30.7377 7.08398C30.7308 5.46387 32.1048 4.33594 33.9642 4.33594ZM33.9642 5.40234C32.8431 5.40234 32.0091 6.07227 32.0091 7.08398C32.0091 8.08203 32.85 8.73828 33.9642 8.73828C35.0716 8.73828 35.9125 8.08203 35.9193 7.08398C35.9125 6.07227 35.0785 5.40234 33.9642 5.40234ZM40.6498 3.91211V10.1328H39.3373V3.91211H40.6498ZM40.6498 10.707V13.7969H33.8959V14.959H41.0463V15.998H32.6244V12.8262H39.3646V11.7461H32.597V10.707H40.6498ZM49.1198 4.52734V5.16992C49.1198 5.86719 49.1198 6.92676 48.819 8.27344L47.5475 8.13672C47.7799 7.0498 47.8278 6.22266 47.8346 5.58008H42.9401V4.52734H49.1198ZM45.9889 7.00195V9.09375C47.3082 9.05273 48.6618 8.9707 49.8991 8.82031L49.9811 9.72266C47.4245 10.1533 44.5602 10.2012 42.3248 10.2012L42.2018 9.14844C42.9674 9.14844 43.8219 9.14844 44.7038 9.12109V7.00195H45.9889ZM51.9772 3.91211V6.72852H53.6725V7.79492H51.9772V10.4746H50.6784V3.91211H51.9772ZM51.9772 10.9941V13.9199H45.1139V15.041H52.4284V16.0391H43.8288V12.9766H50.6784V11.9648H43.8014V10.9941H51.9772ZM65.3007 11.2949V12.375H60.3515V16.1758H59.0527V12.375H54.1308V11.2949H65.3007ZM64.2343 5.38867V6.44141H60.3652C60.4335 7.79492 62.2861 9.11426 64.6171 9.42188L64.1523 10.4609C62.1698 10.1875 60.5019 9.25781 59.7089 8C58.9159 9.26465 57.2343 10.1807 55.2519 10.4609L54.787 9.42188C57.1249 9.11426 58.9706 7.81543 59.0527 6.44141H55.1972V5.38867H59.0527V3.92578H60.3515V5.38867H64.2343ZM75.4934 3.91211V8.79297H77.3937V9.87305H75.4934V16.1484H74.1809V3.91211H75.4934ZM72.2805 5.21094C72.2736 8.73828 70.7219 11.8896 66.6887 13.8926L65.9641 12.8945C68.9924 11.3701 70.6809 9.16895 70.9543 6.27734H66.5656V5.21094H72.2805Z" fill="white"/>
</svg>
