<svg width="91" height="20" viewBox="0 0 91 20" fill="none" xmlns="http://www.w3.org/2000/svg">
<rect width="91" height="20" rx="4" fill="#746757"/>
<path d="M11.1929 6.14062C11.1997 7.80859 12.3003 9.4082 14.1323 10.0781L13.4351 11.0762C12.0884 10.5635 11.0972 9.55176 10.5777 8.28711C10.0445 9.69531 8.99172 10.8096 7.5425 11.377L6.85891 10.3379C8.75246 9.6543 9.89406 7.93848 9.89406 6.11328V4.65039H11.1929V6.14062ZM17.0855 3.92578V13.0449H15.7593V7.78125H13.189V6.71484H15.7593V3.92578H17.0855ZM17.3589 14.8359V15.9023H9.07375V12.0605H10.3726V14.8359H17.3589ZM23.9832 4.78711V5.83984H20.4422V7.20703H23.8465V8.21875H20.4422V9.69531C22.1102 9.68848 23.1561 9.62012 24.407 9.39453L24.5301 10.4473C23.115 10.7139 21.8914 10.7617 19.991 10.7617H19.1844V4.78711H23.9832ZM29.1375 3.92578V11.3496H27.8934V8.10938H26.4168V11.2812H25.1863V4.14453H26.4168V7.04297H27.8934V3.92578H29.1375ZM29.1375 11.9648V16.1621H27.8387V13.0312H20.784V11.9648H29.1375ZM37.8126 5.12891V6.19531H30.5391V5.12891H33.5196V3.85742H34.8321V5.12891H37.8126ZM34.1759 6.74219C35.9395 6.74219 37.1563 7.63086 37.1563 8.9707C37.1563 10.3105 35.9395 11.1855 34.1759 11.1855C32.3985 11.1855 31.1954 10.3105 31.1954 8.9707C31.1954 7.63086 32.3985 6.74219 34.1759 6.74219ZM34.1759 7.75391C33.1368 7.76074 32.4327 8.21875 32.4395 8.9707C32.4327 9.72266 33.1368 10.1875 34.1759 10.1875C35.2013 10.1875 35.9054 9.72266 35.9122 8.9707C35.9054 8.21875 35.2013 7.76074 34.1759 7.75391ZM40.1231 3.91211V7.2207H41.9005V8.31445H40.1231V11.582H38.8243V3.91211H40.1231ZM40.1231 12.1836V16.1621H38.8243V13.25H32.043V12.1836H40.1231ZM46.0638 6.23633C46.0638 7.58984 46.932 8.94336 48.5111 9.55859L47.8275 10.5566C46.6996 10.1123 45.9066 9.27832 45.4623 8.27344C45.0043 9.41504 44.1634 10.3994 42.974 10.9121L42.2767 9.90039C43.9242 9.18262 44.8129 7.61719 44.806 6.23633V4.67773H46.0638V6.23633ZM52.7767 3.92578V11.459H51.5326V8.17773H50.1244V11.0625H48.8802V4.14453H50.1244V7.11133H51.5326V3.92578H52.7767ZM48.6752 11.6914C51.225 11.6914 52.8314 12.5186 52.8314 13.9199C52.8314 15.3213 51.2318 16.1416 48.6752 16.1348C46.1048 16.1416 44.5121 15.3213 44.5189 13.9199C44.5121 12.5186 46.1117 11.6914 48.6752 11.6914ZM48.6752 12.7031C46.891 12.6963 45.8041 13.1338 45.8041 13.9199C45.8041 14.6992 46.8841 15.1436 48.6752 15.1504C50.4662 15.1436 51.5326 14.6992 51.5326 13.9199C51.5326 13.1338 50.4525 12.6963 48.6752 12.7031ZM61.0077 15.1914C59.5585 15.1914 58.4032 14.6104 57.4941 13.4141L58.6015 12.5117C59.2987 13.4072 60.0234 13.79 61.0077 13.7832C62.245 13.79 63.0038 13.1816 63.0038 12.1973C63.0038 11.3975 62.5048 10.9736 61.0624 10.5703L60.5839 10.4336C58.7177 9.93457 57.8495 9.08008 57.8495 7.75391C57.8495 6.12012 59.203 4.91016 61.0761 4.91016C62.3886 4.91016 63.5986 5.5459 64.3847 6.63281L63.2636 7.50781C62.6825 6.72168 61.9306 6.31152 61.0761 6.31836C60.0507 6.31152 59.3534 6.89941 59.3534 7.75391C59.3534 8.41699 59.7704 8.76562 60.9667 9.08008L61.4452 9.2168C63.5712 9.80469 64.5009 10.7002 64.5077 12.1836C64.5009 13.9814 63.0927 15.1914 61.0077 15.1914ZM65.7863 15V5.10156H67.6457L70.7082 12.7031H70.7629L73.8254 5.10156H75.6848V15H74.2219V8.06836H74.1809L71.3781 15H70.093L67.3039 8.06836H67.2492V15H65.7863ZM80.4634 15.1914C79.0141 15.1914 77.8589 14.6104 76.9497 13.4141L78.0571 12.5117C78.7544 13.4072 79.479 13.79 80.4634 13.7832C81.7007 13.79 82.4595 13.1816 82.4595 12.1973C82.4595 11.3975 81.9604 10.9736 80.5181 10.5703L80.0395 10.4336C78.1733 9.93457 77.3052 9.08008 77.3052 7.75391C77.3052 6.12012 78.6587 4.91016 80.5317 4.91016C81.8442 4.91016 83.0542 5.5459 83.8403 6.63281L82.7192 7.50781C82.1382 6.72168 81.3862 6.31152 80.5317 6.31836C79.5063 6.31152 78.8091 6.89941 78.8091 7.75391C78.8091 8.41699 79.2261 8.76562 80.4223 9.08008L80.9009 9.2168C83.0268 9.80469 83.9565 10.7002 83.9634 12.1836C83.9565 13.9814 82.5483 15.1914 80.4634 15.1914Z" fill="white"/>
</svg>
