<svg width="147" height="37" viewBox="0 0 147 37" fill="none" xmlns="http://www.w3.org/2000/svg">
<rect x="0.5" y="0.5" width="146" height="36" rx="5.5" fill="white"/>
<rect x="0.5" y="0.5" width="146" height="36" rx="5.5" stroke="#746757"/>
<path d="M24.3906 19.3094V17.9088H28.4845V8.00552H30.7221V20.3204H28.4845V19.3094H24.3906ZM20.0232 14.6685C16.8408 14.6685 14.7607 13.4917 14.7607 11.5276C14.7607 9.60497 16.8408 8.37016 20.0232 8.37016C23.1475 8.37016 25.2442 9.60497 25.2607 11.5276C25.2442 13.4917 23.1475 14.6685 20.0232 14.6685ZM20.0232 9.87016C18.0839 9.87016 16.8491 10.5249 16.8657 11.5276C16.8491 12.5304 18.0839 13.1768 20.0232 13.1768C21.9292 13.1768 23.164 12.5304 23.164 11.5276C23.164 10.5249 21.9292 9.87016 20.0232 9.87016ZM21.0011 20.3702H18.8049V17.3039C16.9154 17.3619 15.0922 17.3619 13.4513 17.3536L13.1944 15.7541C17.2635 15.7624 22.4016 15.721 26.9265 15.2486L27.0591 16.674C25.0701 16.9475 23.0149 17.1133 21.0011 17.221V20.3702ZM18.6143 25.558V27.174H31.3519V28.7901H16.4265V24.0663H28.5094V22.5829H16.3436V21.0249H30.7221V25.558H18.6143ZM48.6721 29.0304V7.98895H50.9097V29.0304H48.6721ZM41.2218 9.73757V13.3343C41.2052 17.1713 43.5174 21.0331 46.7743 22.4669L45.4318 24.2403C43.0202 23.0884 41.1141 20.7265 40.1279 17.8508C39.1583 20.9254 37.2273 23.4696 34.7163 24.6878L33.3406 22.8315C36.6472 21.3564 38.9677 17.3453 38.9842 13.3343V9.73757H41.2218ZM70.2768 7.98895V14.1961H73.3183V16.0608H70.2768V23.2541H68.0227V7.98895H70.2768ZM64.5752 9.5884C64.5752 15.0994 60.8293 19.0939 54.6967 20.942L53.752 19.1685C58.6746 17.6934 61.7243 14.8923 62.1553 11.4365H54.6304V9.5884H64.5752ZM56.9426 21.6878H59.1801V26.7348H71.147V28.558H56.9426V21.6878ZM87.9782 20.0221V24.6878H93.2572V26.5028H74.039V24.6878H79.1937V20.0221H75.7213V18.1989H78.8539V11.6685H75.6716V9.85359H91.5003V11.6685H88.2849V18.1989H91.434V20.0221H87.9782ZM86.097 11.6685H81.0666V18.1989H86.097V11.6685ZM85.749 20.0221H81.423V24.6878H85.749V20.0221ZM110.088 15.3066H107.635V20.2624H105.564V8.39503H107.635V13.4751H110.088V8.00552H112.193V20.9337H110.088V15.3066ZM104.917 17.6602L103.732 19.3757C101.785 18.6298 100.417 17.1961 99.6631 15.4724C98.8924 17.4199 97.4587 19.1188 95.42 19.989L94.21 18.2652C97.0443 17.0221 98.5609 14.3619 98.5609 12.0249V9.29834H100.716V12.0249C100.716 14.3204 102.182 16.6409 104.917 17.6602ZM105.182 21.3398C109.55 21.3398 112.309 22.7486 112.309 25.1519C112.309 27.5387 109.55 28.9558 105.182 28.9558C100.782 28.9558 98.0388 27.5387 98.0553 25.1519C98.0388 22.7486 100.782 21.3398 105.182 21.3398ZM105.182 27.2403C108.216 27.2569 110.08 26.4862 110.088 25.1519C110.08 23.8094 108.216 23.0304 105.182 23.0304C102.116 23.0304 100.251 23.8094 100.268 25.1519C100.251 26.4862 102.116 27.2569 105.182 27.2403ZM132.066 20.3867H129.845V14.0967H125.42V12.2652H129.845V7.98895H132.066V20.3867ZM120.961 14.9171C120.05 17.3204 118.218 19.1934 115.674 20.1133L114.481 18.3232C117.837 17.1796 119.784 14.3867 119.801 11.2376V9.15746H122.022V11.1464C122.005 14.0718 123.911 16.6989 127.094 17.7348L125.884 19.4751C123.572 18.6381 121.873 17.0221 120.961 14.9171ZM125.03 20.9669C129.431 20.9669 132.124 22.442 132.132 24.9862C132.124 27.5221 129.431 28.9558 125.03 28.9558C120.621 28.9558 117.92 27.5221 117.936 24.9862C117.92 22.442 120.621 20.9669 125.03 20.9669ZM125.03 27.1989C128.097 27.1989 129.92 26.3867 129.928 24.9862C129.92 23.5359 128.097 22.7155 125.03 22.7155C121.956 22.7155 120.124 23.5359 120.141 24.9862C120.124 26.3867 121.956 27.1989 125.03 27.1989Z" fill="#746757"/>
</svg>
