<svg width="96" height="20" viewBox="0 0 96 20" fill="none" xmlns="http://www.w3.org/2000/svg">
<rect x="0.5" y="0.5" width="95" height="19" rx="3.5" fill="white"/>
<rect x="0.5" y="0.5" width="95" height="19" rx="3.5" stroke="#746757"/>
<path d="M18.1261 10.1055V11.1582H13.2726V13.5098H11.9738V11.1582H6.92887V10.1055H18.1261ZM16.6769 4.47266V8.84766H8.35074V4.47266H16.6769ZM9.6359 5.51172V7.79492H15.3918V5.51172H9.6359ZM16.882 14.8359V15.9023H8.30973V12.3887H9.62223V14.8359H16.882ZM28.3735 3.91211V7.23438H30.1508V8.31445H28.3735V11.7598H27.0746V3.91211H28.3735ZM24.4633 11.8691C26.9721 11.8691 28.517 12.6621 28.5102 14.0156C28.517 15.3486 26.9721 16.1416 24.4633 16.1348C21.9614 16.1416 20.4028 15.3486 20.4028 14.0156C20.4028 12.6621 21.9614 11.8691 24.4633 11.8691ZM24.4633 12.8809C22.727 12.874 21.7016 13.2773 21.7016 14.0156C21.7016 14.7334 22.7202 15.1436 24.4633 15.1367C26.2133 15.1436 27.2319 14.7334 27.225 14.0156C27.2319 13.2773 26.2065 12.874 24.4633 12.8809ZM26.0629 5.22461V6.26367H18.7895V5.22461H21.77V3.81641H23.0825V5.22461H26.0629ZM22.4262 6.82422C24.1967 6.82422 25.4067 7.68555 25.4067 8.98438C25.4067 10.3105 24.1899 11.1582 22.4262 11.1582C20.6489 11.1582 19.4457 10.3105 19.4457 8.98438C19.4457 7.68555 20.642 6.82422 22.4262 6.82422ZM22.4262 7.79492C21.3871 7.80176 20.683 8.25293 20.6899 8.98438C20.683 9.72949 21.3871 10.1807 22.4262 10.1738C23.4516 10.1807 24.1557 9.72949 24.1625 8.98438C24.1557 8.25293 23.4516 7.80176 22.4262 7.79492ZM41.7654 10.3105V11.3633H36.9118V13.6191H35.613V11.3633H30.5681V10.3105H41.7654ZM40.5212 14.8359V15.9023H31.9489V12.5664H33.2478V14.8359H40.5212ZM33.3298 4.29492V5.77148H38.99V4.29492H40.2888V9.23047H32.0446V4.29492H33.3298ZM33.3298 8.20508H38.99V6.76953H33.3298V8.20508ZM46.708 5.83984C46.7148 7.47363 47.8291 9.01855 49.6611 9.6543L48.9639 10.6797C47.6172 10.1875 46.6123 9.19629 46.0791 7.95898C45.5527 9.32617 44.5137 10.3926 43.0713 10.9258L42.3877 9.88672C44.3018 9.2168 45.4092 7.58301 45.4092 5.77148V4.54102H46.708V5.83984ZM52.6143 11.8008V16.1621H51.2881V12.8535H44.3154V11.8008H52.6143ZM52.6143 3.91211V11.1582H51.2881V7.4668H48.7314V6.40039H51.2881V3.91211H52.6143ZM65.4182 13.6465V14.7129H54.221V13.6465H57.2151V10.9121H55.2054V9.87305H57.0237V6.05859H55.1643V4.99219H64.4065V6.05859H62.5471V9.87305H64.3792V10.9121H62.3421V13.6465H65.4182ZM58.3225 9.87305H61.2483V6.05859H58.3225V9.87305ZM58.5276 13.6465H61.0569V10.9121H58.5276V13.6465ZM76.1988 3.92578V12.8262H74.8863V3.92578H76.1988ZM76.5679 14.8359V15.9023H68.1871V11.9238H69.4859V14.8359H76.5679ZM69.5543 4.74609C71.4 4.75293 72.815 6.01758 72.8082 7.79492C72.815 9.56543 71.4 10.8369 69.5543 10.8438C67.688 10.8369 66.2798 9.56543 66.2867 7.79492C66.2798 6.01758 67.688 4.75293 69.5543 4.74609ZM69.5543 5.88086C68.4195 5.88086 67.5582 6.64648 67.5582 7.79492C67.5582 8.92285 68.4195 9.68164 69.5543 9.68164C70.6822 9.68164 71.5367 8.92285 71.5367 7.79492C71.5367 6.64648 70.6822 5.88086 69.5543 5.88086ZM81.62 9.95508V12.3066C82.4676 12.2725 83.3084 12.1973 84.0536 12.0879L84.1219 13.0586C82.078 13.4482 79.5213 13.4961 77.8739 13.4961L77.7098 12.4023C78.4481 12.4023 79.3914 12.3955 80.3758 12.3613V9.95508H81.62ZM88.3192 3.91211V16.1484H87.075V9.96875H85.7489V15.5332H84.5321V4.1582H85.7489V8.90234H87.075V3.91211H88.3192ZM81.6473 5.92188C81.6473 7.25488 82.5223 8.5332 84.1082 9.10742L83.4383 10.0918C82.2762 9.66113 81.4627 8.84082 81.0321 7.82227C80.5741 8.95703 79.7059 9.88672 78.4344 10.3652L77.7782 9.36719C79.4393 8.76562 80.3553 7.38477 80.3485 5.92188V4.88281H81.6473V5.92188Z" fill="#746757"/>
</svg>
