<svg width="60" height="20" viewBox="0 0 60 20" fill="none" xmlns="http://www.w3.org/2000/svg">
<rect x="0.5" y="0.5" width="59" height="19" rx="3.5" fill="white"/>
<rect x="0.5" y="0.5" width="59" height="19" rx="3.5" stroke="#26AD9F"/>
<path d="M13.0977 5.07422V13.127H7.34188V5.07422H13.0977ZM8.62703 6.12695V12.0879H11.8263V6.12695H8.62703ZM16.8165 3.91211V16.1758H15.504V3.91211H16.8165ZM28.6634 3.91211V16.1758H27.3509V3.91211H28.6634ZM24.9037 5.01953V9.50391H20.5013V12.1699C22.4838 12.1562 24.2406 12.0742 26.2709 11.7461L26.4076 12.7988C24.2406 13.1611 22.4086 13.25 20.2279 13.25H19.1888V8.45117H23.5775V6.08594H19.1615V5.01953H24.9037ZM41.5084 13.5645V14.6445H30.3112V13.5645H35.233V11.0488H31.5827V4.74609H32.8815V6.83789H38.8971V4.74609H40.1959V11.0488H36.5319V13.5645H41.5084ZM32.8815 9.98242H38.8971V7.9043H32.8815V9.98242ZM52.3027 3.91211V16.1484H51.0038V3.91211H52.3027ZM48.6523 5.21094C48.6591 8.80664 47.1415 11.9102 42.9374 13.9336L42.2402 12.8945C45.5077 11.3428 47.08 9.12793 47.3398 6.26367H42.8417V5.21094H48.6523Z" fill="#26AD9F"/>
</svg>
