<svg width="53" height="18" viewBox="0 0 53 18" fill="none" xmlns="http://www.w3.org/2000/svg">
<rect x="0.5" y="0.5" width="52" height="17" rx="3.5" fill="white"/>
<rect x="0.5" y="0.5" width="52" height="17" rx="3.5" stroke="#26AD9F"/>
<path d="M7.39406 7.80387L7.0087 6.92541C8.8982 6.73481 10.3899 5.87707 10.5391 4.86188H7.38163V3.97099H15.2173V4.86188H12.0432C12.18 5.88121 13.6593 6.73481 15.5902 6.92541L15.1883 7.80387C13.3651 7.60083 11.8609 6.83425 11.2849 5.71961C10.7131 6.83011 9.21726 7.60083 7.39406 7.80387ZM16.0791 8.35912V9.26657H11.836V10.2693C13.7628 10.3729 14.9023 11.0235 14.9106 12.1215C14.9023 13.3108 13.5432 13.9779 11.2808 13.9779C9.00179 13.9779 7.63853 13.3108 7.63853 12.1215C7.63853 11.0235 8.78632 10.3729 10.7338 10.2693V9.26657H6.50732V8.35912H16.0791ZM13.8001 12.1215C13.7918 11.4751 12.8678 11.1146 11.2808 11.1064C9.67721 11.1146 8.76146 11.4751 8.76975 12.1215C8.76146 12.7597 9.67721 13.1285 11.2808 13.1202C12.8678 13.1285 13.7918 12.7597 13.8001 12.1215ZM21.9713 7.71685V8.84807H26.2102V9.75552H16.6384V8.84807H20.8649V7.71685H17.8898V3.74309H18.9961V4.87431H23.8608V3.74309H24.9671V7.71685H21.9713ZM23.8608 5.71133H18.9961V6.82182H23.8608V5.71133ZM23.9147 11.5787H17.6992V10.6878H25.0334V13.9945H23.9147V11.5787ZM30.5527 4.39365H33.0223V5.22652H26.9643V4.39365H29.4422V3.4116H30.5527V4.39365ZM35.0278 6.61878H36.5236V7.54282H35.0278V10.5718H33.9173V3.50276H35.0278V6.61878ZM33.3206 9.0884L33.4076 9.87983C31.1535 10.2776 28.6673 10.2942 26.8192 10.2983L26.6949 9.40746C27.5112 9.40746 28.456 9.40331 29.4422 9.37845V8.66575C28.2446 8.53729 27.4822 7.9779 27.4905 7.12845C27.4822 6.16713 28.4808 5.57044 29.985 5.57873C31.4933 5.57044 32.4794 6.16713 32.4877 7.12845C32.4794 7.96961 31.7377 8.53315 30.5527 8.66575V9.33702C31.4933 9.28729 32.438 9.21271 33.3206 9.0884ZM28.5513 7.12845C28.5471 7.6174 29.0941 7.94475 29.985 7.93646C30.8759 7.94475 31.4228 7.6174 31.4228 7.12845C31.4228 6.62293 30.8759 6.33287 29.985 6.34116C29.0941 6.33287 28.5471 6.62293 28.5513 7.12845ZM33.9173 11.9392H28.0043V11.0608H35.0278V13.9945H33.9173V11.9392ZM44.4959 3.50276H45.6105V11.1354H44.4959V3.50276ZM39.9089 9.42403C38.326 9.42818 37.1119 8.35497 37.1119 6.81354C37.1119 5.29282 38.326 4.21547 39.9089 4.21547C41.4918 4.21547 42.6976 5.29282 42.6976 6.81354C42.6976 8.35497 41.4918 9.42818 39.9089 9.42403ZM38.2017 6.81354C38.1934 7.79972 38.931 8.45442 39.9089 8.45442C40.8702 8.45442 41.6078 7.79972 41.6078 6.81354C41.6078 5.84392 40.8702 5.18508 39.9089 5.18508C38.931 5.18508 38.1934 5.84392 38.2017 6.81354ZM39.8592 10.3605V12.8674H45.9172V13.779H38.7404V10.3605H39.8592Z" fill="#26AD9F"/>
</svg>
