<svg width="64" height="20" viewBox="0 0 64 20" fill="none" xmlns="http://www.w3.org/2000/svg">
<rect x="0.5" y="0.5" width="63" height="19" rx="3.5" fill="white"/>
<rect x="0.5" y="0.5" width="63" height="19" rx="3.5" stroke="#26AD9F"/>
<path d="M17.9618 16.1602V3.91022H19.209V16.1602H17.9618ZM13.843 8.47376H15.4818V4.1471H16.7194V15.5559H15.4818V9.54213H13.843V12.9309H9.08611V5.28798H13.843V8.47376ZM10.3092 11.9012H12.6248V6.31768H10.3092V11.9012ZM26.7117 10.7265V13.5594H31.7054V14.6326H20.4948V13.5594H25.4258V10.7265H21.7711V4.89157H30.3615V10.7265H26.7117ZM29.0901 5.94061H23.0425V9.69682H29.0901V5.94061ZM33.4408 10.4461L32.967 9.4116C35.2923 9.11671 37.1632 7.8163 37.2454 6.43854H33.3683V5.39434H37.2502V3.91022H38.5264V5.39434H42.418V6.43854H38.5458C38.6183 7.80663 40.4698 9.11671 42.8048 9.4116L42.331 10.4461C40.3635 10.1754 38.6908 9.25207 37.898 8C37.1003 9.26657 35.4132 10.1706 33.4408 10.4461ZM32.3144 11.2921H43.4815V12.3653H38.5264V16.1796H37.2502V12.3653H32.3144V11.2921ZM53.6768 8.79282H55.5767V9.88052H53.6768V16.1457H52.3764V3.91022H53.6768V8.79282ZM44.7528 5.2058H50.4717C50.4621 8.73964 48.9006 11.9012 44.864 13.8881L44.1389 12.8826C47.2135 11.3501 48.8764 9.13605 49.152 6.27901H44.7528V5.2058Z" fill="#26AD9F"/>
</svg>
