<svg width="60" height="20" viewBox="0 0 60 20" fill="none" xmlns="http://www.w3.org/2000/svg">
<rect width="60" height="20" rx="4" fill="#746757"/>
<path d="M12.9473 4.97852C12.9473 6.5918 14.9366 8.12988 17.3223 8.47852L16.8028 9.53125C14.8136 9.20312 13.0636 8.15723 12.2774 6.71484C11.4776 8.16406 9.72762 9.20312 7.72469 9.53125L7.19148 8.47852C9.60457 8.12988 11.5733 6.62598 11.5802 4.97852V4.32227H12.9473V4.97852ZM17.8419 10.7344V11.8145H12.8653V16.1621H11.5802V11.8145H6.67195V10.7344H17.8419ZM21.8685 4.45898C23.5023 4.45898 24.7533 5.38867 25.0267 6.76953H27.3783V3.91211H28.7045V10.4883H27.3783V7.83594H25.0267C24.7738 9.24414 23.516 10.1807 21.8685 10.1738C20.016 10.1807 18.6625 9.01172 18.6693 7.31641C18.6625 5.6416 20.016 4.45898 21.8685 4.45898ZM21.8685 5.55273C20.7269 5.55273 19.9203 6.26367 19.9134 7.31641C19.9203 8.3623 20.7269 9.08691 21.8685 9.08008C22.9964 9.08691 23.8168 8.3623 23.8099 7.31641C23.8168 6.26367 22.9964 5.55273 21.8685 5.55273ZM22.0189 11.0762V12.498H27.4056V11.0762H28.7045V15.998H20.7064V11.0762H22.0189ZM22.0189 14.9453H27.4056V13.5234H22.0189V14.9453ZM40.4557 3.91211V16.1758H39.1432V3.91211H40.4557ZM33.8932 4.82812C35.7389 4.82812 37.0651 6.50293 37.0651 9.12109C37.0651 11.7461 35.7389 13.4277 33.8932 13.4277C32.0612 13.4277 30.7282 11.7461 30.735 9.12109C30.7282 6.50293 32.0612 4.82812 33.8932 4.82812ZM33.8932 6.00391C32.7653 6.00391 31.986 7.2002 31.9928 9.12109C31.986 11.0625 32.7653 12.2588 33.8932 12.252C35.028 12.2588 35.8073 11.0625 35.8073 9.12109C35.8073 7.2002 35.028 6.00391 33.8932 6.00391ZM53.3007 9.85938V10.9121H42.1308V9.85938H47.0663V8.57422H43.5253V4.45898H51.9335V5.51172H44.8241V7.52148H52.0019V8.57422H48.3652V9.85938H53.3007ZM47.6952 11.7188C50.3407 11.7119 51.9404 12.5186 51.9335 13.9336C51.9404 15.3555 50.3407 16.1553 47.6952 16.1484C45.0497 16.1553 43.4433 15.3555 43.4433 13.9336C43.4433 12.5186 45.0497 11.7119 47.6952 11.7188ZM47.6952 12.7168C45.8359 12.7236 44.7626 13.1543 44.7695 13.9336C44.7626 14.7197 45.8359 15.1436 47.6952 15.1504C49.5546 15.1436 50.621 14.7197 50.621 13.9336C50.621 13.1543 49.5546 12.7236 47.6952 12.7168Z" fill="white"/>
</svg>
