<svg width="63" height="18" viewBox="0 0 63 18" fill="none" xmlns="http://www.w3.org/2000/svg">
<rect x="0.5" y="0.5" width="62" height="17" rx="3.5" fill="white"/>
<rect x="0.5" y="0.5" width="62" height="17" rx="3.5" stroke="#746757"/>
<path d="M14.6918 3.49448V6.13812H16.2125V7.05387H14.6918V9.72652H13.5771V3.49448H14.6918ZM11.8036 4.24448C11.8078 6.95856 9.95972 8.92265 6.88099 9.81354L6.42934 8.91436C8.88652 8.21823 10.399 6.85083 10.602 5.15193H6.89757V4.24448H11.8036ZM11.3354 9.84254C13.4528 9.84254 14.8078 10.634 14.8078 11.9102C14.8078 13.203 13.4528 13.982 11.3354 13.982C9.23044 13.982 7.84646 13.203 7.85475 11.9102C7.84646 10.634 9.23044 9.84254 11.3354 9.84254ZM11.3354 13.0994C12.794 13.1036 13.718 12.6478 13.718 11.9102C13.718 11.1685 12.794 10.721 11.3354 10.7293C9.86856 10.721 8.94867 11.1685 8.95696 11.9102C8.94867 12.6478 9.86856 13.1036 11.3354 13.0994ZM24.1433 3.49448H25.2538V14.0152H24.1433V3.49448ZM19.9914 4.24033C21.653 4.24033 22.8422 5.26796 22.8505 6.74309C22.8422 8.22238 21.653 9.24586 19.9914 9.24586C18.3381 9.24586 17.124 8.22238 17.1323 6.74309C17.124 5.26796 18.3381 4.24033 19.9914 4.24033ZM19.9914 5.2058C18.972 5.2058 18.222 5.81906 18.2303 6.74309C18.222 7.67127 18.972 8.28039 19.9914 8.28039C21.0107 8.28039 21.7607 7.67127 21.7649 6.74309C21.7607 5.81906 21.0107 5.2058 19.9914 5.2058ZM16.7635 11.7569L16.6267 10.8287C18.5411 10.8329 21.1889 10.8122 23.4845 10.4807L23.5715 11.2928C21.193 11.7445 18.6405 11.7569 16.7635 11.7569ZM34.2993 3.49448H35.3973V8.89779H34.2993V3.49448ZM29.9609 6.34945C29.4885 7.50138 28.5562 8.40884 27.3048 8.83564L26.7371 7.95718C28.3738 7.41436 29.3808 6.03867 29.3808 4.58011V3.7721H30.5203V4.58011C30.512 5.98895 31.523 7.27348 33.139 7.77486L32.5879 8.64088C31.3614 8.24309 30.4415 7.41436 29.9609 6.34945ZM29.6211 12.0262V13H35.7578V13.895H28.5396V11.1809H34.3075V10.2776H28.5064V9.39917H35.4139V12.0262H29.6211ZM45.1389 3.49448V6.8384H46.5851V7.77901H45.1389V11.384H44.0077V3.49448H45.1389ZM42.4124 7.9779L41.3102 7.8826C41.5381 6.71409 41.5754 5.86878 41.5837 5.20994H37.382V4.29005H42.6776V4.8826C42.6693 5.58287 42.6693 6.62707 42.4124 7.9779ZM43.3406 8.54558L43.4069 9.35773C41.2149 9.74309 38.708 9.78453 36.8516 9.78867L36.748 8.88536C37.3944 8.88122 38.1279 8.87707 38.8986 8.8605V6.65193H40.0008V8.8232C41.1279 8.77762 42.2839 8.69475 43.3406 8.54558ZM38.3433 10.6713H39.4538V12.8674H45.4746V13.779H38.3433V10.6713ZM54.5739 14.0152V3.49448H55.6761V14.0152H54.5739ZM48.7023 8.28039V10.576C50.4012 10.5677 51.8888 10.489 53.6457 10.1989L53.7493 11.1188C51.8888 11.4254 50.3059 11.4959 48.4579 11.4959H47.5587V7.38536H51.3377V5.35083H47.5463V4.43923H52.4648V8.28039H48.7023Z" fill="#746757"/>
</svg>
