<svg width="75" height="20" viewBox="0 0 75 20" fill="none" xmlns="http://www.w3.org/2000/svg">
<rect width="75" height="20" rx="4" fill="#28251C"/>
<path d="M13.9666 5.12891V6.19531H6.69316V5.12891H9.67363V3.85742H10.9861V5.12891H13.9666ZM10.3299 6.74219C12.0936 6.74219 13.3104 7.63086 13.3104 8.9707C13.3104 10.3105 12.0936 11.1855 10.3299 11.1855C8.55254 11.1855 7.34941 10.3105 7.34941 8.9707C7.34941 7.63086 8.55254 6.74219 10.3299 6.74219ZM10.3299 7.75391C9.29082 7.76074 8.58672 8.21875 8.59356 8.9707C8.58672 9.72266 9.29082 10.1875 10.3299 10.1875C11.3553 10.1875 12.0594 9.72266 12.0662 8.9707C12.0594 8.21875 11.3553 7.76074 10.3299 7.75391ZM16.2771 3.91211V7.2207H18.0545V8.31445H16.2771V11.582H14.9783V3.91211H16.2771ZM16.2771 12.1836V16.1621H14.9783V13.25H8.19707V12.1836H16.2771ZM22.2179 6.23633C22.2179 7.58984 23.086 8.94336 24.6651 9.55859L23.9815 10.5566C22.8536 10.1123 22.0606 9.27832 21.6163 8.27344C21.1583 9.41504 20.3175 10.3994 19.128 10.9121L18.4307 9.90039C20.0782 9.18262 20.9669 7.61719 20.96 6.23633V4.67773H22.2179V6.23633ZM28.9307 3.92578V11.459H27.6866V8.17773H26.2784V11.0625H25.0343V4.14453H26.2784V7.11133H27.6866V3.92578H28.9307ZM24.8292 11.6914C27.379 11.6914 28.9854 12.5186 28.9854 13.9199C28.9854 15.3213 27.3858 16.1416 24.8292 16.1348C22.2589 16.1416 20.6661 15.3213 20.6729 13.9199C20.6661 12.5186 22.2657 11.6914 24.8292 11.6914ZM24.8292 12.7031C23.045 12.6963 21.9581 13.1338 21.9581 13.9199C21.9581 14.6992 23.0382 15.1436 24.8292 15.1504C26.6202 15.1436 27.6866 14.6992 27.6866 13.9199C27.6866 13.1338 26.6065 12.6963 24.8292 12.7031ZM44.695 13.6191V14.6855H33.4977V13.6191H38.4196V11.459H34.8649V7.5625H42.0426V5.83984H34.8375V4.78711H43.3414V8.60156H36.15V10.4062H43.6286V11.459H39.7184V13.6191H44.695ZM55.0243 5.15625V6.45508C55.0175 8.06152 55.0175 9.78418 54.5595 12.3887L53.247 12.2656C53.7323 9.81152 53.7323 8.00684 53.7255 6.45508V6.22266H46.5068V5.15625H55.0243ZM56.4872 13.3457V14.4258H45.3173V13.3457H56.4872ZM67.2951 3.92578V12.8262H65.9826V3.92578H67.2951ZM67.6643 14.8359V15.9023H59.2834V11.9238H60.5822V14.8359H67.6643ZM60.6506 4.74609C62.4963 4.75293 63.9113 6.01758 63.9045 7.79492C63.9113 9.56543 62.4963 10.8369 60.6506 10.8438C58.7844 10.8369 57.3762 9.56543 57.383 7.79492C57.3762 6.01758 58.7844 4.75293 60.6506 4.74609ZM60.6506 5.88086C59.5158 5.88086 58.6545 6.64648 58.6545 7.79492C58.6545 8.92285 59.5158 9.68164 60.6506 9.68164C61.7785 9.68164 62.633 8.92285 62.633 7.79492C62.633 6.64648 61.7785 5.88086 60.6506 5.88086Z" fill="white"/>
</svg>
