<svg width="53" height="18" viewBox="0 0 53 18" fill="none" xmlns="http://www.w3.org/2000/svg">
<rect width="53" height="18" rx="4" fill="#746757"/>
<path d="M14.1026 9.83425V3.49448H15.2173V9.83425H14.1026ZM9.85124 7.12017C9.37886 8.25967 8.44654 9.16713 7.19516 9.60221L6.61919 8.74033C8.25593 8.18094 9.26284 6.80939 9.27113 5.37983V5.08978H6.90925V4.19061H12.7062V5.08978H10.3941V5.37983C10.3941 6.73481 11.3968 8.02348 13.0211 8.53729L12.4534 9.39917C11.2435 9.00138 10.3278 8.17265 9.85124 7.12017ZM14.1026 11.2638H8.09848V10.3605H15.2173V13.9945H14.1026V11.2638ZM24.2793 8.1395H21.9879V8.99724H17.1108V4.28591H21.9879V5.14779H24.2793V3.49448H25.3898V9.69337H24.2793V8.1395ZM18.213 8.09807H20.8981V5.1768H18.213V8.09807ZM24.2793 7.2279V6.04282H21.9879V7.2279H24.2793ZM21.8718 9.98343C24.0721 9.98343 25.4188 10.721 25.4229 11.9931C25.4188 13.261 24.0721 13.9779 21.8718 13.9779C19.6674 13.9779 18.3166 13.261 18.3249 11.9931C18.3166 10.721 19.6674 9.98343 21.8718 9.98343ZM21.8718 13.1119C23.405 13.1119 24.3166 12.6975 24.3207 11.9931C24.3166 11.2555 23.405 10.8536 21.8718 10.8453C20.3345 10.8536 19.4188 11.2555 19.4271 11.9931C19.4188 12.6975 20.3345 13.1119 21.8718 13.1119ZM35.0734 3.49448V6.8384H36.5195V7.77901H35.0734V11.384H33.9422V3.49448H35.0734ZM32.3469 7.9779L31.2446 7.8826C31.4725 6.71409 31.5098 5.86878 31.5181 5.20994H27.3165V4.29005H32.612V4.8826C32.6038 5.58287 32.6038 6.62707 32.3469 7.9779ZM33.275 8.54558L33.3413 9.35773C31.1493 9.74309 28.6424 9.78453 26.7861 9.78867L26.6825 8.88536C27.3289 8.88122 28.0623 8.87707 28.833 8.8605V6.65193H29.9352V8.8232C31.0623 8.77762 32.2184 8.69475 33.275 8.54558ZM28.2778 10.6713H29.3883V12.8674H35.409V13.779H28.2778V10.6713ZM44.5083 14.0152V3.49448H45.6105V14.0152H44.5083ZM38.6368 8.28039V10.576C40.3357 10.5677 41.8233 10.489 43.5802 10.1989L43.6837 11.1188C41.8233 11.4254 40.2404 11.4959 38.3923 11.4959H37.4931V7.38536H41.2721V5.35083H37.4807V4.43923H42.3992V8.28039H38.6368Z" fill="white"/>
</svg>
