<svg width="33" height="18" viewBox="0 0 33 18" fill="none" xmlns="http://www.w3.org/2000/svg">
<rect x="0.5" y="0.5" width="32" height="17" rx="3.5" fill="white"/>
<rect x="0.5" y="0.5" width="32" height="17" rx="3.5" stroke="#26AD9F"/>
<path d="M7.60388 9.09668L7.1978 8.20994C9.1909 7.95718 10.7945 6.84254 10.8649 5.6616H7.54172V4.76657H10.8691V3.49448H11.963V4.76657H15.2986V5.6616H11.9796C12.0417 6.83425 13.6287 7.95718 15.6301 8.20994L15.224 9.09668C13.5376 8.86464 12.1039 8.0732 11.4243 7C10.7406 8.08564 9.29449 8.8605 7.60388 9.09668ZM6.63841 9.82182H16.2102V10.7417H11.963V14.011H10.8691V10.7417H6.63841V9.82182ZM24.9491 7.67956H26.5775V8.61188H24.9491V13.982H23.8344V3.49448H24.9491V7.67956ZM17.2999 4.60497H22.2018C22.1935 7.63398 20.8551 10.3439 17.3952 12.047L16.7736 11.1851C19.409 9.87155 20.8344 7.97376 21.0706 5.52486H17.2999V4.60497Z" fill="#26AD9F"/>
</svg>
