<svg width="139" height="55" viewBox="0 0 139 55" fill="none" xmlns="http://www.w3.org/2000/svg">
<rect width="139" height="55" rx="4" fill="#746757"/>
<path d="M49.7218 21.6188H65.9096V24.4144H46.2742V14.4254H65.7549V17.2431H49.7218V21.6188ZM43.103 29.4641V26.6243H68.882V29.4641H43.103ZM55.9317 31.4199C62.0422 31.4199 65.7107 33.2762 65.7218 36.5691C65.7107 39.884 62.0422 41.7514 55.9317 41.7403C49.7991 41.7514 46.0975 39.884 46.0975 36.5691C46.0975 33.2762 49.7991 31.4199 55.9317 31.4199ZM55.9317 39.0663C59.987 39.0663 62.23 38.2265 62.2521 36.5691C62.23 34.9669 59.987 34.0939 55.9317 34.0829C51.8323 34.0939 49.6113 34.9669 49.6334 36.5691C49.6113 38.2265 51.8323 39.0663 55.9317 39.0663ZM84.7822 32.4586V30.0497H90.3181V13.5635H93.8098V34.9337H90.3181V32.4586H84.7822ZM79.2021 24.547C75.0253 24.547 72.1413 22.6243 72.1413 19.5967C72.1413 16.6133 75.0143 14.5801 79.2021 14.5912C83.3236 14.5801 86.2187 16.6133 86.2408 19.5967C86.2187 22.6243 83.3236 24.547 79.2021 24.547ZM79.2021 17.1547C76.948 17.1436 75.4231 18.0608 75.4452 19.5967C75.4231 21.1326 76.948 22.0166 79.2021 22.0166C81.3678 22.0166 82.9038 21.1326 82.9259 19.5967C82.9038 18.0608 81.3678 17.1436 79.2021 17.1547ZM81.2794 34.1492H77.7877V28.9116C75.1579 29.0221 72.6386 29.0331 70.4176 29.0331L69.9977 26.2597C75.2021 26.2265 82.2076 26.1713 88.1966 25.4088L88.4065 27.9061C86.0861 28.2928 83.6662 28.547 81.2794 28.7238V34.1492ZM77.2242 32.8674V38.4144H94.4618V41.232H73.7435V32.8674H77.2242Z" fill="white"/>
</svg>
