<svg width="67" height="20" viewBox="0 0 67 20" fill="none" xmlns="http://www.w3.org/2000/svg">
<rect x="0.5" y="0.5" width="66" height="19" rx="3.5" fill="white"/>
<rect x="0.5" y="0.5" width="66" height="19" rx="3.5" stroke="#746757"/>
<path d="M7.28008 15V5.10156H10.4109C12.5916 5.10156 14.0545 6.3457 14.0477 8.19141C14.0545 10.0508 12.5916 11.2949 10.4109 11.2949H8.75664V15H7.28008ZM8.75664 9.92773H10.4246C11.7645 9.93457 12.5506 9.27832 12.5574 8.19141C12.5506 7.10449 11.7645 6.46191 10.4246 6.46875H8.75664V9.92773ZM20.1251 15.1914C17.1925 15.1914 14.9708 12.9766 14.9708 10.0508C14.9708 7.125 17.1925 4.91016 20.1251 4.91016C23.0645 4.91016 25.2794 7.125 25.2794 10.0508C25.2794 12.9766 23.0645 15.1914 20.1251 15.1914ZM20.1251 13.7832C22.2716 13.79 23.7823 12.2383 23.7891 10.0508C23.7823 7.86328 22.2716 6.31152 20.1251 6.31836C17.9854 6.31152 16.4747 7.86328 16.4747 10.0508C16.4747 12.2383 17.9854 13.79 20.1251 13.7832ZM29.7162 15.1914C28.267 15.1914 27.1117 14.6104 26.2025 13.4141L27.3099 12.5117C28.0072 13.4072 28.7318 13.79 29.7162 13.7832C30.9535 13.79 31.7123 13.1816 31.7123 12.1973C31.7123 11.3975 31.2132 10.9736 29.7709 10.5703L29.2923 10.4336C27.4261 9.93457 26.558 9.08008 26.558 7.75391C26.558 6.12012 27.9115 4.91016 29.7845 4.91016C31.097 4.91016 32.307 5.5459 33.0931 6.63281L31.972 7.50781C31.391 6.72168 30.639 6.31152 29.7845 6.31836C28.7591 6.31152 28.0619 6.89941 28.0619 7.75391C28.0619 8.41699 28.4789 8.76562 29.6752 9.08008L30.1537 9.2168C32.2796 9.80469 33.2093 10.7002 33.2162 12.1836C33.2093 13.9814 31.8011 15.1914 29.7162 15.1914ZM47.4081 3.91211V10.1191H46.082V8.9707H42.9921V7.95898H46.082V6.63281H43.1562C42.3974 8.52637 40.5448 9.78418 37.8241 10.4199L37.3866 9.35352C40.3329 8.69043 41.912 7.30957 42.1171 5.52539H38.0292V4.47266H43.5527C43.5527 4.86914 43.5185 5.24512 43.457 5.60742H46.082V3.91211H47.4081ZM47.4081 10.666V13.7695H40.7226V15H47.7773V16.0391H39.4237V12.7852H46.0956V11.7051H39.3964V10.666H47.4081ZM59.5285 3.91211V16.1484H58.2707V3.91211H59.5285ZM57.0266 4.17188V15.5469H55.7961V9.32617H53.8957V8.24609H55.7961V4.17188H57.0266ZM52.7062 7.30273C52.7062 9.41504 53.5539 11.5137 55.2766 12.5117L54.4973 13.4688C53.3215 12.7715 52.5217 11.5205 52.091 10.0371C51.6535 11.6436 50.8264 13.0039 49.6301 13.7559L48.8371 12.7988C50.5734 11.7324 51.4484 9.49707 51.4484 7.30273V6.3457H49.2062V5.2793H54.8117V6.3457H52.7062V7.30273Z" fill="#746757"/>
</svg>
