<svg width="64" height="20" viewBox="0 0 64 20" fill="none" xmlns="http://www.w3.org/2000/svg">
<rect x="0.5" y="0.5" width="63" height="19" rx="3.5" fill="white"/>
<rect x="0.5" y="0.5" width="63" height="19" rx="3.5" stroke="#26AD9F"/>
<path d="M12.9874 5.15262H15.9798V6.18715H8.6897V5.15262H11.6966V3.85221H12.9874V5.15262ZM18.3002 7.23619H20.0744V8.30939H18.3002V11.5725H16.9998V3.91022H18.3002V7.23619ZM15.3078 8.97652C15.303 10.3156 14.1041 11.1954 12.3396 11.1954C10.5654 11.1954 9.352 10.3156 9.35683 8.97652C9.352 7.6326 10.5654 6.7576 12.3396 6.74793C14.1041 6.7576 15.303 7.6326 15.3078 8.97652ZM10.6089 8.97652C10.5992 9.73066 11.2954 10.1851 12.3396 10.1851C13.3741 10.1851 14.0702 9.73066 14.0799 8.97652C14.0702 8.21754 13.3741 7.74862 12.3396 7.73895C11.2954 7.74862 10.5992 8.21754 10.6089 8.97652ZM16.9998 13.25H10.2028V12.1961H18.3002V16.1602H16.9998V13.25ZM30.7048 12.9696H29.4092V8.80732H26.0397V7.76796H29.4092V6.48204H26.0397V5.44751H29.4092V3.91989H30.7048V12.9696ZM27.4271 9.71133L27.5625 10.7797C25.6191 11.1423 23.961 11.2148 22.153 11.2196H21.2103V4.76588H22.501V10.1367C24.1253 10.1271 25.6771 10.0304 27.4271 9.71133ZM24.0335 12.1816V14.8453H31.0238V15.9088H22.7234V12.1816H24.0335ZM42.0023 3.91022V7.81146H43.6894V8.90884H42.0023V13.1146H40.6825V3.91022H42.0023ZM38.8213 9.14088L37.5354 9.0297C37.8013 7.66644 37.8448 6.68025 37.8545 5.9116H32.9525V4.8384H39.1307V5.5297C39.1211 6.34668 39.1211 7.56492 38.8213 9.14088ZM39.9042 9.80318L39.9815 10.7507C37.4242 11.2003 34.4995 11.2486 32.3338 11.2535L32.2129 10.1996C32.967 10.1948 33.8227 10.1899 34.7219 10.1706V7.59392H36.0078V10.1271C37.3227 10.0739 38.6715 9.97721 39.9042 9.80318ZM34.0741 12.2831H35.3697V14.8453H42.3938V15.9088H34.0741V12.2831ZM53.0097 16.1844V3.91022H54.2956V16.1844H53.0097ZM46.1596 9.49378V12.172C48.1416 12.1623 49.8771 12.0704 51.9268 11.732L52.0477 12.8052C49.8771 13.163 48.0304 13.2452 45.8744 13.2452H44.8253V8.44959H49.2342V6.07597H44.8108V5.01243H50.5491V9.49378H46.1596Z" fill="#26AD9F"/>
</svg>
