<svg width="74" height="18" viewBox="0 0 74 18" fill="none" xmlns="http://www.w3.org/2000/svg">
<rect x="0.5" y="0.5" width="73" height="17" rx="3.5" fill="white"/>
<rect x="0.5" y="0.5" width="73" height="17" rx="3.5" stroke="#746757"/>
<path d="M11.6704 5.90608C10.9867 7.14917 9.48258 8.03591 7.77539 8.30939L7.32788 7.40193C9.38727 7.12431 11.0862 5.83149 11.0862 4.41851V3.84668H12.2464V4.41851C12.2464 5.81492 13.9494 7.12431 16.0171 7.40193L15.5737 8.30939C13.8583 8.03591 12.3541 7.14088 11.6704 5.90608ZM6.87622 9.34116H16.448V10.261H12.1842V13.9945H11.0903V10.261H6.87622V9.34116ZM24.6482 5.94751V3.49448H25.7587V9.12983H24.6482V6.85497H22.6012C22.3858 8.06077 21.3084 8.87293 19.9079 8.87293C18.3043 8.87293 17.1523 7.86188 17.1606 6.41575C17.1523 4.98204 18.3043 3.96271 19.9079 3.97099C21.2918 3.96271 22.3651 4.76657 22.5971 5.94751H24.6482ZM19.9079 7.93646C20.8816 7.93646 21.5778 7.31077 21.5778 6.41575C21.5778 5.50829 20.8816 4.89917 19.9079 4.90746C18.9175 4.89917 18.2173 5.50829 18.2173 6.41575C18.2173 7.31077 18.9175 7.93646 19.9079 7.93646ZM20.0156 10.8619H24.6482V9.6395H25.7587V13.8619H18.9134V9.6395H20.0156V10.8619ZM20.0156 12.9544H24.6482V11.7362H20.0156V12.9544ZM28.0293 7.78315L27.6315 6.90884C29.5293 6.71409 31.021 5.87707 31.1702 4.86188H28.0127V3.97099H35.8484V4.86188H32.6743C32.8152 5.86878 34.3028 6.71409 36.2171 6.90884L35.8152 7.78315C33.9961 7.57597 32.492 6.82597 31.916 5.71547C31.3442 6.82597 29.8484 7.57597 28.0293 7.78315ZM32.463 7.23204V8.65331H36.7102V9.56077H27.1384V8.65331H31.3691V7.23204H32.463ZM31.9119 10.3273C34.1868 10.3273 35.5334 10.9779 35.5417 12.1547C35.5334 13.3273 34.1868 13.9779 31.9119 13.9779C29.6329 13.9779 28.2696 13.3273 28.2696 12.1547C28.2696 10.9779 29.6329 10.3273 31.9119 10.3273ZM31.9119 13.1243C33.5155 13.1326 34.4229 12.7845 34.4312 12.1547C34.4229 11.529 33.5155 11.1892 31.9119 11.1892C30.2959 11.1892 29.3926 11.529 29.4008 12.1547C29.3926 12.7845 30.2959 13.1326 31.9119 13.1243ZM38.4214 5.84807H44.5872V4.78315H38.3966V3.87155H45.7225V6.68508H39.5444V7.84116H45.9546V8.74862H38.4214V5.84807ZM37.2529 9.72652H46.862V10.6091H44.4463V13.9945H43.3275V10.6091H40.7916V13.9945H39.6811V10.6091H37.2529V9.72652ZM55.7045 3.49448V6.8384H57.1506V7.77901H55.7045V11.384H54.5732V3.49448H55.7045ZM52.9779 7.9779L51.8757 7.8826C52.1036 6.71409 52.1409 5.86878 52.1492 5.20994H47.9476V4.29005H53.2431V4.8826C53.2349 5.58287 53.2349 6.62707 52.9779 7.9779ZM53.9061 8.54558L53.9724 9.35773C51.7804 9.74309 49.2735 9.78453 47.4172 9.78867L47.3136 8.88536C47.96 8.88122 48.6934 8.87707 49.4641 8.8605V6.65193H50.5663V8.8232C51.6934 8.77762 52.8495 8.69475 53.9061 8.54558ZM48.9089 10.6713H50.0194V12.8674H56.0401V13.779H48.9089V10.6713ZM65.1394 14.0152V3.49448H66.2416V14.0152H65.1394ZM59.2679 8.28039V10.576C60.9668 10.5677 62.4543 10.489 64.2113 10.1989L64.3148 11.1188C62.4543 11.4254 60.8715 11.4959 59.0234 11.4959H58.1242V7.38536H61.9032V5.35083H58.1118V4.43923H63.0303V8.28039H59.2679Z" fill="#746757"/>
</svg>
