<svg width="141" height="20" viewBox="0 0 141 20" fill="none" xmlns="http://www.w3.org/2000/svg">
<rect width="141" height="20" rx="4" fill="#746757"/>
<path d="M17.3695 3.91211V11.2266H16.1253V3.91211H17.3695ZM14.9905 4.13086V11.1445H13.7464V8.16406H12.598C12.3724 9.58594 11.2786 10.543 9.82258 10.543C8.20246 10.543 7.01984 9.33984 7.01984 7.61719C7.01984 5.8877 8.20246 4.67773 9.82258 4.67773C11.2855 4.67773 12.3792 5.6416 12.598 7.08398H13.7464V4.13086H14.9905ZM17.3695 11.7871V16.1621H16.0706V12.8398H9.01594V11.7871H17.3695ZM9.82258 5.78516C8.87238 5.78516 8.19563 6.52344 8.19563 7.61719C8.19563 8.7041 8.87238 9.44238 9.82258 9.43555C10.7796 9.44238 11.47 8.7041 11.4632 7.61719C11.47 6.52344 10.7796 5.78516 9.82258 5.78516ZM22.4488 5.55273C22.4488 6.97461 23.2623 8.36914 24.7867 8.99805L24.1168 9.98242C22.9957 9.51758 22.2438 8.65625 21.8336 7.60352C21.3961 8.78613 20.5826 9.79102 19.4137 10.3379L18.6891 9.35352C20.3297 8.61523 21.1979 7.00195 21.191 5.51172V4.41797H22.4488V5.55273ZM29.1891 3.92578V10.3926H27.9449V3.92578H29.1891ZM26.7418 4.13086V10.2969H25.5113V7.15234H23.7477V6.08594H25.5113V4.13086H26.7418ZM29.1891 10.9121V13.9062H22.2848V15H29.6402V16.0391H20.9859V12.9355H27.9039V11.9512H20.9723V10.9121H29.1891ZM36.8524 4.43164C36.8524 7.52832 34.9725 9.6543 31.2196 10.625L30.7138 9.59961C32.5731 9.13477 33.8514 8.39648 34.6102 7.48047L30.8915 7.74023L30.6864 6.70117L35.1981 6.50977C35.328 6.18164 35.4169 5.83301 35.4579 5.4707H31.3153V4.43164H36.8524ZM40.1747 3.91211V6.61914H41.952V7.68555H40.1747V10.2559H38.8759V3.91211H40.1747ZM40.1747 10.8027V13.8379H33.5712V14.9863H40.6122V15.998H32.286V12.8672H38.8759V11.8281H32.245V10.8027H40.1747ZM52.5959 11.7324V15.998H44.4611V11.7324H52.5959ZM45.7326 12.7715V14.959H51.3107V12.7715H45.7326ZM52.5959 3.92578V11.1172H51.2697V7.64453H49.0685V6.5918H51.2697V3.92578H52.5959ZM48.3576 4.52734V8.02734H44.174V9.59961C46.1701 9.58594 47.5988 9.53809 49.342 9.25781L49.4377 10.3242C47.5646 10.6182 45.9513 10.6592 43.8322 10.666H42.8888V7.04297H47.0724V5.58008H42.8615V4.52734H48.3576ZM61.7155 6.14062C61.7224 7.80859 62.823 9.4082 64.655 10.0781L63.9577 11.0762C62.6111 10.5635 61.6198 9.55176 61.1003 8.28711C60.5671 9.69531 59.5144 10.8096 58.0652 11.377L57.3816 10.3379C59.2751 9.6543 60.4167 7.93848 60.4167 6.11328V4.65039H61.7155V6.14062ZM67.6081 3.92578V13.0449H66.282V7.78125H63.7116V6.71484H66.282V3.92578H67.6081ZM67.8816 14.8359V15.9023H59.5964V12.0605H60.8952V14.8359H67.8816ZM74.5059 4.78711V5.83984H70.9648V7.20703H74.3691V8.21875H70.9648V9.69531C72.6328 9.68848 73.6787 9.62012 74.9297 9.39453L75.0527 10.4473C73.6377 10.7139 72.4141 10.7617 70.5137 10.7617H69.707V4.78711H74.5059ZM79.6602 3.92578V11.3496H78.416V8.10938H76.9395V11.2812H75.709V4.14453H76.9395V7.04297H78.416V3.92578H79.6602ZM79.6602 11.9648V16.1621H78.3613V13.0312H71.3066V11.9648H79.6602ZM94.7681 5.2793V6.31836H84.7877V5.2793H89.149V3.87109H90.4478V5.2793H94.7681ZM95.4244 11.8555V12.9082H90.4478V16.1621H89.149V12.9082H84.2271V11.8555H95.4244ZM89.7916 6.94727C92.355 6.94727 93.8795 7.69238 93.8795 9.01172C93.8795 10.3311 92.355 11.0762 89.7916 11.0762C87.2486 11.0762 85.7242 10.3311 85.7173 9.01172C85.7242 7.69238 87.2486 6.94727 89.7916 6.94727ZM89.7916 7.94531C88.0484 7.94531 87.0845 8.32129 87.0845 9.01172C87.0845 9.70898 88.0416 10.0918 89.7916 10.0918C91.5621 10.0918 92.5259 9.70898 92.5259 9.01172C92.5259 8.32129 91.5552 7.94531 89.7916 7.94531ZM109.097 11.3633V12.3066H101.905V13.209H108.837V14.1387H101.905V15.082H109.261V16.0391H100.607V11.3633H104.161V10.2285H99.2257V9.18945H110.396V10.2285H105.46V11.3633H109.097ZM101.987 4.13086V5.21094H107.648V4.13086H108.946V8.27344H100.702V4.13086H101.987ZM101.987 7.26172H107.648V6.19531H101.987V7.26172ZM121.204 3.91211V16.1758H119.891V3.91211H121.204ZM114.641 4.82812C116.487 4.82812 117.813 6.50293 117.813 9.12109C117.813 11.7461 116.487 13.4277 114.641 13.4277C112.809 13.4277 111.476 11.7461 111.483 9.12109C111.476 6.50293 112.809 4.82812 114.641 4.82812ZM114.641 6.00391C113.513 6.00391 112.734 7.2002 112.741 9.12109C112.734 11.0625 113.513 12.2588 114.641 12.252C115.776 12.2588 116.555 11.0625 116.555 9.12109C116.555 7.2002 115.776 6.00391 114.641 6.00391ZM133.05 3.91211V16.1484H131.752V3.91211H133.05ZM129.4 5.21094C129.407 8.80664 127.889 11.9102 123.685 13.9336L122.988 12.8945C126.256 11.3428 127.828 9.12793 128.088 6.26367H123.59V5.21094H129.4Z" fill="white"/>
</svg>
