<svg width="74" height="18" viewBox="0 0 74 18" fill="none" xmlns="http://www.w3.org/2000/svg">
<rect x="0.5" y="0.5" width="73" height="17" rx="3.5" fill="white"/>
<rect x="0.5" y="0.5" width="73" height="17" rx="3.5" stroke="#746757"/>
<path d="M14.2933 5.62431V5.40884H7.85827V4.50552H15.4038V5.62431C15.3956 6.95028 15.3956 8.33011 15.0226 10.3398L13.9287 10.2238C14.2933 8.32182 14.2933 6.91713 14.2933 5.62431ZM12.8514 8.25138V11.6575H16.448V12.5773H6.87622V11.6575H9.13451V8.25138H10.245V11.6575H11.7574V8.25138H12.8514ZM24.586 14.0152V3.49448H25.7048V14.0152H24.586ZM20.8609 4.36878V6.16713C20.8526 8.08564 22.0087 10.0166 23.6372 10.7334L22.9659 11.6202C21.7601 11.0442 20.807 9.86326 20.3139 8.42541C19.8291 9.96271 18.8637 11.2348 17.6081 11.8439L16.9203 10.9157C18.5736 10.1782 19.7338 8.17265 19.7421 6.16713V4.36878H20.8609ZM34.7171 14.0152V3.49448H35.8359V14.0152H34.7171ZM30.992 4.36878V6.16713C30.9837 8.08564 32.1398 10.0166 33.7682 10.7334L33.097 11.6202C31.8912 11.0442 30.9381 9.86326 30.445 8.42541C29.9602 9.96271 28.9948 11.2348 27.7392 11.8439L27.0514 10.9157C28.7047 10.1782 29.8649 8.17265 29.8732 6.16713V4.36878H30.992ZM45.5195 3.49448V6.59807H47.0402V7.53039H45.5195V11.1271H44.3924V3.49448H45.5195ZM42.6687 4.2942C42.6687 7.04972 40.7957 9.04696 37.7294 9.97099L37.2571 9.08425C39.7184 8.34668 41.2433 6.94613 41.4587 5.21823H37.6963V4.2942H42.6687ZM38.8524 10.3439H39.9712V12.8674H45.9546V13.779H38.8524V10.3439ZM56.152 8.89779H55.0415V6.20442H52.8288V5.3011H55.0415V3.49448H56.152V8.89779ZM50.5539 6.50276C50.1023 7.63398 49.1989 8.51243 47.9558 8.93923L47.3633 8.05249C49 7.53039 49.9821 6.22514 49.9862 4.74586V3.83425H51.0967V4.74586C51.0884 6.08425 52.0539 7.33149 53.6368 7.82873L53.0442 8.69475C51.8923 8.29696 51.0221 7.50967 50.5539 6.50276ZM50.4006 12.0014V12.971H56.5125V13.8619H49.3067V11.1644H55.0498V10.2735H49.286V9.39503H56.152V12.0014H50.4006ZM63.2126 7.08702V6.17127H65.1726V3.49448H66.2831V9.74309H65.1726V7.08702H63.2126ZM60.7472 7.10773C60.2872 8.28039 59.3673 9.22099 58.1118 9.68094L57.5358 8.79834C59.1601 8.22652 60.1588 6.80939 60.1588 5.35912V5.12707H57.8798V4.21961H63.5483V5.12707H61.2858V5.35083C61.2858 6.68094 62.2347 7.97376 63.8176 8.50829L63.2499 9.39503C62.069 8.98481 61.203 8.14365 60.7472 7.10773ZM62.7651 10.0373C64.9654 10.0373 66.3121 10.7666 66.3162 12.018C66.3121 13.2652 64.9654 13.9862 62.7651 13.9945C60.5607 13.9862 59.2099 13.2652 59.2182 12.018C59.2099 10.7666 60.5607 10.0373 62.7651 10.0373ZM62.7651 13.1202C64.2983 13.1285 65.2099 12.7224 65.214 12.018C65.2099 11.3052 64.2983 10.8992 62.7651 10.8992C61.2278 10.8992 60.3121 11.3052 60.3204 12.018C60.3121 12.7224 61.2278 13.1285 62.7651 13.1202Z" fill="#746757"/>
</svg>
