<svg width="53" height="18" viewBox="0 0 53 18" fill="none" xmlns="http://www.w3.org/2000/svg">
<rect x="0.5" y="0.5" width="52" height="17" rx="3.5" fill="white"/>
<rect x="0.5" y="0.5" width="52" height="17" rx="3.5" stroke="#746757"/>
<path d="M14.6786 7.82873H16.2905V8.77762H14.6786V13.9945H13.5639V3.49448H14.6786V7.82873ZM12.0515 9.3826L10.9493 9.29558C11.2186 7.6174 11.2394 6.39088 11.2435 5.51657H6.97969V4.6174H12.354V5.26796C12.3457 6.15055 12.3457 7.50552 12.0515 9.3826ZM9.65234 7.62155V10.7666C10.767 10.721 11.9106 10.6464 12.959 10.518L13.0211 11.3508C10.8333 11.703 8.39268 11.7486 6.52803 11.7403L6.40372 10.8287C7.05842 10.8246 7.79185 10.8163 8.55428 10.7997V7.62155H9.65234ZM21.9713 7.53039V8.75276H26.2102V9.65193H16.6384V8.75276H20.8649V7.53039H17.8566V3.92956H24.9879V7.53039H21.9713ZM23.8898 4.80801H18.9464V6.6395H23.8898V4.80801ZM23.9147 11.529H17.6992V10.6464H25.0334V13.9945H23.9147V11.529ZM35.0734 3.49448V6.8384H36.5195V7.77901H35.0734V11.384H33.9422V3.49448H35.0734ZM32.3469 7.9779L31.2446 7.8826C31.4725 6.71409 31.5098 5.86878 31.5181 5.20994H27.3165V4.29005H32.612V4.8826C32.6038 5.58287 32.6038 6.62707 32.3469 7.9779ZM33.275 8.54558L33.3413 9.35773C31.1493 9.74309 28.6424 9.78453 26.7861 9.78867L26.6825 8.88536C27.3289 8.88122 28.0623 8.87707 28.833 8.8605V6.65193H29.9352V8.8232C31.0623 8.77762 32.2184 8.69475 33.275 8.54558ZM28.2778 10.6713H29.3883V12.8674H35.409V13.779H28.2778V10.6713ZM44.5083 14.0152V3.49448H45.6105V14.0152H44.5083ZM38.6368 8.28039V10.576C40.3357 10.5677 41.8233 10.489 43.5802 10.1989L43.6837 11.1188C41.8233 11.4254 40.2404 11.4959 38.3923 11.4959H37.4931V7.38536H41.2721V5.35083H37.4807V4.43923H42.3992V8.28039H38.6368Z" fill="#746757"/>
</svg>
