<svg width="48" height="20" viewBox="0 0 48 20" fill="none" xmlns="http://www.w3.org/2000/svg">
<rect x="0.5" y="0.5" width="47" height="19" rx="3.5" fill="white"/>
<rect x="0.5" y="0.5" width="47" height="19" rx="3.5" stroke="#746757"/>
<path d="M17.1501 3.91211V16.1484H15.906V9.85938H14.4568V15.5605H13.2263V4.14453H14.4568V8.7793H15.906V3.91211H17.1501ZM10.2868 7.13867C10.2937 9.3125 11.114 11.3359 12.8982 12.252L12.1325 13.2637C10.9431 12.6074 10.1364 11.4727 9.69895 10.0645C9.27512 11.6709 8.46848 12.9492 7.22434 13.6875L6.4177 12.6895C8.20871 11.6914 9.03586 9.5791 9.02902 7.13867V6.35938H6.73215V5.29297H12.4333V6.35938H10.2868V7.13867ZM22.0654 7.64453C22.0654 9.56543 22.9609 11.5205 24.6357 12.4297L23.9111 13.4004C22.7354 12.7783 21.915 11.623 21.4639 10.2422C21.0127 11.7598 20.1719 13.0039 19.0166 13.6738L18.251 12.6895C19.9463 11.7051 20.8213 9.61328 20.8213 7.64453V7.20703H18.5928V6.12695H20.8213V4.33594H22.0791V6.12695H24.2939V7.20703H22.0654V7.64453ZM28.9697 3.91211V16.1484H27.7256V9.85938H26.2764V15.5605H25.0459V4.14453H26.2764V8.7793H27.7256V3.91211H28.9697ZM40.4339 3.91211V11.0352H39.1077V7.98633H36.8382V6.90625H39.1077V3.91211H40.4339ZM40.4339 11.623V15.998H32.3538V11.623H40.4339ZM33.6389 12.6484V14.959H39.1487V12.6484H33.6389ZM34.596 5.99023C34.6028 7.52148 35.7102 9.0459 37.5491 9.68164L36.8929 10.7207C35.512 10.2285 34.5003 9.2373 33.9671 8.02734C33.4339 9.38086 32.3538 10.4678 30.8909 10.9805L30.221 9.95508C32.1145 9.28516 33.2903 7.67188 33.2835 5.99023V5.70312H30.6175V4.65039H37.221V5.70312H34.596V5.99023Z" fill="#746757"/>
</svg>
