<svg width="111" height="20" viewBox="0 0 111 20" fill="none" xmlns="http://www.w3.org/2000/svg">
<rect width="111" height="20" rx="4" fill="#40916C"/>
<path d="M18.12 10.1055V11.1582H13.2665V13.5098H11.9677V11.1582H6.92273V10.1055H18.12ZM16.6708 4.47266V8.84766H8.34461V4.47266H16.6708ZM9.62976 5.51172V7.79492H15.3856V5.51172H9.62976ZM16.8759 14.8359V15.9023H8.30359V12.3887H9.61609V14.8359H16.8759ZM28.3673 3.91211V7.23438H30.1447V8.31445H28.3673V11.7598H27.0685V3.91211H28.3673ZM24.4572 11.8691C26.966 11.8691 28.5109 12.6621 28.5041 14.0156C28.5109 15.3486 26.966 16.1416 24.4572 16.1348C21.9552 16.1416 20.3966 15.3486 20.3966 14.0156C20.3966 12.6621 21.9552 11.8691 24.4572 11.8691ZM24.4572 12.8809C22.7209 12.874 21.6955 13.2773 21.6955 14.0156C21.6955 14.7334 22.714 15.1436 24.4572 15.1367C26.2072 15.1436 27.2257 14.7334 27.2189 14.0156C27.2257 13.2773 26.2004 12.874 24.4572 12.8809ZM26.0568 5.22461V6.26367H18.7834V5.22461H21.7638V3.81641H23.0763V5.22461H26.0568ZM22.4201 6.82422C24.1906 6.82422 25.4005 7.68555 25.4005 8.98438C25.4005 10.3105 24.1837 11.1582 22.4201 11.1582C20.6427 11.1582 19.4396 10.3105 19.4396 8.98438C19.4396 7.68555 20.6359 6.82422 22.4201 6.82422ZM22.4201 7.79492C21.381 7.80176 20.6769 8.25293 20.6837 8.98438C20.6769 9.72949 21.381 10.1807 22.4201 10.1738C23.4455 10.1807 24.1496 9.72949 24.1564 8.98438C24.1496 8.25293 23.4455 7.80176 22.4201 7.79492ZM40.7885 3.91211V11.1992H39.4623V8.0957H37.1928V7.01562H39.4623V3.91211H40.7885ZM36.687 11.541C39.2436 11.541 40.8295 12.4023 40.8295 13.8516C40.8295 15.3076 39.2436 16.1553 36.687 16.1484C34.1166 16.1553 32.5307 15.3076 32.5307 13.8516C32.5307 12.4023 34.1166 11.541 36.687 11.541ZM36.687 12.5527C34.8823 12.5527 33.8295 13.0244 33.8295 13.8516C33.8295 14.6719 34.8823 15.1436 36.687 15.1504C38.4848 15.1436 39.5375 14.6719 39.5307 13.8516C39.5375 13.0244 38.478 12.5527 36.687 12.5527ZM34.9506 6.07227C34.9575 7.60352 36.0649 9.12793 37.9037 9.76367L37.2475 10.7891C35.8735 10.3105 34.8618 9.33301 34.3354 8.12305C33.7954 9.49707 32.7153 10.5908 31.2592 11.1172L30.5893 10.0781C32.476 9.41504 33.645 7.77441 33.6381 6.07227V5.82617H30.9721V4.75977H37.5756V5.82617H34.9506V6.07227ZM53.5925 13.5645V14.6445H42.3952V13.5645H47.3171V11.0488H43.6667V4.74609H44.9655V6.83789H50.9812V4.74609H52.28V11.0488H48.6159V13.5645H53.5925ZM44.9655 9.98242H50.9812V7.9043H44.9655V9.98242ZM67.8528 3.92578V11.0762H66.6087V7.97266H65.2005V10.9258H63.9563V4.13086H65.2005V6.91992H66.6087V3.92578H67.8528ZM67.8528 11.6641V15.998H59.6634V11.6641H67.8528ZM60.9485 12.7031V14.959H66.5677V12.7031H60.9485ZM61.1399 6.1543C61.1399 7.53516 62.0354 8.86816 63.5872 9.49023L62.9036 10.4746C61.7757 10.0303 60.9759 9.18945 60.5384 8.17773C60.0735 9.31934 59.2395 10.3037 58.0501 10.8164L57.3528 9.80469C59.0003 9.08008 59.8889 7.52832 59.8821 6.14062V4.60938H61.1399V6.1543ZM79.3443 4.26758V5.2793H77.567V7.37109H79.2896V8.36914H70.2935V7.37109H72.0298V5.2793H70.2388V4.26758H79.3443ZM80.3834 9.28516V10.3242H69.2134V9.28516H80.3834ZM78.9752 11.2676V14.0703H71.8658V15.0547H79.3306V16.0391H70.5806V13.1543H77.69V12.2246H70.5396V11.2676H78.9752ZM73.3287 7.37109H76.2545V5.2793H73.3287V7.37109ZM91.492 3.91211V11.2266H90.2479V3.91211H91.492ZM89.1131 4.13086V11.1445H87.869V8.16406H86.7206C86.495 9.58594 85.4012 10.543 83.9452 10.543C82.325 10.543 81.1424 9.33984 81.1424 7.61719C81.1424 5.8877 82.325 4.67773 83.9452 4.67773C85.4081 4.67773 86.5018 5.6416 86.7206 7.08398H87.869V4.13086H89.1131ZM91.492 11.7871V16.1621H90.1932V12.8398H83.1385V11.7871H91.492ZM83.9452 5.78516C82.995 5.78516 82.3182 6.52344 82.3182 7.61719C82.3182 8.7041 82.995 9.44238 83.9452 9.43555C84.9022 9.44238 85.5926 8.7041 85.5858 7.61719C85.5926 6.52344 84.9022 5.78516 83.9452 5.78516ZM96.5714 5.55273C96.5714 6.97461 97.3849 8.36914 98.9093 8.99805L98.2394 9.98242C97.1183 9.51758 96.3663 8.65625 95.9562 7.60352C95.5187 8.78613 94.7052 9.79102 93.5363 10.3379L92.8116 9.35352C94.4523 8.61523 95.3204 7.00195 95.3136 5.51172V4.41797H96.5714V5.55273ZM103.312 3.92578V10.3926H102.068V3.92578H103.312ZM100.864 4.13086V10.2969H99.6339V7.15234H97.8702V6.08594H99.6339V4.13086H100.864ZM103.312 10.9121V13.9062H96.4073V15H103.763V16.0391H95.1085V12.9355H102.026V11.9512H95.0948V10.9121H103.312Z" fill="white"/>
</svg>
