<svg width="40" height="20" viewBox="0 0 40 20" fill="none" xmlns="http://www.w3.org/2000/svg">
<rect width="40" height="20" rx="4" fill="#40916C"/>
<path d="M17.7041 11.239V3.91022H18.932V11.239H17.7041ZM11.405 10.538C9.76622 10.5477 8.5915 9.34876 8.60116 7.60359C8.5915 5.8826 9.76622 4.6692 11.405 4.6692C12.8601 4.6692 13.9672 5.64572 14.1799 7.09116H15.3353V4.14226H16.5438V11.1471H15.3353V8.1547H14.1751C13.9527 9.5953 12.8456 10.5477 11.405 10.538ZM9.76622 7.60359C9.75655 8.71547 10.4527 9.45994 11.405 9.45028C12.3429 9.45994 13.0438 8.71547 13.0535 7.60359C13.0438 6.52555 12.3429 5.78591 11.405 5.78591C10.4527 5.78591 9.75655 6.52555 9.76622 7.60359ZM17.6509 12.8198H10.6074V11.7852H18.932V16.1796H17.6509V12.8198ZM29.5237 3.91989H30.7516V10.4075H29.5237V3.91989ZM28.3199 10.3301H27.0824V7.15401H25.3275V6.10014H27.0824V4.13743H28.3199V10.3301ZM26.3766 9.00552L25.6901 9.98204C24.5637 9.51796 23.8144 8.65746 23.4083 7.61809C22.9684 8.78798 22.1514 9.80318 20.9912 10.3494L20.2612 9.36326C21.9001 8.62362 22.7606 7.01865 22.7654 5.5442V4.40815H24.0175V5.58771C24.0175 6.98481 24.8296 8.38674 26.3766 9.00552ZM23.8483 13.9026V15H31.2205V16.0442H22.5623V12.9261H29.4802V11.9399H22.5382V10.9151H30.7516V13.9026H23.8483Z" fill="white"/>
</svg>
