<svg width="89" height="18" viewBox="0 0 89 18" fill="none" xmlns="http://www.w3.org/2000/svg">
<rect x="0.5" y="0.5" width="88" height="17" rx="3.5" fill="white"/>
<rect x="0.5" y="0.5" width="88" height="17" rx="3.5" stroke="#26AD9F"/>
<path d="M14.0381 5.62431V5.40884H7.60303V4.50552H15.1486V5.62431C15.1403 6.95028 15.1403 8.33011 14.7674 10.3398L13.6735 10.2238C14.0381 8.32182 14.0381 6.91713 14.0381 5.62431ZM12.5961 8.25138V11.6575H16.1928V12.5773H6.62099V11.6575H8.87927V8.25138H9.98977V11.6575H11.5022V8.25138H12.5961ZM24.9316 7.6837H26.614V8.6326H24.9316V13.9945H23.817V3.49448H24.9316V7.6837ZM20.3902 4.36878V6.16713C20.3819 8.02348 21.4676 9.92541 23.0256 10.6878L22.3419 11.5787C21.1941 10.9862 20.3073 9.80939 19.8474 8.40884C19.3792 9.90055 18.4593 11.1561 17.2659 11.7776L16.5739 10.8826C18.1858 10.1036 19.2756 8.09392 19.2838 6.16713V4.36878H20.3902ZM37.5328 13.9945V3.49448H38.6019V13.9945H37.5328ZM34.0024 7.40608H35.4071V3.69751H36.4679V13.4765H35.4071V8.32182H34.0024V11.2265H29.9251V4.67541H34.0024V7.40608ZM30.9734 10.3439H32.9582V5.55801H30.9734V10.3439ZM42.0203 6.96271H48.1694V7.87017H40.9015V4.00829H42.0203V6.96271ZM39.704 9.28315H49.2758V10.1865H46.8808V13.9945H45.762V10.1865H43.2178V13.9945H42.1031V10.1865H39.704V9.28315ZM58.085 3.49033V6.63122H59.6058V7.55939H58.085V11.1768H56.9704V3.49033H58.085ZM50.237 4.41851H55.1555V9.32459H50.237V4.41851ZM51.3268 8.43784H54.0657V5.31768H51.3268V8.43784ZM51.4304 10.4392H52.5367V12.8674H58.5326V13.779H51.4304V10.4392ZM71.4072 11.3343H70.2967V6.81354H68.084V5.89365H70.2967V3.50276H71.4072V11.3343ZM65.8257 7.24862C65.3741 8.45856 64.4707 9.4116 63.2359 9.88812L62.6434 8.99724C64.276 8.42127 65.2498 6.96271 65.2539 5.38812V4.13674H66.3602V5.41298C66.3602 6.84254 67.3091 8.21409 68.892 8.76934L68.2788 9.6395C67.1351 9.19613 66.2774 8.33425 65.8257 7.24862ZM65.6724 10.4641V12.8674H71.6434V13.779H64.5495V10.4641H65.6724ZM80.6806 6.1837V3.50276H81.7331V9.87983H80.6806V7.08702H79.396V9.80525H78.356V3.69751H79.396V6.1837H80.6806ZM77.6889 8.18508L77.8049 9.09254C76.5701 9.32873 75.5673 9.37431 73.8974 9.37431H73.2179V4.24033H77.3201V5.14779H74.2869V6.3163H77.2082V7.17818H74.2869V8.45442C75.6875 8.44199 76.6115 8.39226 77.6889 8.18508ZM80.635 11.2887H74.5977V10.3895H81.7331V13.9945H80.635V11.2887Z" fill="#26AD9F"/>
</svg>
