<svg width="63" height="20" viewBox="0 0 63 20" fill="none" xmlns="http://www.w3.org/2000/svg">
<rect x="0.5" y="0.5" width="62" height="19" rx="3.5" fill="#EFEFEF"/>
<rect x="0.5" y="0.5" width="62" height="19" rx="3.5" stroke="#585757"/>
<path d="M13.603 5.16992V6.23633H12.3315V11.9375C12.933 11.8965 13.5278 11.8418 14.0952 11.7734L14.1772 12.7305C11.6205 13.1611 8.68109 13.1953 6.56195 13.1953L6.41156 12.1152L7.98383 12.1016V6.23633H6.72602V5.16992H13.603ZM16.1186 3.91211V8.72461H18.0737V9.81836H16.1186V16.1621H14.8061V3.91211H16.1186ZM9.25531 12.0742C9.8432 12.0674 10.4516 12.0469 11.06 12.0195V6.23633H9.25531V12.0742ZM21.8679 4.33594C23.7204 4.33594 25.0808 5.46387 25.0808 7.08398C25.0808 8.67676 23.7204 9.80469 21.8679 9.80469C20.0085 9.80469 18.6345 8.67676 18.6413 7.08398C18.6345 5.46387 20.0085 4.33594 21.8679 4.33594ZM21.8679 5.40234C20.7468 5.40234 19.9128 6.07227 19.9128 7.08398C19.9128 8.08203 20.7536 8.73828 21.8679 8.73828C22.9753 8.73828 23.8161 8.08203 23.823 7.08398C23.8161 6.07227 22.9821 5.40234 21.8679 5.40234ZM28.5534 3.91211V10.1328H27.2409V3.91211H28.5534ZM28.5534 10.707V13.7969H21.7995V14.959H28.9499V15.998H20.528V12.8262H27.2683V11.7461H20.5007V10.707H28.5534ZM37.7278 6.14062C37.7346 7.80859 38.8352 9.4082 40.6673 10.0781L39.97 11.0762C38.6233 10.5635 37.6321 9.55176 37.1126 8.28711C36.5794 9.69531 35.5266 10.8096 34.0774 11.377L33.3938 10.3379C35.2874 9.6543 36.429 7.93848 36.429 6.11328V4.65039H37.7278V6.14062ZM43.6204 3.92578V13.0449H42.2942V7.78125H39.7239V6.71484H42.2942V3.92578H43.6204ZM43.8938 14.8359V15.9023H35.6087V12.0605H36.9075V14.8359H43.8938ZM50.5181 4.78711V5.83984H46.9771V7.20703H50.3814V8.21875H46.9771V9.69531C48.6451 9.68848 49.691 9.62012 50.942 9.39453L51.065 10.4473C49.65 10.7139 48.4263 10.7617 46.5259 10.7617H45.7193V4.78711H50.5181ZM55.6724 3.92578V11.3496H54.4283V8.10938H52.9517V11.2812H51.7213V4.14453H52.9517V7.04297H54.4283V3.92578H55.6724ZM55.6724 11.9648V16.1621H54.3736V13.0312H47.3189V11.9648H55.6724Z" fill="#585757"/>
</svg>
