<svg width="66" height="18" viewBox="0 0 66 18" fill="none" xmlns="http://www.w3.org/2000/svg">
<rect x="0.5" y="0.5" width="65" height="17" rx="3.5" fill="white"/>
<rect x="0.5" y="0.5" width="65" height="17" rx="3.5" stroke="#26AD9F"/>
<path d="M14.7765 7.60912H16.4588V8.54972H14.7765V13.9945H13.6618V3.49448H14.7765V7.60912ZM9.40632 4.28177C10.9768 4.28591 12.0955 5.71547 12.1038 7.96547C12.0955 10.2279 10.9768 11.6575 9.40632 11.6575C7.83588 11.6575 6.71709 10.2279 6.72538 7.96547C6.71709 5.71547 7.83588 4.28591 9.40632 4.28177ZM9.40632 10.6588C10.3842 10.6588 11.0306 9.63122 11.0348 7.96547C11.0306 6.31215 10.3842 5.28453 9.40632 5.27624C8.44914 5.28453 7.78615 6.31215 7.78615 7.96547C7.78615 9.63122 8.44914 10.6588 9.40632 10.6588ZM24.3067 3.49448H25.4255V14.0152H24.3067V3.49448ZM19.8026 4.28177C21.3689 4.28591 22.5125 5.71547 22.5125 7.96547C22.5125 10.2279 21.3689 11.6575 19.8026 11.6575C18.2197 11.6575 17.0885 10.2279 17.0885 7.96547C17.0885 5.71547 18.2197 4.28591 19.8026 4.28177ZM19.8026 5.27624C18.833 5.28453 18.1617 6.31215 18.1617 7.96547C18.1617 9.63122 18.833 10.6588 19.8026 10.6588C20.7722 10.6588 21.4352 9.63122 21.4352 7.96547C21.4352 6.31215 20.7722 5.28453 19.8026 5.27624ZM34.4378 14.0152V3.49448H35.5566V14.0152H34.4378ZM28.645 5.39226V10.4931C30.634 10.489 31.9144 10.4309 33.3936 10.1616L33.5055 11.0898C31.9392 11.3757 30.5677 11.4378 28.3964 11.442H27.5262V4.47238H32.5566V5.39226H28.645ZM45.0128 7.48895V8.60359H49.2641V9.49448H39.6799V8.60359H43.9271V7.48895H40.8733V3.97928H48.0832V4.85773H41.9755V6.59807H48.1454V7.48895H45.0128ZM44.4534 10.1823C46.7158 10.1823 48.0749 10.8702 48.0832 12.0884C48.0749 13.3025 46.7158 13.9862 44.4534 13.9945C42.1785 13.9862 40.8111 13.3025 40.8111 12.0884C40.8111 10.8702 42.1785 10.1823 44.4534 10.1823ZM44.4534 13.1202C46.0404 13.1285 46.9644 12.7597 46.9727 12.0884C46.9644 11.4213 46.0404 11.0401 44.4534 11.0401C42.8498 11.0401 41.934 11.4213 41.9423 12.0884C41.934 12.7597 42.8498 13.1285 44.4534 13.1202ZM57.4063 3.49448H58.5209V8.83978H57.4063V3.49448ZM55.5375 6.20856C55.5292 7.58425 54.3649 8.54558 52.7861 8.54558C51.1867 8.54558 50.0223 7.58425 50.0223 6.20856C50.0223 4.82873 51.1867 3.85912 52.7861 3.85497C54.3649 3.85912 55.5292 4.82873 55.5375 6.20856ZM51.108 6.20856C51.0997 7.07044 51.8165 7.64226 52.7861 7.64226C53.7475 7.64226 54.4602 7.07044 54.4602 6.20856C54.4602 5.35083 53.7475 4.77486 52.7861 4.77901C51.8165 4.77486 51.0997 5.35083 51.108 6.20856ZM52.7281 11.9641V12.971H58.8649V13.8619H51.6466V11.1354H57.4146V10.2072H51.6135V9.32459H58.5209V11.9641H52.7281Z" fill="#26AD9F"/>
</svg>
