<svg width="72" height="20" viewBox="0 0 72 20" fill="none" xmlns="http://www.w3.org/2000/svg">
<rect x="0.5" y="0.5" width="71" height="19" rx="3.5" fill="white"/>
<rect x="0.5" y="0.5" width="71" height="19" rx="3.5" stroke="#746757"/>
<path d="M16.4965 4.41797V8.62891H12.9829V10.0508H17.9184V11.1035H6.74848V10.0508H11.684V8.62891H8.17035V4.41797H16.4965ZM9.45551 5.45703V7.57617H15.2114V5.45703H9.45551ZM16.5512 12.252V16.1621H15.2387V13.291H7.99262V12.252H16.5512ZM29.7654 10.5977V11.6641H18.5681V10.5977H23.5173V9.42188H20.0036V6.33203H27.0583V5.21094H19.9763V4.19922H28.3435V7.27539H21.2888V8.41016H28.6032V9.42188H24.8161V10.5977H29.7654ZM28.4255 12.5117V16.0664H27.113V13.5781H19.8122V12.5117H28.4255ZM40.5459 3.91211V16.1758H39.2334V3.91211H40.5459ZM32.3701 4.92383V8.08203H35.665V4.92383H36.9639V13.25H31.0713V4.92383H32.3701ZM32.3701 12.1836H35.665V9.10742H32.3701V12.1836ZM53.4046 10.8711V11.9512H48.4143V16.1621H47.1292V11.9512H42.2073V10.8711H53.4046ZM47.7854 4.37695C50.3763 4.37695 52.1468 5.43652 52.1468 7.08398C52.1468 8.73828 50.3694 9.78418 47.7854 9.79102C45.1946 9.78418 43.4241 8.73828 43.4241 7.08398C43.4241 5.43652 45.1946 4.37695 47.7854 4.37695ZM47.7854 5.42969C45.9671 5.42285 44.7639 6.05859 44.7639 7.08398C44.7639 8.11621 45.9739 8.73828 47.7854 8.73828C49.5901 8.73828 50.8069 8.11621 50.8069 7.08398C50.8069 6.05859 49.597 5.42285 47.7854 5.42969ZM64.2125 3.91211V16.1484H62.9136V3.91211H64.2125ZM60.5621 5.21094C60.5689 8.80664 59.0513 11.9102 54.8472 13.9336L54.15 12.8945C57.4175 11.3428 58.9898 9.12793 59.2496 6.26367H54.7515V5.21094H60.5621Z" fill="#746757"/>
</svg>
