<svg width="60" height="20" viewBox="0 0 60 20" fill="none" xmlns="http://www.w3.org/2000/svg">
<rect x="0.5" y="0.5" width="59" height="19" rx="3.5" fill="white"/>
<rect x="0.5" y="0.5" width="59" height="19" rx="3.5" stroke="#746757"/>
<path d="M10.9923 6.14062C10.9991 7.80859 12.0997 9.4082 13.9317 10.0781L13.2345 11.0762C11.8878 10.5635 10.8966 9.55176 10.377 8.28711C9.84383 9.69531 8.79109 10.8096 7.34188 11.377L6.65828 10.3379C8.55184 9.6543 9.69344 7.93848 9.69344 6.11328V4.65039H10.9923V6.14062ZM16.8848 3.92578V13.0449H15.5587V7.78125H12.9884V6.71484H15.5587V3.92578H16.8848ZM17.1583 14.8359V15.9023H8.87313V12.0605H10.172V14.8359H17.1583ZM23.7826 4.78711V5.83984H20.2416V7.20703H23.6459V8.21875H20.2416V9.69531C21.9095 9.68848 22.9554 9.62012 24.2064 9.39453L24.3295 10.4473C22.9144 10.7139 21.6908 10.7617 19.7904 10.7617H18.9838V4.78711H23.7826ZM28.9369 3.92578V11.3496H27.6927V8.10938H26.2162V11.2812H24.9857V4.14453H26.2162V7.04297H27.6927V3.92578H28.9369ZM28.9369 11.9648V16.1621H27.638V13.0312H20.5834V11.9648H28.9369ZM34.5768 5.86719C34.5768 7.45996 35.6911 8.9502 37.5163 9.57227L36.8737 10.5977C35.4928 10.1191 34.4743 9.1416 33.9479 7.91797C33.4079 9.25098 32.362 10.2969 30.9127 10.8164L30.2428 9.76367C32.1637 9.11426 33.2711 7.51465 33.278 5.75781V4.54102H34.5768V5.86719ZM39.9225 3.91211V7.07031H41.6998V8.16406H39.9225V11.3223H38.6237V3.91211H39.9225ZM39.9225 11.9102V16.1621H38.6237V12.9629H31.8424V11.9102H39.9225ZM52.6445 3.91211V16.1484H51.3866V3.91211H52.6445ZM50.1425 4.17188V15.5469H48.912V9.32617H47.0116V8.24609H48.912V4.17188H50.1425ZM45.8222 7.30273C45.8222 9.41504 46.6698 11.5137 48.3925 12.5117L47.6132 13.4688C46.4374 12.7715 45.6376 11.5205 45.207 10.0371C44.7695 11.6436 43.9423 13.0039 42.746 13.7559L41.953 12.7988C43.6894 11.7324 44.5644 9.49707 44.5644 7.30273V6.3457H42.3222V5.2793H47.9277V6.3457H45.8222V7.30273Z" fill="#746757"/>
</svg>
