<svg width="106" height="37" viewBox="0 0 106 37" fill="none" xmlns="http://www.w3.org/2000/svg">
<rect x="0.5" y="0.5" width="105" height="36" rx="5.5" fill="white"/>
<rect x="0.5" y="0.5" width="105" height="36" rx="5.5" stroke="#746757"/>
<path d="M28.8019 15.3066H26.3489V20.2624H24.2771V8.39503H26.3489V13.4751H28.8019V8.00552H30.9069V20.9337H28.8019V15.3066ZM23.6307 17.6602L22.4456 19.3757C20.4981 18.6298 19.1307 17.1961 18.3765 15.4724C17.6058 17.4199 16.1721 19.1188 14.1334 19.989L12.9235 18.2652C15.7577 17.0221 17.2743 14.3619 17.2743 12.0249V9.29834H19.429V12.0249C19.429 14.3204 20.8958 16.6409 23.6307 17.6602ZM23.8958 21.3398C28.2633 21.3398 31.0229 22.7486 31.0229 25.1519C31.0229 27.5387 28.2633 28.9558 23.8958 28.9558C19.4953 28.9558 16.7522 27.5387 16.7688 25.1519C16.7522 22.7486 19.4953 21.3398 23.8958 21.3398ZM23.8958 27.2403C26.929 27.2569 28.7936 26.4862 28.8019 25.1519C28.7936 23.8094 26.929 23.0304 23.8958 23.0304C20.8295 23.0304 18.9649 23.8094 18.9815 25.1519C18.9649 26.4862 20.8295 27.2569 23.8958 27.2403ZM50.7796 20.3867H48.5586V14.0967H44.1332V12.2652H48.5586V7.98895H50.7796V20.3867ZM39.6746 14.9171C38.763 17.3204 36.9315 19.1934 34.3873 20.1133L33.1939 18.3232C36.5503 17.1796 38.4978 14.3867 38.5144 11.2376V9.15746H40.7354V11.1464C40.7188 14.0718 42.6249 16.6989 45.8072 17.7348L44.5973 19.4751C42.2851 18.6381 40.5862 17.0221 39.6746 14.9171ZM43.7437 20.9669C48.1442 20.9669 50.8376 22.442 50.8459 24.9862C50.8376 27.5221 48.1442 28.9558 43.7437 28.9558C39.3348 28.9558 36.6332 27.5221 36.6497 24.9862C36.6332 22.442 39.3348 20.9669 43.7437 20.9669ZM43.7437 27.1989C46.81 27.1989 48.6332 26.3867 48.6415 24.9862C48.6332 23.5359 46.81 22.7155 43.7437 22.7155C40.6691 22.7155 38.8376 23.5359 38.8542 24.9862C38.8376 26.3867 40.6691 27.1989 43.7437 27.1989ZM69.8981 16.5H73.2628V18.3481H69.8981V28.989H67.6937V7.98895H69.8981V16.5ZM58.6025 8.26243H60.8235V11.279H65.8622V13.0939H53.423V11.279H58.6025V8.26243ZM59.7296 14.6436C62.7296 14.6436 64.934 16.6657 64.9423 19.5331C64.934 22.4088 62.7296 24.4061 59.7296 24.4144C56.6965 24.4061 54.492 22.4088 54.5003 19.5331C54.492 16.6657 56.6965 14.6436 59.7296 14.6436ZM59.7296 22.558C61.5031 22.5663 62.8042 21.3481 62.8208 19.5331C62.8042 17.7265 61.5031 16.4834 59.7296 16.4834C57.9313 16.4834 56.6136 17.7265 56.6302 19.5331C56.6136 21.3481 57.9313 22.5663 59.7296 22.558ZM89.0167 28.989V7.98895H91.2542V28.989H89.0167ZM75.0194 10.2514H85.0139C84.9973 16.3923 82.3868 21.721 75.1769 25.1602L74.0001 23.3619C79.5857 20.7099 82.304 16.9227 82.7432 12.0249H75.0194V10.2514Z" fill="#746757"/>
</svg>
