<svg width="84" height="20" viewBox="0 0 84 20" fill="none" xmlns="http://www.w3.org/2000/svg">
<rect x="0.5" y="0.5" width="83" height="19" rx="3.5" fill="white"/>
<rect x="0.5" y="0.5" width="83" height="19" rx="3.5" stroke="#746757"/>
<path d="M11.1727 6.14062C11.1795 7.80859 12.2801 9.4082 14.1121 10.0781L13.4148 11.0762C12.0682 10.5635 11.077 9.55176 10.5574 8.28711C10.0242 9.69531 8.97149 10.8096 7.52227 11.377L6.83867 10.3379C8.73223 9.6543 9.87383 7.93848 9.87383 6.11328V4.65039H11.1727V6.14062ZM17.0652 3.92578V13.0449H15.7391V7.78125H13.1688V6.71484H15.7391V3.92578H17.0652ZM17.3387 14.8359V15.9023H9.05352V12.0605H10.3523V14.8359H17.3387ZM23.963 4.78711V5.83984H20.422V7.20703H23.8263V8.21875H20.422V9.69531C22.0899 9.68848 23.1358 9.62012 24.3868 9.39453L24.5098 10.4473C23.0948 10.7139 21.8712 10.7617 19.9708 10.7617H19.1641V4.78711H23.963ZM29.1173 3.92578V11.3496H27.8731V8.10938H26.3966V11.2812H25.1661V4.14453H26.3966V7.04297H27.8731V3.92578H29.1173ZM29.1173 11.9648V16.1621H27.8184V13.0312H20.7638V11.9648H29.1173ZM33.9642 4.33594C35.8168 4.33594 37.1771 5.46387 37.1771 7.08398C37.1771 8.67676 35.8168 9.80469 33.9642 9.80469C32.1048 9.80469 30.7308 8.67676 30.7377 7.08398C30.7308 5.46387 32.1048 4.33594 33.9642 4.33594ZM33.9642 5.40234C32.8431 5.40234 32.0091 6.07227 32.0091 7.08398C32.0091 8.08203 32.85 8.73828 33.9642 8.73828C35.0716 8.73828 35.9125 8.08203 35.9193 7.08398C35.9125 6.07227 35.0785 5.40234 33.9642 5.40234ZM40.6498 3.91211V10.1328H39.3373V3.91211H40.6498ZM40.6498 10.707V13.7969H33.8959V14.959H41.0463V15.998H32.6244V12.8262H39.3646V11.7461H32.597V10.707H40.6498ZM49.1198 4.52734V5.16992C49.1198 5.86719 49.1198 6.92676 48.819 8.27344L47.5475 8.13672C47.7799 7.0498 47.8278 6.22266 47.8346 5.58008H42.9401V4.52734H49.1198ZM45.9889 7.00195V9.09375C47.3082 9.05273 48.6618 8.9707 49.8991 8.82031L49.9811 9.72266C47.4245 10.1533 44.5602 10.2012 42.3248 10.2012L42.2018 9.14844C42.9674 9.14844 43.8219 9.14844 44.7038 9.12109V7.00195H45.9889ZM51.9772 3.91211V6.72852H53.6725V7.79492H51.9772V10.4746H50.6784V3.91211H51.9772ZM51.9772 10.9941V13.9199H45.1139V15.041H52.4284V16.0391H43.8288V12.9766H50.6784V11.9648H43.8014V10.9941H51.9772ZM64.3437 3.91211V16.1758H63.0585V9.38086H60.5155V8.31445H63.0585V3.91211H64.3437ZM58.4921 7.33008C58.4921 9.40137 59.8114 11.6504 61.6777 12.5117L60.912 13.5371C59.5107 12.8535 58.4169 11.4316 57.8632 9.75C57.3163 11.541 56.1952 13.0654 54.7734 13.7969L53.9941 12.7578C55.8603 11.8623 57.1796 9.53125 57.1796 7.33008V6.20898H54.4726V5.14258H61.2265V6.20898H58.4921V7.33008ZM70.2297 6.1543C70.2229 7.70605 71.3098 9.12793 73.1691 9.72266L72.5402 10.748C71.1457 10.2969 70.134 9.3877 69.6008 8.21875C69.0607 9.56543 67.9875 10.625 66.5109 11.1309L65.8547 10.1055C67.7687 9.44922 68.9104 7.86328 68.9172 6.16797V5.85352H66.2375V4.78711H72.8684V5.85352H70.2297V6.1543ZM75.5617 3.91211V6.93359H77.3391V8.01367H75.5617V11.2676H74.2629V3.91211H75.5617ZM71.6105 11.5547C74.133 11.5547 75.6916 12.3955 75.6984 13.8379C75.6916 15.2871 74.1398 16.1416 71.6105 16.1348C69.0744 16.1416 67.509 15.2871 67.509 13.8379C67.509 12.3955 69.0812 11.5547 71.6105 11.5547ZM71.6105 12.5938C69.8469 12.5938 68.801 13.0312 68.7941 13.8379C68.801 14.6582 69.84 15.1162 71.6105 15.1094C73.3742 15.1162 74.4133 14.6582 74.4133 13.8379C74.4133 13.0312 73.3674 12.5938 71.6105 12.5938Z" fill="#746757"/>
</svg>
