<svg width="111" height="20" viewBox="0 0 111 20" fill="none" xmlns="http://www.w3.org/2000/svg">
<rect x="0.5" y="0.5" width="110" height="19" rx="3.5" fill="white"/>
<rect x="0.5" y="0.5" width="110" height="19" rx="3.5" stroke="#26AD9F"/>
<path d="M14.2372 5.12891V6.19531H6.96375V5.12891H9.94422V3.85742H11.2567V5.12891H14.2372ZM10.6005 6.74219C12.3641 6.74219 13.5809 7.63086 13.5809 8.9707C13.5809 10.3105 12.3641 11.1855 10.6005 11.1855C8.82312 11.1855 7.62 10.3105 7.62 8.9707C7.62 7.63086 8.82312 6.74219 10.6005 6.74219ZM10.6005 7.75391C9.56141 7.76074 8.8573 8.21875 8.86414 8.9707C8.8573 9.72266 9.56141 10.1875 10.6005 10.1875C11.6259 10.1875 12.33 9.72266 12.3368 8.9707C12.33 8.21875 11.6259 7.76074 10.6005 7.75391ZM16.5477 3.91211V7.2207H18.3251V8.31445H16.5477V11.582H15.2489V3.91211H16.5477ZM16.5477 12.1836V16.1621H15.2489V13.25H8.46766V12.1836H16.5477ZM21.463 10.9121V12.416H27.2326V10.9121H28.5177V15.998H20.1642V10.9121H21.463ZM21.463 14.9453H27.2326V13.4414H21.463V14.9453ZM28.5314 4.44531V5.36133C28.5382 6.31152 28.5382 7.37109 28.2306 8.83398H29.9533V9.91406H18.756V8.83398H26.9455C27.2394 7.45312 27.2531 6.42773 27.2599 5.51172H20.1642V4.44531H28.5314ZM40.187 3.91211V7.23438H41.9643V8.31445H40.187V11.7598H38.8881V3.91211H40.187ZM36.2768 11.8691C38.7856 11.8691 40.3305 12.6621 40.3237 14.0156C40.3305 15.3486 38.7856 16.1416 36.2768 16.1348C33.7748 16.1416 32.2162 15.3486 32.2162 14.0156C32.2162 12.6621 33.7748 11.8691 36.2768 11.8691ZM36.2768 12.8809C34.5405 12.874 33.5151 13.2773 33.5151 14.0156C33.5151 14.7334 34.5336 15.1436 36.2768 15.1367C38.0268 15.1436 39.0454 14.7334 39.0385 14.0156C39.0454 13.2773 38.02 12.874 36.2768 12.8809ZM37.8764 5.22461V6.26367H30.603V5.22461H33.5834V3.81641H34.8959V5.22461H37.8764ZM34.2397 6.82422C36.0102 6.82422 37.2202 7.68555 37.2202 8.98438C37.2202 10.3105 36.0034 11.1582 34.2397 11.1582C32.4623 11.1582 31.2592 10.3105 31.2592 8.98438C31.2592 7.68555 32.4555 6.82422 34.2397 6.82422ZM34.2397 7.79492C33.2006 7.80176 32.4965 8.25293 32.5034 8.98438C32.4965 9.72949 33.2006 10.1807 34.2397 10.1738C35.2651 10.1807 35.9692 9.72949 35.976 8.98438C35.9692 8.25293 35.2651 7.80176 34.2397 7.79492ZM52.1296 4.41797V8.62891H48.6159V10.0508H53.5515V11.1035H42.3816V10.0508H47.3171V8.62891H43.8034V4.41797H52.1296ZM45.0886 5.45703V7.57617H50.8445V5.45703H45.0886ZM52.1843 12.252V16.1621H50.8718V13.291H43.6257V12.252H52.1843ZM66.9505 3.91211V8.79297H68.8509V9.87305H66.9505V16.1484H65.638V3.91211H66.9505ZM63.7376 5.21094C63.7307 8.73828 62.179 11.8896 58.1458 13.8926L57.4212 12.8945C60.4495 11.3701 62.138 9.16895 62.4114 6.27734H58.0227V5.21094H63.7376ZM79.44 3.91211V16.1621H78.1548V11.0215H75.8033V9.92773H78.1548V8.42383H75.8033V7.33008H78.1548V3.91211H79.44ZM73.5884 7.33008C73.5884 9.25781 74.9146 11.582 76.733 12.5254L75.9673 13.5234C74.6275 12.833 73.5337 11.3633 72.9732 9.70898C72.44 11.5273 71.3462 13.0791 69.9654 13.8242L69.1177 12.8262C70.9566 11.917 72.2759 9.53125 72.2759 7.33008V6.20898H69.5826V5.14258H76.2818V6.20898H73.5884V7.33008ZM86.6112 4.66406C89.243 4.66406 91.1502 5.95605 91.1502 7.91797C91.1502 9.72266 89.5575 10.9531 87.2674 11.1445V13.5508H92.244V14.6309H81.0467V13.5508H85.9686V11.1445C83.7059 10.96 82.0926 9.72949 82.0995 7.91797C82.0926 5.95605 84.0135 4.66406 86.6112 4.66406ZM86.6112 5.70312C84.7381 5.70996 83.3641 6.57129 83.3709 7.91797C83.3641 9.27148 84.7381 10.1328 86.6112 10.1328C88.5116 10.1328 89.8719 9.27148 89.8788 7.91797C89.8719 6.57129 88.5116 5.70996 86.6112 5.70312ZM103.038 3.91211V16.1484H101.739V3.91211H103.038ZM99.3878 5.21094C99.3947 8.80664 97.8771 11.9102 93.673 13.9336L92.9757 12.8945C96.2433 11.3428 97.8156 9.12793 98.0753 6.26367H93.5773V5.21094H99.3878Z" fill="#26AD9F"/>
</svg>
