<svg width="53" height="18" viewBox="0 0 53 18" fill="none" xmlns="http://www.w3.org/2000/svg">
<rect x="0.5" y="0.5" width="52" height="17" rx="3.5" fill="white"/>
<rect x="0.5" y="0.5" width="52" height="17" rx="3.5" stroke="#26AD9F"/>
<path d="M12.1344 7.25276V6.3453H14.1482V3.50276H15.2587V11.1934H14.1482V7.25276H12.1344ZM9.71864 7.37707C9.25455 8.53315 8.33881 9.46133 7.08743 9.90884L6.51146 9.00138C8.12748 8.45856 9.13439 7.07459 9.13439 5.62845V5.21409H6.85538V4.30663H12.5239V5.21409H10.2615V5.62845C10.2615 6.93784 11.2104 8.25138 12.7932 8.78177L12.2255 9.66851C11.0405 9.25829 10.1744 8.41298 9.71864 7.37707ZM9.5529 10.5097V12.8674H15.5363V13.779H8.4424V10.5097H9.5529ZM24.5859 13.9945V3.49448H25.6426V13.9945H24.5859ZM20.9519 7.58425H22.4644V3.71823H23.5127V13.4641H22.4644V8.50829H20.9519V7.58425ZM19.7793 6.29144V6.71409C19.7793 8.37155 20.5417 10.0539 21.992 10.8329L21.3663 11.6575C20.3511 11.1146 19.6467 10.1119 19.2655 8.92265C18.8884 10.1948 18.184 11.2928 17.1688 11.8978L16.5141 11.0608C17.9727 10.2072 18.7227 8.41298 18.731 6.71409V6.29144H16.8373V5.38398H18.731V3.87155H19.7793V5.38398H21.6439V6.29144H19.7793ZM35.5209 11.3343H34.4104V6.81354H32.1977V5.89365H34.4104V3.50276H35.5209V11.3343ZM29.9394 7.24862C29.4877 8.45856 28.5844 9.4116 27.3496 9.88812L26.7571 8.99724C28.3897 8.42127 29.3634 6.96271 29.3676 5.38812V4.13674H30.4739V5.41298C30.4739 6.84254 31.4228 8.21409 33.0057 8.76934L32.3924 9.6395C31.2488 9.19613 30.3911 8.33425 29.9394 7.24862ZM29.7861 10.4641V12.8674H35.7571V13.779H28.6632V10.4641H29.7861ZM44.7942 6.1837V3.50276H45.8467V9.87983H44.7942V7.08702H43.5097V9.80525H42.4697V3.69751H43.5097V6.1837H44.7942ZM41.8025 8.18508L41.9186 9.09254C40.6837 9.32873 39.681 9.37431 38.0111 9.37431H37.3315V4.24033H41.4337V5.14779H38.4006V6.3163H41.3219V7.17818H38.4006V8.45442C39.8012 8.44199 40.7252 8.39226 41.8025 8.18508ZM44.7487 11.2887H38.7114V10.3895H45.8467V13.9945H44.7487V11.2887Z" fill="#26AD9F"/>
</svg>
