<svg width="60" height="20" viewBox="0 0 60 20" fill="none" xmlns="http://www.w3.org/2000/svg">
<rect x="0.5" y="0.5" width="59" height="19" rx="3.5" fill="white"/>
<rect x="0.5" y="0.5" width="59" height="19" rx="3.5" stroke="#746757"/>
<path d="M13.5216 4.80078V5.86719H12.3731V9.55859C12.879 9.52441 13.378 9.47656 13.8497 9.42188L13.918 10.3789C11.5665 10.7686 8.86629 10.7959 6.83602 10.8027L6.6993 9.70898H8.17586V5.86719H7.01375V4.80078H13.5216ZM16.8848 3.91211V11.4453H15.5587V9.3125H13.6993V8.25977H15.5587V7.09766H13.6993V6.03125H15.5587V3.91211H16.8848ZM12.7833 11.6777C15.3604 11.6846 16.9259 12.4912 16.9259 13.9062C16.9259 15.3213 15.3536 16.1416 12.7833 16.1348C10.1993 16.1416 8.62703 15.3213 8.62703 13.9062C8.62703 12.4912 10.1925 11.6846 12.7833 11.6777ZM12.7833 12.6895C10.9786 12.6895 9.92586 13.1338 9.92586 13.9062C9.92586 14.6855 10.9649 15.1367 12.7833 15.1367C14.5948 15.1367 15.6339 14.6855 15.627 13.9062C15.6339 13.1338 14.5811 12.6895 12.7833 12.6895ZM9.44734 9.68164C9.99422 9.6748 10.5479 9.66113 11.1016 9.62695V5.86719H9.44734V9.68164ZM28.2806 4.54102V5.51172C28.2738 6.50293 28.2738 7.6377 28.0072 9.12109H29.6888V10.1875H26.681V13.0449H25.3959V10.1875H23.4818V13.0449H22.2103V10.1875H18.4916V9.12109H26.6947C26.9818 7.65137 26.9886 6.56445 26.9955 5.59375H19.8724V4.54102H28.2806ZM28.6088 14.8359V15.9023H19.7904V12.0059H21.0892V14.8359H28.6088ZM34.5768 6.14062C34.5768 7.77441 35.7047 9.32617 37.5573 9.96875L36.901 10.9941C35.5202 10.5088 34.5016 9.52441 33.9616 8.28711C33.4284 9.66797 32.3756 10.7412 30.9127 11.2812L30.2155 10.2422C32.1569 9.58594 33.2711 7.93164 33.278 6.11328V4.65039H34.5768V6.14062ZM39.9225 3.91211V7.60352H41.6998V8.68359H39.9225V12.9355H38.6237V3.91211H39.9225ZM40.4557 14.8359V15.9023H32.1842V12.0605H33.4967V14.8359H40.4557ZM53.287 9.27148V10.2695H48.3515V11.2676H51.8788V14.0566H44.7695V15.0547H52.2343V16.0391H43.4843V13.1543H50.5937V12.2383H43.4433V11.2676H47.0527V10.2695H42.1445V9.27148H53.287ZM48.3515 3.85742V4.9375H52.1659V5.93555H48.4609C48.707 6.9541 50.3271 7.68555 52.7265 7.80859L52.3573 8.79297C50.204 8.64258 48.4745 8.02051 47.7089 6.96094C46.9296 8.02051 45.1933 8.64258 43.0605 8.79297L42.6777 7.80859C45.0771 7.68555 46.6972 6.9541 46.957 5.93555H43.2519V4.9375H47.0527V3.85742H48.3515Z" fill="#746757"/>
</svg>
