<svg width="60" height="20" viewBox="0 0 60 20" fill="none" xmlns="http://www.w3.org/2000/svg">
<rect x="0.5" y="0.5" width="59" height="19" rx="3.5" fill="white"/>
<rect x="0.5" y="0.5" width="59" height="19" rx="3.5" stroke="#746757"/>
<path d="M16.8848 3.92578V12.8809H15.5587V8.30078H13.2481V7.23438H15.5587V3.92578H16.8848ZM17.1993 14.8359V15.9023H8.91414V12.1016H10.2266V14.8359H17.1993ZM11.047 6.37305C11.0538 7.93164 12.1612 9.45605 14.0001 10.0918L13.3438 11.1035C11.963 10.625 10.9513 9.64062 10.418 8.42383C9.88484 9.77734 8.80477 10.8574 7.34188 11.377L6.67195 10.3379C8.56551 9.68848 9.74129 8.0752 9.73445 6.38672V5.92188H7.06844V4.86914H13.672V5.92188H11.047V6.37305ZM22.1556 7.67188C22.1556 9.58594 23.0511 11.5547 24.7259 12.457L24.0013 13.4414C22.8255 12.8125 22.0052 11.6436 21.5541 10.2695C21.1029 11.7871 20.2552 13.0381 19.1068 13.7148L18.3412 12.7305C20.0502 11.7461 20.9115 9.63379 20.9115 7.67188V7.17969H18.724V6.11328H20.9115V4.33594H22.1693V6.11328H24.3295V7.17969H22.1556V7.67188ZM29.0052 3.91211V16.1484H27.7474V3.91211H29.0052ZM26.5033 4.17188V15.5469H25.2728V9.76367H23.5228V8.69727H25.2728V4.17188H26.5033ZM40.5241 3.91211V16.1758H39.2389V9.38086H36.6959V8.31445H39.2389V3.91211H40.5241ZM34.6725 7.33008C34.6725 9.40137 35.9918 11.6504 37.858 12.5117L37.0924 13.5371C35.6911 12.8535 34.5973 11.4316 34.0436 9.75C33.4967 11.541 32.3756 13.0654 30.9538 13.7969L30.1745 12.7578C32.0407 11.8623 33.36 9.53125 33.36 7.33008V6.20898H30.653V5.14258H37.4069V6.20898H34.6725V7.33008ZM46.4101 6.1543C46.4032 7.70605 47.4902 9.12793 49.3495 9.72266L48.7206 10.748C47.3261 10.2969 46.3144 9.3877 45.7812 8.21875C45.2411 9.56543 44.1679 10.625 42.6913 11.1309L42.0351 10.1055C43.9491 9.44922 45.0907 7.86328 45.0976 6.16797V5.85352H42.4179V4.78711H49.0488V5.85352H46.4101V6.1543ZM51.7421 3.91211V6.93359H53.5195V8.01367H51.7421V11.2676H50.4433V3.91211H51.7421ZM47.7909 11.5547C50.3134 11.5547 51.872 12.3955 51.8788 13.8379C51.872 15.2871 50.3202 16.1416 47.7909 16.1348C45.2548 16.1416 43.6894 15.2871 43.6894 13.8379C43.6894 12.3955 45.2616 11.5547 47.7909 11.5547ZM47.7909 12.5938C46.0273 12.5938 44.9814 13.0312 44.9745 13.8379C44.9814 14.6582 46.0204 15.1162 47.7909 15.1094C49.5546 15.1162 50.5937 14.6582 50.5937 13.8379C50.5937 13.0312 49.5478 12.5938 47.7909 12.5938Z" fill="#746757"/>
</svg>
