<svg width="84" height="20" viewBox="0 0 84 20" fill="none" xmlns="http://www.w3.org/2000/svg">
<rect x="0.5" y="0.5" width="83" height="19" rx="3.5" fill="white"/>
<rect x="0.5" y="0.5" width="83" height="19" rx="3.5" stroke="#746757"/>
<path d="M13.1277 4.97852C13.1277 6.5918 15.117 8.12988 17.5027 8.47852L16.9832 9.53125C14.9939 9.20312 13.2439 8.15723 12.4578 6.71484C11.658 8.16406 9.90801 9.20312 7.90508 9.53125L7.37188 8.47852C9.78496 8.12988 11.7537 6.62598 11.7605 4.97852V4.32227H13.1277V4.97852ZM18.0223 10.7344V11.8145H13.0457V16.1621H11.7605V11.8145H6.85234V10.7344H18.0223ZM28.297 3.92578V6.57812H30.0743V7.6582H28.297V10.3242H26.9845V3.92578H28.297ZM20.545 4.45898V8.71094C22.172 8.69043 23.9356 8.57422 25.8087 8.19141L25.9591 9.25781C23.9083 9.6748 22.0352 9.80469 20.2305 9.80469H19.2325V4.45898H20.545ZM21.7071 10.9258V12.4297H26.9981V10.9258H28.2833V15.998H20.4083V10.9258H21.7071ZM21.7071 14.9453H26.9981V13.4824H21.7071V14.9453ZM40.1029 3.91211V7.23438H41.8802V8.31445H40.1029V11.7598H38.8041V3.91211H40.1029ZM36.1927 11.8691C38.7015 11.8691 40.2464 12.6621 40.2396 14.0156C40.2464 15.3486 38.7015 16.1416 36.1927 16.1348C33.6908 16.1416 32.1322 15.3486 32.1322 14.0156C32.1322 12.6621 33.6908 11.8691 36.1927 11.8691ZM36.1927 12.8809C34.4564 12.874 33.431 13.2773 33.431 14.0156C33.431 14.7334 34.4496 15.1436 36.1927 15.1367C37.9427 15.1436 38.9613 14.7334 38.9545 14.0156C38.9613 13.2773 37.9359 12.874 36.1927 12.8809ZM37.7923 5.22461V6.26367H30.5189V5.22461H33.4994V3.81641H34.8119V5.22461H37.7923ZM34.1556 6.82422C35.9261 6.82422 37.1361 7.68555 37.1361 8.98438C37.1361 10.3105 35.9193 11.1582 34.1556 11.1582C32.3783 11.1582 31.1752 10.3105 31.1752 8.98438C31.1752 7.68555 32.3714 6.82422 34.1556 6.82422ZM34.1556 7.79492C33.1166 7.80176 32.4125 8.25293 32.4193 8.98438C32.4125 9.72949 33.1166 10.1807 34.1556 10.1738C35.181 10.1807 35.8851 9.72949 35.892 8.98438C35.8851 8.25293 35.181 7.80176 34.1556 7.79492ZM52.0455 4.41797V8.62891H48.5319V10.0508H53.4674V11.1035H42.2975V10.0508H47.233V8.62891H43.7194V4.41797H52.0455ZM45.0045 5.45703V7.57617H50.7604V5.45703H45.0045ZM52.1002 12.252V16.1621H50.7877V13.291H43.5416V12.252H52.1002ZM57.8632 6.23633C57.8632 7.58984 58.7314 8.94336 60.3105 9.55859L59.6269 10.5566C58.4989 10.1123 57.706 9.27832 57.2616 8.27344C56.8036 9.41504 55.9628 10.3994 54.7734 10.9121L54.0761 9.90039C55.7236 9.18262 56.6122 7.61719 56.6054 6.23633V4.67773H57.8632V6.23633ZM64.5761 3.92578V11.459H63.332V8.17773H61.9238V11.0625H60.6796V4.14453H61.9238V7.11133H63.332V3.92578H64.5761ZM60.4745 11.6914C63.0243 11.6914 64.6308 12.5186 64.6308 13.9199C64.6308 15.3213 63.0312 16.1416 60.4745 16.1348C57.9042 16.1416 56.3114 15.3213 56.3183 13.9199C56.3114 12.5186 57.9111 11.6914 60.4745 11.6914ZM60.4745 12.7031C58.6904 12.6963 57.6034 13.1338 57.6034 13.9199C57.6034 14.6992 58.6835 15.1436 60.4745 15.1504C62.2655 15.1436 63.332 14.6992 63.332 13.9199C63.332 13.1338 62.2519 12.6963 60.4745 12.7031ZM70.298 5.74414C70.3049 7.45312 71.4055 8.97754 73.2375 9.59961L72.5539 10.625C71.2482 10.1465 70.2297 9.2168 69.6828 7.97266C69.1496 9.36035 68.0832 10.4473 66.593 10.9941L65.8957 9.92773C67.8371 9.26465 68.9924 7.65137 68.9992 5.79883V4.58203H70.298V5.74414ZM76.1633 3.91211V11.1309H74.8371V7.4668H72.2805V6.40039H74.8371V3.91211H76.1633ZM72.0617 11.4727C74.6184 11.4795 76.2043 12.334 76.2043 13.8105C76.2043 15.2871 74.6184 16.1416 72.0617 16.1348C69.4914 16.1416 67.9055 15.2871 67.9055 13.8105C67.9055 12.334 69.4914 11.4795 72.0617 11.4727ZM72.0617 12.5117C70.2639 12.5117 69.2043 12.9766 69.2043 13.8105C69.2043 14.6445 70.2707 15.1162 72.0617 15.1094C73.8459 15.1162 74.9123 14.6445 74.9055 13.8105C74.9123 12.9766 73.8527 12.5117 72.0617 12.5117Z" fill="#746757"/>
</svg>
