<svg width="111" height="20" viewBox="0 0 111 20" fill="none" xmlns="http://www.w3.org/2000/svg">
<rect x="0.5" y="0.5" width="110" height="19" rx="3.5" fill="white"/>
<rect x="0.5" y="0.5" width="110" height="19" rx="3.5" stroke="#746757"/>
<path d="M13.2118 4.97852C13.2118 6.5918 15.2011 8.12988 17.5868 8.47852L17.0673 9.53125C15.078 9.20312 13.328 8.15723 12.5419 6.71484C11.7421 8.16406 9.99207 9.20312 7.98914 9.53125L7.45594 8.47852C9.86902 8.12988 11.8378 6.62598 11.8446 4.97852V4.32227H13.2118V4.97852ZM18.1063 10.7344V11.8145H13.1298V16.1621H11.8446V11.8145H6.93641V10.7344H18.1063ZM22.133 4.45898C23.7668 4.45898 25.0177 5.38867 25.2912 6.76953H27.6427V3.91211H28.9689V10.4883H27.6427V7.83594H25.2912C25.0382 9.24414 23.7804 10.1807 22.133 10.1738C20.2804 10.1807 18.9269 9.01172 18.9337 7.31641C18.9269 5.6416 20.2804 4.45898 22.133 4.45898ZM22.133 5.55273C20.9914 5.55273 20.1847 6.26367 20.1779 7.31641C20.1847 8.3623 20.9914 9.08691 22.133 9.08008C23.2609 9.08691 24.0812 8.3623 24.0744 7.31641C24.0812 6.26367 23.2609 5.55273 22.133 5.55273ZM22.2834 11.0762V12.498H27.6701V11.0762H28.9689V15.998H20.9709V11.0762H22.2834ZM22.2834 14.9453H27.6701V13.5234H22.2834V14.9453ZM40.7885 3.91211V10.1191H39.4623V8.9707H36.3725V7.95898H39.4623V6.63281H36.5366C35.7778 8.52637 33.9252 9.78418 31.2045 10.4199L30.767 9.35352C33.7133 8.69043 35.2924 7.30957 35.4975 5.52539H31.4096V4.47266H36.933C36.933 4.86914 36.8989 5.24512 36.8373 5.60742H39.4623V3.91211H40.7885ZM40.7885 10.666V13.7695H34.103V15H41.1577V16.0391H32.8041V12.7852H39.476V11.7051H32.7768V10.666H40.7885ZM49.2038 5.21094V5.97656C49.2038 7.0293 49.2038 8.59473 48.8484 10.7891L47.5632 10.6797C47.8845 8.73828 47.9187 7.2959 47.9187 6.27734H42.9421V5.21094H49.2038ZM46.0593 8.72461V12.3887C47.365 12.3477 48.7116 12.2656 49.9284 12.1152L49.9968 13.0723C47.447 13.4893 44.5759 13.5439 42.4089 13.5508L42.2722 12.457C43.0241 12.457 43.8786 12.4502 44.7741 12.4297V8.72461H46.0593ZM51.9245 3.91211V8.9707H53.8112V10.0781H51.9245V16.1484H50.6257V3.91211H51.9245ZM68.5911 10.1055V11.1582H63.7376V13.5098H62.4387V11.1582H57.3938V10.1055H68.5911ZM67.1419 4.47266V8.84766H58.8157V4.47266H67.1419ZM60.1009 5.51172V7.79492H65.8567V5.51172H60.1009ZM67.347 14.8359V15.9023H58.7747V12.3887H60.0872V14.8359H67.347ZM73.4791 7.52148C73.4791 9.44238 74.7711 11.6094 76.6236 12.4844L75.8853 13.5234C74.4976 12.8535 73.4107 11.4658 72.8638 9.85938C72.3033 11.6025 71.1685 13.127 69.7603 13.8242L69.0084 12.7852C70.8472 11.8965 72.1939 9.5791 72.1939 7.52148V6.22266H69.4459V5.14258H76.1451V6.22266H73.4791V7.52148ZM78.7701 3.91211V8.7793H80.7252V9.87305H78.7701V16.1621H77.4576V3.91211H78.7701ZM91.2596 3.92578V12.8809H89.9334V8.30078H87.6229V7.23438H89.9334V3.92578H91.2596ZM91.5741 14.8359V15.9023H83.2889V12.1016H84.6014V14.8359H91.5741ZM85.4217 6.37305C85.4286 7.93164 86.536 9.45605 88.3748 10.0918L87.7186 11.1035C86.3377 10.625 85.326 9.64062 84.7928 8.42383C84.2596 9.77734 83.1795 10.8574 81.7166 11.377L81.0467 10.3379C82.9403 9.68848 84.1161 8.0752 84.1092 6.38672V5.92188H81.4432V4.86914H88.0467V5.92188H85.4217V6.37305ZM99.0734 8.21875V9.91406H104.023V10.9668H92.8527V9.91406H97.7882V8.21875H99.0734ZM99.1007 4.60938C99.0939 6.16797 101.001 7.52832 103.366 7.84961L102.874 8.875C100.946 8.56055 99.2238 7.6377 98.4445 6.27734C97.6447 7.63086 95.922 8.56738 93.9874 8.875L93.4952 7.84961C95.8536 7.52832 97.7677 6.1543 97.7745 4.60938V4.11719H99.1007V4.60938ZM98.4308 11.8691C101.083 11.8691 102.676 12.6484 102.669 14.0156C102.676 15.3828 101.09 16.1416 98.4308 16.1348C95.7648 16.1416 94.1788 15.3828 94.1788 14.0156C94.1788 12.6484 95.7716 11.8691 98.4308 11.8691ZM98.4308 12.8809C96.5646 12.874 95.4982 13.2705 95.505 14.0156C95.4982 14.7471 96.5577 15.1436 98.4308 15.1367C100.311 15.1436 101.357 14.7471 101.357 14.0156C101.357 13.2705 100.297 12.874 98.4308 12.8809Z" fill="#746757"/>
</svg>
