<svg width="96" height="20" viewBox="0 0 96 20" fill="none" xmlns="http://www.w3.org/2000/svg">
<rect x="0.5" y="0.5" width="95" height="19" rx="3.5" fill="white"/>
<rect x="0.5" y="0.5" width="95" height="19" rx="3.5" stroke="#746757"/>
<path d="M11.2492 5.83984C11.256 7.47363 12.3703 9.01855 14.2023 9.6543L13.505 10.6797C12.1584 10.1875 11.1535 9.19629 10.6203 7.95898C10.0939 9.32617 9.05484 10.3926 7.61246 10.9258L6.92887 9.88672C8.84293 9.2168 9.95035 7.58301 9.95035 5.77148V4.54102H11.2492V5.83984ZM17.1554 11.8008V16.1621H15.8293V12.8535H8.8566V11.8008H17.1554ZM17.1554 3.91211V11.1582H15.8293V7.4668H13.2726V6.40039H15.8293V3.91211H17.1554ZM22.9731 7.82227C22.9663 9.73633 24.1147 11.7256 25.9262 12.5938L25.2016 13.5918C23.8686 12.9561 22.8637 11.6777 22.3442 10.1602C21.811 11.7939 20.7377 13.1543 19.3364 13.8242L18.6118 12.8125C20.478 11.9375 21.6811 9.85938 21.6743 7.82227V7.04297H18.9672V6.00391H21.6743V4.1582H22.9731V6.00391H25.6254V7.04297H22.9731V7.82227ZM28.3051 3.91211V8.86133H30.2602V9.94141H28.3051V16.1621H26.9926V3.91211H28.3051ZM40.7536 3.91211V16.1758H39.4411V3.91211H40.7536ZM36.9939 5.01953V9.50391H32.5915V12.1699C34.5739 12.1562 36.3308 12.0742 38.3611 11.7461L38.4978 12.7988C36.3308 13.1611 34.4988 13.25 32.3181 13.25H31.279V8.45117H35.6677V6.08594H31.2517V5.01953H36.9939ZM48.6357 5.63477C48.6357 7.6377 50.748 9.51758 53.0791 9.94141L52.5049 11.0352C50.543 10.5977 48.7451 9.32617 47.9521 7.60352C47.1387 9.31934 45.3477 10.6045 43.3857 11.0352L42.8115 9.94141C45.1426 9.50391 47.248 7.62402 47.2549 5.63477V4.71875H48.6357V5.63477ZM53.5986 13.4688V14.5625H42.4014V13.4688H53.5986ZM64.1604 10.4199V11.4727H55.6155V4.91016H64.0511V5.97656H56.9417V7.63086H63.7776V8.66992H56.9417V10.4199H64.1604ZM65.4182 13.5645V14.6445H54.221V13.5645H65.4182ZM76.1988 3.92578V12.8262H74.8863V3.92578H76.1988ZM76.5679 14.8359V15.9023H68.1871V11.9238H69.4859V14.8359H76.5679ZM69.5543 4.74609C71.4 4.75293 72.815 6.01758 72.8082 7.79492C72.815 9.56543 71.4 10.8369 69.5543 10.8438C67.688 10.8369 66.2798 9.56543 66.2867 7.79492C66.2798 6.01758 67.688 4.75293 69.5543 4.74609ZM69.5543 5.88086C68.4195 5.88086 67.5582 6.64648 67.5582 7.79492C67.5582 8.92285 68.4195 9.68164 69.5543 9.68164C70.6822 9.68164 71.5367 8.92285 71.5367 7.79492C71.5367 6.64648 70.6822 5.88086 69.5543 5.88086ZM81.62 9.95508V12.3066C82.4676 12.2725 83.3084 12.1973 84.0536 12.0879L84.1219 13.0586C82.078 13.4482 79.5213 13.4961 77.8739 13.4961L77.7098 12.4023C78.4481 12.4023 79.3914 12.3955 80.3758 12.3613V9.95508H81.62ZM88.3192 3.91211V16.1484H87.075V9.96875H85.7489V15.5332H84.5321V4.1582H85.7489V8.90234H87.075V3.91211H88.3192ZM81.6473 5.92188C81.6473 7.25488 82.5223 8.5332 84.1082 9.10742L83.4383 10.0918C82.2762 9.66113 81.4627 8.84082 81.0321 7.82227C80.5741 8.95703 79.7059 9.88672 78.4344 10.3652L77.7782 9.36719C79.4393 8.76562 80.3553 7.38477 80.3485 5.92188V4.88281H81.6473V5.92188Z" fill="#746757"/>
</svg>
