<svg width="84" height="20" viewBox="0 0 84 20" fill="none" xmlns="http://www.w3.org/2000/svg">
<rect x="0.5" y="0.5" width="83" height="19" rx="3.5" fill="white"/>
<rect x="0.5" y="0.5" width="83" height="19" rx="3.5" stroke="#26AD9F"/>
<path d="M18.0496 13.5645V14.6445H6.85234V13.5645H11.7742V11.0488H8.12383V4.74609H9.42266V6.83789H15.4383V4.74609H16.7371V11.0488H13.073V13.5645H18.0496ZM9.42266 9.98242H15.4383V7.9043H9.42266V9.98242ZM29.8282 9.90039V10.9531H24.8927V12.0605C27.1622 12.1768 28.4815 12.8809 28.4747 14.0977C28.4815 15.4238 26.9024 16.1416 24.2364 16.1348C21.5567 16.1416 19.9845 15.4238 19.9845 14.0977C19.9845 12.8809 21.3106 12.1699 23.5938 12.0605V10.9531H18.6583V9.90039H29.8282ZM24.8927 3.89844V5.07422H28.7071V6.09961H24.9747C25.1388 7.26172 26.8067 8.14355 29.2266 8.32812L28.8302 9.33984C26.7179 9.1416 25.0089 8.44434 24.2501 7.31641C23.4845 8.44434 21.7686 9.1416 19.6563 9.33984L19.2598 8.32812C21.6798 8.14355 23.3546 7.26172 23.5118 6.09961H19.793V5.07422H23.5938V3.89844H24.8927ZM24.2364 13.0312C22.3565 13.0312 21.3038 13.3936 21.3106 14.0977C21.3038 14.7881 22.3565 15.1504 24.2364 15.1504C26.1163 15.1504 27.1622 14.7881 27.1622 14.0977C27.1622 13.3936 26.1095 13.0312 24.2364 13.0312ZM36.767 4.97852C36.767 6.5918 38.7562 8.12988 41.142 8.47852L40.6224 9.53125C38.6332 9.20312 36.8832 8.15723 36.097 6.71484C35.2972 8.16406 33.5472 9.20312 31.5443 9.53125L31.0111 8.47852C33.4242 8.12988 35.3929 6.62598 35.3998 4.97852V4.32227H36.767V4.97852ZM41.6615 10.7344V11.8145H36.6849V16.1621H35.3998V11.8145H30.4916V10.7344H41.6615ZM45.6881 4.45898C47.3219 4.45898 48.5729 5.38867 48.8463 6.76953H51.1979V3.91211H52.5241V10.4883H51.1979V7.83594H48.8463C48.5934 9.24414 47.3356 10.1807 45.6881 10.1738C43.8356 10.1807 42.4821 9.01172 42.4889 7.31641C42.4821 5.6416 43.8356 4.45898 45.6881 4.45898ZM45.6881 5.55273C44.5465 5.55273 43.7399 6.26367 43.733 7.31641C43.7399 8.3623 44.5465 9.08691 45.6881 9.08008C46.8161 9.08691 47.6364 8.3623 47.6295 7.31641C47.6364 6.26367 46.8161 5.55273 45.6881 5.55273ZM45.8385 11.0762V12.498H51.2252V11.0762H52.5241V15.998H44.526V11.0762H45.8385ZM45.8385 14.9453H51.2252V13.5234H45.8385V14.9453ZM65.3007 11.2949V12.375H60.3515V16.1758H59.0527V12.375H54.1308V11.2949H65.3007ZM64.2343 5.38867V6.44141H60.3652C60.4335 7.79492 62.2861 9.11426 64.6171 9.42188L64.1523 10.4609C62.1698 10.1875 60.5019 9.25781 59.7089 8C58.9159 9.26465 57.2343 10.1807 55.2519 10.4609L54.787 9.42188C57.1249 9.11426 58.9706 7.81543 59.0527 6.44141H55.1972V5.38867H59.0527V3.92578H60.3515V5.38867H64.2343ZM75.4934 3.91211V8.79297H77.3937V9.87305H75.4934V16.1484H74.1809V3.91211H75.4934ZM72.2805 5.21094C72.2736 8.73828 70.7219 11.8896 66.6887 13.8926L65.9641 12.8945C68.9924 11.3701 70.6809 9.16895 70.9543 6.27734H66.5656V5.21094H72.2805Z" fill="#26AD9F"/>
</svg>
