<svg width="60" height="20" viewBox="0 0 60 20" fill="none" xmlns="http://www.w3.org/2000/svg">
<rect width="60" height="20" rx="4" fill="#25AE9F"/>
<path d="M17.8555 10.1055V11.1582H13.002V13.5098H11.7032V11.1582H6.65828V10.1055H17.8555ZM16.4063 4.47266V8.84766H8.08016V4.47266H16.4063ZM9.36531 5.51172V7.79492H15.1212V5.51172H9.36531ZM16.6114 14.8359V15.9023H8.03914V12.3887H9.35164V14.8359H16.6114ZM22.7435 7.52148C22.7435 9.44238 24.0355 11.6094 25.888 12.4844L25.1498 13.5234C23.7621 12.8535 22.6752 11.4658 22.1283 9.85938C21.5677 11.6025 20.433 13.127 19.0248 13.8242L18.2728 12.7852C20.1117 11.8965 21.4584 9.5791 21.4584 7.52148V6.22266H18.7103V5.14258H25.4095V6.22266H22.7435V7.52148ZM28.0345 3.91211V8.7793H29.9896V9.87305H28.0345V16.1621H26.722V3.91211H28.0345ZM40.5241 3.91211V16.1758H39.2389V9.38086H36.6959V8.31445H39.2389V3.91211H40.5241ZM34.6725 7.33008C34.6725 9.40137 35.9918 11.6504 37.858 12.5117L37.0924 13.5371C35.6911 12.8535 34.5973 11.4316 34.0436 9.75C33.4967 11.541 32.3756 13.0654 30.9538 13.7969L30.1745 12.7578C32.0407 11.8623 33.36 9.53125 33.36 7.33008V6.20898H30.653V5.14258H37.4069V6.20898H34.6725V7.33008ZM46.4101 6.1543C46.4032 7.70605 47.4902 9.12793 49.3495 9.72266L48.7206 10.748C47.3261 10.2969 46.3144 9.3877 45.7812 8.21875C45.2411 9.56543 44.1679 10.625 42.6913 11.1309L42.0351 10.1055C43.9491 9.44922 45.0907 7.86328 45.0976 6.16797V5.85352H42.4179V4.78711H49.0488V5.85352H46.4101V6.1543ZM51.7421 3.91211V6.93359H53.5195V8.01367H51.7421V11.2676H50.4433V3.91211H51.7421ZM47.7909 11.5547C50.3134 11.5547 51.872 12.3955 51.8788 13.8379C51.872 15.2871 50.3202 16.1416 47.7909 16.1348C45.2548 16.1416 43.6894 15.2871 43.6894 13.8379C43.6894 12.3955 45.2616 11.5547 47.7909 11.5547ZM47.7909 12.5938C46.0273 12.5938 44.9814 13.0312 44.9745 13.8379C44.9814 14.6582 46.0204 15.1162 47.7909 15.1094C49.5546 15.1162 50.5937 14.6582 50.5937 13.8379C50.5937 13.0312 49.5478 12.5938 47.7909 12.5938Z" fill="white"/>
</svg>
