<svg width="99" height="20" viewBox="0 0 99 20" fill="none" xmlns="http://www.w3.org/2000/svg">
<rect width="99" height="20" rx="4" fill="#746757"/>
<path d="M7.16367 15V5.10156H13.3707V6.48242H8.64024V9.17578H12.9879V10.502H8.64024V13.6191H13.4801V15H7.16367ZM14.1161 15L16.5497 11.4727L14.1024 7.94531H15.7841L17.4384 10.3516H17.493L19.1337 7.94531H20.8153L18.3544 11.4727L20.8016 15H19.12L17.493 12.5801H17.4384L15.7977 15H14.1161ZM24.6916 15.1914C22.5861 15.1914 21.0002 13.5918 21.0002 11.4727C21.0002 9.35352 22.5861 7.75391 24.6916 7.75391C26.0519 7.75391 27.1593 8.42383 27.7541 9.51758L26.4963 10.1055C26.1545 9.44922 25.5187 9.07324 24.6916 9.08008C23.3449 9.07324 22.4084 10.0645 22.4084 11.4727C22.4084 12.8809 23.3449 13.8721 24.6916 13.8652C25.5187 13.8721 26.1545 13.4961 26.4963 12.8398L27.7541 13.4277C27.1593 14.5215 26.0519 15.1914 24.6916 15.1914ZM32.3002 15.1914C30.1264 15.1914 28.5678 13.5986 28.5678 11.4727C28.5678 9.33301 30.1059 7.75391 32.1635 7.75391C34.2211 7.75391 35.6498 9.33301 35.6498 11.4727C35.6498 11.6299 35.643 11.7939 35.6225 11.9512H30.017C30.1879 13.1543 31.0971 13.9336 32.3139 13.9336C33.2094 13.9336 33.8452 13.5166 34.1733 12.8262L35.4174 13.332C34.8569 14.4668 33.77 15.1914 32.3002 15.1914ZM30.0717 10.707H34.1596C34.0639 9.75 33.2778 9.01172 32.1635 9.01172C31.1039 9.01172 30.311 9.6748 30.0717 10.707ZM36.8191 15V5.10156H38.2273V15H36.8191ZM46.7317 7.52148C46.7317 9.44238 48.0237 11.6094 49.8763 12.4844L49.138 13.5234C47.7503 12.8535 46.6634 11.4658 46.1165 9.85938C45.5559 11.6025 44.4212 13.127 43.013 13.8242L42.261 12.7852C44.0999 11.8965 45.4466 9.5791 45.4466 7.52148V6.22266H42.6985V5.14258H49.3977V6.22266H46.7317V7.52148ZM52.0227 3.91211V8.7793H53.9778V9.87305H52.0227V16.1621H50.7102V3.91211H52.0227ZM65.4966 13.6191V14.6855H54.2994V13.6191H57.3345V11.4316H55.6666V7.5625H62.8443V5.83984H55.6392V4.78711H64.1431V8.58789H56.9517V10.3789H64.4302V11.4316H62.5572V13.6191H65.4966ZM58.6197 13.6191H61.272V11.4316H58.6197V13.6191ZM80.4816 11.2949V12.375H75.5323V16.1758H74.2335V12.375H69.3116V11.2949H80.4816ZM79.4152 5.38867V6.44141H75.546C75.6144 7.79492 77.4669 9.11426 79.798 9.42188L79.3331 10.4609C77.3507 10.1875 75.6827 9.25781 74.8898 8C74.0968 9.26465 72.4152 10.1807 70.4327 10.4609L69.9679 9.42188C72.3058 9.11426 74.1515 7.81543 74.2335 6.44141H70.378V5.38867H74.2335V3.92578H75.5323V5.38867H79.4152ZM90.6742 3.91211V8.79297H92.5746V9.87305H90.6742V16.1484H89.3617V3.91211H90.6742ZM87.4613 5.21094C87.4545 8.73828 85.9027 11.8896 81.8695 13.8926L81.1449 12.8945C84.1732 11.3701 85.8617 9.16895 86.1352 6.27734H81.7465V5.21094H87.4613Z" fill="white"/>
</svg>
