<svg width="40" height="20" viewBox="0 0 40 20" fill="none" xmlns="http://www.w3.org/2000/svg">
<rect x="0.5" y="0.5" width="39" height="19" rx="3.5" fill="white"/>
<rect x="0.5" y="0.5" width="39" height="19" rx="3.5" stroke="#746757"/>
<path d="M18.1198 7.07182H19.894V8.1692H18.1198V11.3308H16.8194V3.91022H18.1198V7.07182ZM12.1205 7.92265C11.5887 9.26174 10.5445 10.3011 9.09909 10.8087L8.43197 9.77417C10.3463 9.12638 11.4534 7.53591 11.463 5.76174V4.53867H12.749V5.85842C12.7393 7.4634 13.8705 8.95718 15.722 9.57113L15.0597 10.5912C13.6771 10.1222 12.6571 9.15055 12.1205 7.92265ZM16.8194 12.9503H10.0224V11.9012H18.1198V16.1602H16.8194V12.9503ZM29.5865 16.1602V3.91022H30.8193V16.1602H29.5865ZM25.2019 8.25138H27.1114V4.17127H28.3344V15.5414H27.1114V9.30525H25.2019V8.25138ZM24.003 6.34668V7.32804C24.003 9.4261 24.849 11.5193 26.5699 12.5104L25.7965 13.4675C24.6217 12.7666 23.8193 11.5193 23.3938 10.0401C22.9588 11.6402 22.1273 13.0083 20.9332 13.7528L20.1307 12.7907C21.8662 11.7369 22.7509 9.50829 22.7509 7.32804V6.34668H20.5078V5.28798H26.1155V6.34668H24.003Z" fill="#746757"/>
</svg>
