<svg width="60" height="20" viewBox="0 0 60 20" fill="none" xmlns="http://www.w3.org/2000/svg">
<rect width="60" height="20" rx="4" fill="#40916C"/>
<path d="M17.1173 3.92578V11.0762H15.8731V7.97266H14.4649V10.9258H13.2208V4.13086H14.4649V6.91992H15.8731V3.92578H17.1173ZM17.1173 11.6641V15.998H8.92781V11.6641H17.1173ZM10.213 12.7031V14.959H15.8321V12.7031H10.213ZM10.4044 6.1543C10.4044 7.53516 11.2999 8.86816 12.8516 9.49023L12.168 10.4746C11.0401 10.0303 10.2403 9.18945 9.80281 8.17773C9.33797 9.31934 8.50398 10.3037 7.31453 10.8164L6.61727 9.80469C8.26473 9.08008 9.1534 7.52832 9.14656 6.14062V4.60938H10.4044V6.1543ZM28.6088 4.26758V5.2793H26.8314V7.37109H28.5541V8.36914H19.558V7.37109H21.2943V5.2793H19.5033V4.26758H28.6088ZM29.6478 9.28516V10.3242H18.4779V9.28516H29.6478ZM28.2396 11.2676V14.0703H21.1302V15.0547H28.5951V16.0391H19.8451V13.1543H26.9545V12.2246H19.8041V11.2676H28.2396ZM22.5931 7.37109H25.5189V5.2793H22.5931V7.37109ZM40.7565 3.91211V11.2266H39.5123V3.91211H40.7565ZM38.3776 4.13086V11.1445H37.1334V8.16406H35.985C35.7594 9.58594 34.6657 10.543 33.2096 10.543C31.5895 10.543 30.4069 9.33984 30.4069 7.61719C30.4069 5.8877 31.5895 4.67773 33.2096 4.67773C34.6725 4.67773 35.7663 5.6416 35.985 7.08398H37.1334V4.13086H38.3776ZM40.7565 11.7871V16.1621H39.4577V12.8398H32.403V11.7871H40.7565ZM33.2096 5.78516C32.2594 5.78516 31.5827 6.52344 31.5827 7.61719C31.5827 8.7041 32.2594 9.44238 33.2096 9.43555C34.1666 9.44238 34.8571 8.7041 34.8502 7.61719C34.8571 6.52344 34.1666 5.78516 33.2096 5.78516ZM45.8359 5.55273C45.8359 6.97461 46.6493 8.36914 48.1738 8.99805L47.5038 9.98242C46.3827 9.51758 45.6308 8.65625 45.2206 7.60352C44.7831 8.78613 43.9697 9.79102 42.8007 10.3379L42.0761 9.35352C43.7167 8.61523 44.5849 7.00195 44.578 5.51172V4.41797H45.8359V5.55273ZM52.5761 3.92578V10.3926H51.332V3.92578H52.5761ZM50.1288 4.13086V10.2969H48.8984V7.15234H47.1347V6.08594H48.8984V4.13086H50.1288ZM52.5761 10.9121V13.9062H45.6718V15H53.0273V16.0391H44.373V12.9355H51.2909V11.9512H44.3593V10.9121H52.5761Z" fill="white"/>
</svg>
