<svg width="60" height="20" viewBox="0 0 60 20" fill="none" xmlns="http://www.w3.org/2000/svg">
<rect x="0.5" y="0.5" width="59" height="19" rx="3.5" fill="white"/>
<rect x="0.5" y="0.5" width="59" height="19" rx="3.5" stroke="#746757"/>
<path d="M16.8848 3.91211V10.1191H15.5587V8.9707H12.4688V7.95898H15.5587V6.63281H12.6329C11.8741 8.52637 10.0216 9.78418 7.30086 10.4199L6.86336 9.35352C9.80965 8.69043 11.3888 7.30957 11.5938 5.52539H7.50594V4.47266H13.0294C13.0294 4.86914 12.9952 5.24512 12.9337 5.60742H15.5587V3.91211H16.8848ZM16.8848 10.666V13.7695H10.1993V15H17.254V16.0391H8.90047V12.7852H15.5723V11.7051H8.87313V10.666H16.8848ZM29.0052 3.91211V16.1484H27.7474V3.91211H29.0052ZM26.5033 4.17188V15.5469H25.2728V9.32617H23.3724V8.24609H25.2728V4.17188H26.5033ZM22.183 7.30273C22.183 9.41504 23.0306 11.5137 24.7533 12.5117L23.974 13.4688C22.7982 12.7715 21.9984 11.5205 21.5677 10.0371C21.1302 11.6436 20.3031 13.0039 19.1068 13.7559L18.3138 12.7988C20.0502 11.7324 20.9252 9.49707 20.9252 7.30273V6.3457H18.683V5.2793H24.2884V6.3457H22.183V7.30273ZM37.6666 5.23828V6.27734H35.0416C35.0485 7.43262 36.1422 8.4375 37.9127 8.80664L37.3795 9.81836C35.985 9.51074 34.9528 8.82031 34.4127 7.89062C33.8795 8.90234 32.82 9.66113 31.3639 9.99609L30.8307 8.98438C32.6286 8.59473 33.7291 7.50098 33.7291 6.27734H31.1041V5.23828H33.7291V3.93945H35.0416V5.23828H37.6666ZM40.4967 3.92578V16.1621H39.1979V3.92578H40.4967ZM30.2975 10.748C32.5875 10.7549 35.6911 10.748 38.3639 10.3789L38.4459 11.3359C37.3317 11.5273 36.1832 11.6436 35.0553 11.7188V15.793H33.7428V11.7871C32.567 11.835 31.4528 11.8418 30.4616 11.8418L30.2975 10.748ZM53.328 13.5371V14.6172H42.1308V13.5371H47.0253V10.6387H48.3241V13.5371H53.328ZM48.3652 5.62109C48.3652 7.55566 50.4843 9.36035 52.8359 9.77734L52.2753 10.8711C50.2929 10.4746 48.4814 9.22363 47.6679 7.54883C46.8613 9.2168 45.0566 10.4678 43.0741 10.8711L42.5136 9.77734C44.872 9.36035 46.9775 7.54199 46.9843 5.62109V4.69141H48.3652V5.62109Z" fill="#746757"/>
</svg>
