<svg width="40" height="20" viewBox="0 0 40 20" fill="none" xmlns="http://www.w3.org/2000/svg">
<rect width="40" height="20" rx="4" fill="#746757"/>
<path d="M10.2722 15.1914C8.82297 15.1914 7.6677 14.6104 6.75852 13.4141L7.86594 12.5117C8.5632 13.4072 9.28781 13.79 10.2722 13.7832C11.5095 13.79 12.2683 13.1816 12.2683 12.1973C12.2683 11.3975 11.7693 10.9736 10.3269 10.5703L9.84836 10.4336C7.98215 9.93457 7.11398 9.08008 7.11398 7.75391C7.11398 6.12012 8.4675 4.91016 10.3405 4.91016C11.653 4.91016 12.863 5.5459 13.6491 6.63281L12.528 7.50781C11.947 6.72168 11.195 6.31152 10.3405 6.31836C9.31516 6.31152 8.61789 6.89941 8.61789 7.75391C8.61789 8.41699 9.03488 8.76562 10.2312 9.08008L10.7097 9.2168C12.8357 9.80469 13.7654 10.7002 13.7722 12.1836C13.7654 13.9814 12.3571 15.1914 10.2722 15.1914ZM15.0508 15V5.10156H16.9102L19.9727 12.7031H20.0273L23.0898 5.10156H24.9492V15H23.4863V8.06836H23.4453L20.6426 15H19.3574L16.5684 8.06836H16.5137V15H15.0508ZM29.7278 15.1914C28.2786 15.1914 27.1233 14.6104 26.2141 13.4141L27.3216 12.5117C28.0188 13.4072 28.7434 13.79 29.7278 13.7832C30.9651 13.79 31.7239 13.1816 31.7239 12.1973C31.7239 11.3975 31.2249 10.9736 29.7825 10.5703L29.304 10.4336C27.4378 9.93457 26.5696 9.08008 26.5696 7.75391C26.5696 6.12012 27.9231 4.91016 29.7962 4.91016C31.1087 4.91016 32.3186 5.5459 33.1048 6.63281L31.9837 7.50781C31.4026 6.72168 30.6507 6.31152 29.7962 6.31836C28.7708 6.31152 28.0735 6.89941 28.0735 7.75391C28.0735 8.41699 28.4905 8.76562 29.6868 9.08008L30.1653 9.2168C32.2913 9.80469 33.221 10.7002 33.2278 12.1836C33.221 13.9814 31.8128 15.1914 29.7278 15.1914Z" fill="white"/>
</svg>
