<svg width="64" height="20" viewBox="0 0 64 20" fill="none" xmlns="http://www.w3.org/2000/svg">
<rect x="0.5" y="0.5" width="63" height="19" rx="3.5" fill="white"/>
<rect x="0.5" y="0.5" width="63" height="19" rx="3.5" stroke="#26AD9F"/>
<path d="M18.3002 3.91022V6.99447H20.0744V8.07735H18.3002V11.3018H16.9998V3.91022H18.3002ZM12.2719 7.95649C11.745 9.32942 10.7056 10.4075 9.27948 10.9344L8.57852 9.9047C10.488 9.22307 11.5951 7.58425 11.6048 5.76174V4.54834H12.8907V5.87293C12.8907 7.4779 14.0219 8.97168 15.8492 9.57113L15.1579 10.5912C13.814 10.1174 12.8085 9.16506 12.2719 7.95649ZM14.3409 11.5919C16.8644 11.5919 18.4114 12.433 18.4114 13.8591C18.4114 15.3142 16.8644 16.1409 14.3409 16.1409C11.7981 16.1409 10.2318 15.3142 10.2318 13.8591C10.2318 12.433 11.7981 11.5919 14.3409 11.5919ZM14.3409 15.1209C16.1055 15.1112 17.14 14.6713 17.14 13.8591C17.14 13.0808 16.1055 12.6215 14.3409 12.6215C12.5716 12.6215 11.5226 13.0808 11.5322 13.8591C11.5226 14.6713 12.5716 15.1112 14.3409 15.1209ZM29.7814 16.1602V3.91022H31.0287V16.1602H29.7814ZM25.3532 8.21754H27.2628V4.1471H28.4858V15.5559H27.2628V9.29558H25.3532V8.21754ZM24.2269 5.02693V7.25552C24.2269 9.21823 25.0438 11.3018 26.6875 12.3025L25.9575 13.308C24.8118 12.6167 24.0383 11.3888 23.6177 9.97238C23.1682 11.5242 22.327 12.8488 21.1378 13.5739L20.3256 12.607C22.0611 11.5725 22.9699 9.40193 22.9699 7.31354V5.02693H24.2269ZM38.5313 11.0552V13.5691H43.5251V14.6423H32.3144V13.5691H37.2454V11.0552H33.5907V4.74655H34.8911V6.85912H40.9049V4.74655H42.1956V11.0552H38.5313ZM40.9049 7.90331H34.8911V10.0014H40.9049V7.90331ZM53.0097 16.1602V3.91022H54.315V16.1602H53.0097ZM44.8447 5.22997H50.6748C50.6651 8.81215 49.1423 11.9206 44.9365 13.9268L44.2501 12.8778C47.5083 11.3308 49.094 9.12155 49.3502 6.2645H44.8447V5.22997Z" fill="#26AD9F"/>
</svg>
