<svg width="139" height="55" viewBox="0 0 139 55" fill="none" xmlns="http://www.w3.org/2000/svg">
<rect width="139" height="55" rx="4" fill="#E84810"/>
<path d="M65.2245 24.7901H69.5781V27.6519H65.2245V41.7624H61.7881V13.5414H65.2245V24.7901ZM49.6223 13.9392H53.0919V17.8619H59.6113V20.6685H42.9483V17.8619H49.6223V13.9392ZM51.3792 22.4917C55.4455 22.4917 58.4621 25.2431 58.4842 29.1436C58.4621 33.0442 55.4455 35.7845 51.3792 35.7845C47.2577 35.7845 44.23 33.0442 44.2521 29.1436C44.23 25.2431 47.2577 22.4917 51.3792 22.4917ZM51.3792 32.9116C53.556 32.9337 55.1361 31.4641 55.1582 29.1436C55.1361 26.8564 53.556 25.3425 51.3792 25.3425C49.1693 25.3425 47.556 26.8564 47.5781 29.1436C47.556 31.4641 49.1693 32.9337 51.3792 32.9116ZM84.7822 32.4586V30.0497H90.3181V13.5635H93.8098V34.9337H90.3181V32.4586H84.7822ZM79.2021 24.547C75.0253 24.547 72.1413 22.6243 72.1413 19.5967C72.1413 16.6133 75.0143 14.5801 79.2021 14.5912C83.3236 14.5801 86.2187 16.6133 86.2408 19.5967C86.2187 22.6243 83.3236 24.547 79.2021 24.547ZM79.2021 17.1547C76.948 17.1436 75.4231 18.0608 75.4452 19.5967C75.4231 21.1326 76.948 22.0166 79.2021 22.0166C81.3678 22.0166 82.9038 21.1326 82.9259 19.5967C82.9038 18.0608 81.3678 17.1436 79.2021 17.1547ZM81.2794 34.1492H77.7877V28.9116C75.1579 29.0221 72.6386 29.0331 70.4176 29.0331L69.9977 26.2597C75.2021 26.2265 82.2076 26.1713 88.1966 25.4088L88.4065 27.9061C86.0861 28.2928 83.6662 28.547 81.2794 28.7238V34.1492ZM77.2242 32.8674V38.4144H94.4618V41.232H73.7435V32.8674H77.2242Z" fill="white"/>
</svg>
