<svg width="111" height="20" viewBox="0 0 111 20" fill="none" xmlns="http://www.w3.org/2000/svg">
<rect x="0.5" y="0.5" width="110" height="19" rx="3.5" fill="white"/>
<rect x="0.5" y="0.5" width="110" height="19" rx="3.5" stroke="#746757"/>
<path d="M13.3622 5.07422V13.127H7.60633V5.07422H13.3622ZM8.89148 6.12695V12.0879H12.0907V6.12695H8.89148ZM17.0809 3.91211V16.1758H15.7684V3.91211H17.0809ZM28.381 3.92578V6.57812H30.1584V7.6582H28.381V10.3242H27.0685V3.92578H28.381ZM20.6291 4.45898V8.71094C22.256 8.69043 24.0197 8.57422 25.8927 8.19141L26.0431 9.25781C23.9923 9.6748 22.1193 9.80469 20.3146 9.80469H19.3166V4.45898H20.6291ZM21.7912 10.9258V12.4297H27.0822V10.9258H28.3673V15.998H20.4923V10.9258H21.7912ZM21.7912 14.9453H27.0822V13.4824H21.7912V14.9453ZM41.062 3.91211V16.1484H39.8178V9.88672H38.2455V15.5332H37.0287V4.17188H38.2455V8.82031H39.8178V3.91211H41.062ZM32.4487 5.34766V11.8965C33.5629 11.8896 34.8139 11.8008 36.1948 11.5273L36.3315 12.6621C34.6635 12.9766 33.2416 13.0381 31.9428 13.0449H31.1362V5.34766H32.4487ZM52.6081 11.7871V16.1621H51.282V12.8262H44.3093V11.7871H52.6081ZM52.6081 3.91211V11.1309H51.282V9.44922H48.2878C47.7136 10.1191 46.8181 10.5225 45.7722 10.5293C43.9402 10.5225 42.5661 9.29199 42.573 7.54883C42.5661 5.81934 43.9402 4.58203 45.7722 4.58203C46.8249 4.58203 47.7273 4.99219 48.3015 5.67578H51.282V3.91211H52.6081ZM45.7722 5.70312C44.6511 5.69629 43.8103 6.44824 43.8034 7.54883C43.8103 8.66309 44.6511 9.4082 45.7722 9.4082C46.8933 9.4082 47.7273 8.66309 47.7273 7.54883C47.7273 6.44824 46.8933 5.69629 45.7722 5.70312ZM48.862 8.38281H51.282V6.72852H48.862C48.9304 6.98828 48.9714 7.26172 48.9714 7.54883C48.9714 7.84277 48.9304 8.12305 48.862 8.38281ZM66.9505 3.91211V8.79297H68.8509V9.87305H66.9505V16.1484H65.638V3.91211H66.9505ZM63.7376 5.21094C63.7307 8.73828 62.179 11.8896 58.1458 13.8926L57.4212 12.8945C60.4495 11.3701 62.138 9.16895 62.4114 6.27734H58.0227V5.21094H63.7376ZM79.44 3.91211V16.1621H78.1548V11.0215H75.8033V9.92773H78.1548V8.42383H75.8033V7.33008H78.1548V3.91211H79.44ZM73.5884 7.33008C73.5884 9.25781 74.9146 11.582 76.733 12.5254L75.9673 13.5234C74.6275 12.833 73.5337 11.3633 72.9732 9.70898C72.44 11.5273 71.3462 13.0791 69.9654 13.8242L69.1177 12.8262C70.9566 11.917 72.2759 9.53125 72.2759 7.33008V6.20898H69.5826V5.14258H76.2818V6.20898H73.5884V7.33008ZM86.6112 4.66406C89.243 4.66406 91.1502 5.95605 91.1502 7.91797C91.1502 9.72266 89.5575 10.9531 87.2674 11.1445V13.5508H92.244V14.6309H81.0467V13.5508H85.9686V11.1445C83.7059 10.96 82.0926 9.72949 82.0995 7.91797C82.0926 5.95605 84.0135 4.66406 86.6112 4.66406ZM86.6112 5.70312C84.7381 5.70996 83.3641 6.57129 83.3709 7.91797C83.3641 9.27148 84.7381 10.1328 86.6112 10.1328C88.5116 10.1328 89.8719 9.27148 89.8788 7.91797C89.8719 6.57129 88.5116 5.70996 86.6112 5.70312ZM103.038 3.91211V16.1484H101.739V3.91211H103.038ZM99.3878 5.21094C99.3947 8.80664 97.8771 11.9102 93.673 13.9336L92.9757 12.8945C96.2433 11.3428 97.8156 9.12793 98.0753 6.26367H93.5773V5.21094H99.3878Z" fill="#746757"/>
</svg>
