<svg width="40" height="20" viewBox="0 0 40 20" fill="none" xmlns="http://www.w3.org/2000/svg">
<rect x="0.5" y="0.5" width="39" height="19" rx="3.5" fill="white"/>
<rect x="0.5" y="0.5" width="39" height="19" rx="3.5" stroke="#746757"/>
<path d="M17.4092 6.99447V3.91989H18.7048V10.8619H17.4092V8.06768H14.8712V6.99447H17.4092ZM14.8277 4.6837C14.818 7.79696 12.6861 10.0062 9.13777 11.0069L8.60116 9.99171C11.4389 9.19889 13.1889 7.67127 13.4403 5.73757H9.24895V4.6837H14.8277ZM18.7048 15.9959H10.6944V11.3695H18.7048V15.9959ZM17.4188 12.3992H11.961V14.9565H17.4188V12.3992ZM29.5237 7.04282V3.91989H30.7516V11.326H29.5237V8.12086H28.0927V11.2583H26.8842V4.13743H28.0927V7.04282H29.5237ZM26.4878 9.60497L25.7965 10.6057C24.6701 10.1512 23.8773 9.30041 23.4373 8.27072C22.9829 9.41644 22.1466 10.4026 20.9622 10.9199L20.2564 9.90953C21.9146 9.18923 22.7992 7.60842 22.7992 6.21616V4.64986H24.0561V6.21616C24.0561 7.59876 24.9021 8.97652 26.4878 9.60497ZM29.4705 13.0131H22.427V11.9593H30.7516V16.1602H29.4705V13.0131Z" fill="#746757"/>
</svg>
