<svg width="114" height="20" viewBox="0 0 114 20" fill="none" xmlns="http://www.w3.org/2000/svg">
<rect width="114" height="20" rx="4" fill="#746757"/>
<path d="M17.3427 16.1602V3.91022H18.6479V16.1602H17.3427ZM9.17763 5.22997H15.0077C14.9981 8.81215 13.4753 11.9206 9.26948 13.9268L8.58302 12.8778C11.8413 11.3308 13.4269 9.12155 13.6832 6.2645H9.17763V5.22997ZM26.5083 9.31975V10.5331H31.4537V11.5967H20.2866V10.5331H25.2175V9.31975H21.7466V4.38398H23.0373V5.82942H28.7127V4.38398H30.0035V9.31975H26.5083ZM28.7127 6.83978H23.0373V8.28039H28.7127V6.83978ZM21.6934 12.4765H22.9986V14.8453H30.1968V15.9088H21.6934V12.4765ZM38.734 8.10152V7.03315H41.0206V3.91022H42.3162V11.2003H41.0206V8.10152H38.734ZM35.8576 8.12569C35.321 9.49378 34.2478 10.5912 32.783 11.1278L32.1111 10.0981C34.0061 9.43094 35.1711 7.77762 35.1711 6.08564V5.81492H32.5123V4.75621H39.1256V5.81492H36.4861V6.07597C36.4861 7.62776 37.5931 9.13605 39.4398 9.75967L38.7775 10.7942C37.3997 10.3156 36.3894 9.33425 35.8576 8.12569ZM38.2119 11.5435C40.7789 11.5435 42.35 12.3943 42.3548 13.8543C42.35 15.3094 40.7789 16.1506 38.2119 16.1602C35.6401 16.1506 34.0641 15.3094 34.0738 13.8543C34.0641 12.3943 35.6401 11.5435 38.2119 11.5435ZM38.2119 15.1402C40.0006 15.1499 41.0641 14.6761 41.0689 13.8543C41.0641 13.0228 40.0006 12.549 38.2119 12.549C36.4184 12.549 35.35 13.0228 35.3597 13.8543C35.35 14.6761 36.4184 15.1499 38.2119 15.1402ZM50.1427 11.0552V13.5691H55.1365V14.6423H43.9258V13.5691H48.8568V11.0552H45.2021V4.74655H46.5025V6.85912H52.5163V4.74655H53.807V11.0552H50.1427ZM52.5163 7.90331H46.5025V10.0014H52.5163V7.90331ZM67.4062 10.3301V13.5594H70.094V14.6326H58.8834V13.5594H61.5664V10.3543C60.5561 9.80318 59.9421 8.92334 59.9421 7.82597C59.9421 5.8971 61.8323 4.63052 64.4573 4.62086C67.092 4.63052 68.987 5.8971 68.987 7.82597C68.987 8.90884 68.3924 9.77417 67.4062 10.3301ZM64.4573 5.66989C62.5381 5.66022 61.2038 6.50138 61.2038 7.82597C61.2038 9.13605 62.5381 9.99171 64.4573 9.99171C66.3668 9.99171 67.7204 9.13605 67.7204 7.82597C67.7204 6.50138 66.3668 5.66022 64.4573 5.66989ZM62.8427 10.8329V13.5594H66.0961V10.828C65.5933 10.9441 65.0422 11.0069 64.4573 11.0069C63.8772 11.0069 63.3358 10.9441 62.8427 10.8329ZM82.0635 5.70856V6.76726H80.328V8.32873H82.0635V9.41644H80.328V11.1713H79.0276V3.91022H80.328V5.70856H82.0635ZM77.4081 7.54558C77.3985 9.27624 76.0207 10.4751 74.1498 10.4751C72.2693 10.4751 70.877 9.27624 70.8867 7.54558C70.877 5.82942 72.2693 4.62086 74.1498 4.62569C76.0207 4.62086 77.3985 5.82942 77.4081 7.54558ZM72.1581 7.54558C72.1485 8.65262 72.9993 9.37776 74.1498 9.36809C75.2907 9.37776 76.1367 8.65262 76.1464 7.54558C76.1367 6.45304 75.2956 5.73757 74.1498 5.73757C72.9993 5.73757 72.1485 6.45304 72.1581 7.54558ZM79.0276 12.7762H72.2306V11.7175H80.328V16.1602H79.0276V12.7762ZM88.7395 11.0552V13.5691H93.7333V14.6423H82.5226V13.5691H87.4536V11.0552H83.7989V4.74655H85.0993V6.85912H91.1131V4.74655H92.4038V11.0552H88.7395ZM91.1131 7.90331H85.0993V10.0014H91.1131V7.90331ZM103.218 16.1602V3.91022H104.523V16.1602H103.218ZM95.0529 5.22997H100.883C100.873 8.81215 99.3505 11.9206 95.1447 13.9268L94.4583 12.8778C97.7165 11.3308 99.3022 9.12155 99.5584 6.2645H95.0529V5.22997Z" fill="white"/>
</svg>
