<svg width="40" height="20" viewBox="0 0 40 20" fill="none" xmlns="http://www.w3.org/2000/svg">
<rect x="0.5" y="0.5" width="39" height="19" rx="3.5" fill="white"/>
<rect x="0.5" y="0.5" width="39" height="19" rx="3.5" stroke="#746757"/>
<path d="M17.3947 16.1651V3.91989H18.6709V16.1651H17.3947ZM9.55835 9.99655L9.01208 8.97652C10.8201 8.59461 11.9175 7.50207 11.9175 6.27417V6.26934H9.28763V5.25414H11.9223V3.93923H13.2179V5.25414H15.8477V6.26934H13.2179V6.27417C13.2179 7.43439 14.3153 8.43992 16.0991 8.81215L15.577 9.82735C14.1702 9.51312 13.1309 8.80732 12.5894 7.87914C12.0625 8.89434 11.0086 9.66298 9.55835 9.99655ZM16.5438 10.3881L16.6357 11.3308C15.519 11.5193 14.3636 11.6354 13.2372 11.7079V15.7928H11.9368V11.7756C10.7572 11.8191 9.63569 11.8287 8.64951 11.8287L8.48031 10.7459C10.8008 10.7507 13.8753 10.7314 16.5438 10.3881ZM25.8545 7.54558C25.0423 9.21823 23.2391 10.4606 21.2619 10.8474L20.6915 9.76934C23.0506 9.3826 25.1583 7.56492 25.168 5.61671V4.6982H26.5361V5.61671C26.5361 7.56492 28.668 9.3826 31.0368 9.76934L30.4664 10.8474C28.4843 10.4558 26.6618 9.2279 25.8545 7.54558ZM26.4974 10.625V13.5449H31.5251V14.6036H20.3144V13.5449H25.2212V10.625H26.4974Z" fill="#746757"/>
</svg>
