<svg width="40" height="20" viewBox="0 0 40 20" fill="none" xmlns="http://www.w3.org/2000/svg">
<rect x="0.5" y="0.5" width="39" height="19" rx="3.5" fill="white"/>
<rect x="0.5" y="0.5" width="39" height="19" rx="3.5" stroke="#746757"/>
<path d="M9.62119 10.4461L9.14744 9.4116C11.4727 9.11671 13.3436 7.8163 13.4258 6.43854H9.54868V5.39434H13.4306V3.91022H14.7068V5.39434H18.5984V6.43854H14.7262C14.7987 7.80663 16.6502 9.11671 18.9851 9.4116L18.5114 10.4461C16.5438 10.1754 14.8712 9.25207 14.0784 8C13.2807 9.26657 11.5936 10.1706 9.62119 10.4461ZM8.49481 11.2921H19.6619V12.3653H14.7068V16.1796H13.4306V12.3653H8.49481V11.2921ZM29.8572 8.79282H31.7571V9.88052H29.8572V16.1457H28.5568V3.91022H29.8572V8.79282ZM20.9332 5.2058H26.6521C26.6425 8.73964 25.081 11.9012 21.0444 13.8881L20.3193 12.8826C23.3938 11.3501 25.0568 9.13605 25.3324 6.27901H20.9332V5.2058Z" fill="#746757"/>
</svg>
