<svg width="33" height="18" viewBox="0 0 33 18" fill="none" xmlns="http://www.w3.org/2000/svg">
<rect x="0.5" y="0.5" width="32" height="17" rx="3.5" fill="white"/>
<rect x="0.5" y="0.5" width="32" height="17" rx="3.5" stroke="#26AD9F"/>
<path d="M14.8884 6.20442H16.4091V7.14503H14.8884V9.85497H13.7738V3.49448H14.8884V6.20442ZM9.74614 6.9337C9.29034 8.08149 8.39532 8.97238 7.15636 9.40746L6.58454 8.52072C8.22543 7.96547 9.17432 6.60221 9.18261 5.08149V4.03315H10.2848V5.16436C10.2765 6.54005 11.2461 7.82044 12.8332 8.34668L12.2655 9.22099C11.0804 8.81906 10.2061 7.98619 9.74614 6.9337ZM13.7738 11.2431H7.9478V10.3439H14.8884V13.9945H13.7738V11.2431ZM24.717 13.9945V3.49448H25.7736V13.9945H24.717ZM20.9587 7.21547H22.5955V3.71823H23.6438V13.4641H22.5955V8.11878H20.9587V7.21547ZM19.9311 5.58287V6.42403C19.9311 8.22238 20.6562 10.0166 22.1314 10.866L21.4684 11.6865C20.4615 11.0856 19.7736 10.0166 19.409 8.74862C19.0361 10.1202 18.3234 11.2928 17.2999 11.9309L16.612 11.1064C18.0996 10.203 18.8579 8.29282 18.8579 6.42403V5.58287H16.9352V4.67541H21.7419V5.58287H19.9311Z" fill="#26AD9F"/>
</svg>
