<svg width="88" height="20" viewBox="0 0 88 20" fill="none" xmlns="http://www.w3.org/2000/svg">
<rect x="0.5" y="0.5" width="87" height="19" rx="3.5" fill="white"/>
<rect x="0.5" y="0.5" width="87" height="19" rx="3.5" stroke="#746757"/>
<path d="M18.4806 7.07182H20.2548V8.1692H18.4806V11.3308H17.1802V3.91022H18.4806V7.07182ZM12.4813 7.92265C11.9495 9.26174 10.9053 10.3011 9.45987 10.8087L8.79275 9.77417C10.7071 9.12638 11.8142 7.53591 11.8238 5.76174V4.53867H13.1097V5.85842C13.1001 7.4634 14.2313 8.95718 16.0828 9.57113L15.4205 10.5912C14.0379 10.1222 13.0179 9.15055 12.4813 7.92265ZM17.1802 12.9503H10.3832V11.9012H18.4806V16.1602H17.1802V12.9503ZM29.9473 16.1602V3.91022H31.18V16.1602H29.9473ZM25.5626 8.25138H27.4722V4.17127H28.6952V15.5414H27.4722V9.30525H25.5626V8.25138ZM24.3637 6.34668V7.32804C24.3637 9.4261 25.2097 11.5193 26.9307 12.5104L26.1572 13.4675C24.9825 12.7666 24.18 11.5193 23.7546 10.0401C23.3195 11.6402 22.488 13.0083 21.294 13.7528L20.4915 12.7907C22.227 11.7369 23.1117 9.50829 23.1117 7.32804V6.34668H20.8686V5.28798H26.4763V6.34668H24.3637ZM36.807 5.15262H39.7994V6.18715H32.5093V5.15262H35.5162V3.85221H36.807V5.15262ZM42.1198 7.23619H43.894V8.30939H42.1198V11.5725H40.8194V3.91022H42.1198V7.23619ZM39.1274 8.97652C39.1226 10.3156 37.9237 11.1954 36.1592 11.1954C34.385 11.1954 33.1716 10.3156 33.1764 8.97652C33.1716 7.6326 34.385 6.7576 36.1592 6.74793C37.9237 6.7576 39.1226 7.6326 39.1274 8.97652ZM34.4285 8.97652C34.4188 9.73066 35.115 10.1851 36.1592 10.1851C37.1937 10.1851 37.8898 9.73066 37.8995 8.97652C37.8898 8.21754 37.1937 7.74862 36.1592 7.73895C35.115 7.74862 34.4188 8.21754 34.4285 8.97652ZM40.8194 13.25H34.0224V12.1961H42.1198V16.1602H40.8194V13.25ZM53.5237 8.17887H52.0927V11.0698H50.8842V4.1471H52.0927V7.1105H53.5237V3.91989H54.7516V11.4613H53.5237V8.17887ZM50.5071 9.5518L49.8158 10.5525C48.6798 10.1174 47.8821 9.28108 47.4422 8.27555C46.9926 9.4116 46.1563 10.4026 44.967 10.9102L44.2612 9.9047C45.9146 9.17956 46.7992 7.62776 46.7992 6.2645V4.67403H48.0561V6.2645C48.0561 7.60359 48.9118 8.95718 50.5071 9.5518ZM50.6618 11.6982C53.2094 11.6982 54.8193 12.52 54.8193 13.922C54.8193 15.3142 53.2094 16.1409 50.6618 16.1409C48.0948 16.1409 46.4947 15.3142 46.5043 13.922C46.4947 12.52 48.0948 11.6982 50.6618 11.6982ZM50.6618 15.1402C52.4311 15.1499 53.5188 14.7003 53.5237 13.922C53.5188 13.1388 52.4311 12.6844 50.6618 12.6844C48.8731 12.6844 47.7854 13.1388 47.7951 13.922C47.7854 14.7003 48.8731 15.1499 50.6618 15.1402ZM62.3557 8.83633V10.1561H67.3012V11.2148H56.134V10.1561H61.065V8.83633H57.594V4.20028H58.8847V5.52003H64.5601V4.20028H65.8509V8.83633H62.3557ZM64.5601 6.49655H58.8847V7.79213H64.5601V6.49655ZM64.623 13.3419H57.3716V12.3025H65.9282V16.1602H64.623V13.3419ZM74.3735 12.0366V11.1181H76.839V3.91989H78.1442V13.2113H76.839V12.0366H74.3735ZM71.9032 8.68163C70.0855 8.68163 68.848 7.85497 68.848 6.54489C68.848 5.25414 70.0855 4.38881 71.9032 4.38881C73.6919 4.38881 74.9343 5.25414 74.944 6.54489C74.9343 7.85497 73.6919 8.68163 71.9032 8.68163ZM71.9032 5.35566C70.8155 5.35083 70.0759 5.81975 70.0807 6.54489C70.0759 7.27486 70.8155 7.72928 71.9032 7.72928C72.9474 7.72928 73.6967 7.27486 73.7064 6.54489C73.6967 5.81975 72.9474 5.35083 71.9032 5.35566ZM72.6767 12.8294H71.3811V10.509C70.1919 10.5525 69.051 10.5622 68.0552 10.5573L67.8908 9.51312C70.1581 9.49862 73.2133 9.47445 75.8238 9.14572L75.9108 10.0836C74.857 10.2576 73.7596 10.3688 72.6767 10.4365V12.8294ZM70.8832 12.3025V14.8453H78.4343V15.9088H69.5876V12.3025H70.8832Z" fill="#746757"/>
</svg>
