<svg width="84" height="20" viewBox="0 0 84 20" fill="none" xmlns="http://www.w3.org/2000/svg">
<rect width="84" height="20" rx="4" fill="#746757"/>
<path d="M13.1277 4.97852C13.1277 6.5918 15.117 8.12988 17.5027 8.47852L16.9832 9.53125C14.9939 9.20312 13.2439 8.15723 12.4578 6.71484C11.658 8.16406 9.90801 9.20312 7.90508 9.53125L7.37188 8.47852C9.78496 8.12988 11.7537 6.62598 11.7605 4.97852V4.32227H13.1277V4.97852ZM18.0223 10.7344V11.8145H13.0457V16.1621H11.7605V11.8145H6.85234V10.7344H18.0223ZM28.297 3.92578V6.57812H30.0743V7.6582H28.297V10.3242H26.9845V3.92578H28.297ZM20.545 4.45898V8.71094C22.172 8.69043 23.9356 8.57422 25.8087 8.19141L25.9591 9.25781C23.9083 9.6748 22.0352 9.80469 20.2305 9.80469H19.2325V4.45898H20.545ZM21.7071 10.9258V12.4297H26.9981V10.9258H28.2833V15.998H20.4083V10.9258H21.7071ZM21.7071 14.9453H26.9981V13.4824H21.7071V14.9453ZM40.1029 3.91211V7.23438H41.8802V8.31445H40.1029V11.7598H38.8041V3.91211H40.1029ZM36.1927 11.8691C38.7015 11.8691 40.2464 12.6621 40.2396 14.0156C40.2464 15.3486 38.7015 16.1416 36.1927 16.1348C33.6908 16.1416 32.1322 15.3486 32.1322 14.0156C32.1322 12.6621 33.6908 11.8691 36.1927 11.8691ZM36.1927 12.8809C34.4564 12.874 33.431 13.2773 33.431 14.0156C33.431 14.7334 34.4496 15.1436 36.1927 15.1367C37.9427 15.1436 38.9613 14.7334 38.9545 14.0156C38.9613 13.2773 37.9359 12.874 36.1927 12.8809ZM37.7923 5.22461V6.26367H30.5189V5.22461H33.4994V3.81641H34.8119V5.22461H37.7923ZM34.1556 6.82422C35.9261 6.82422 37.1361 7.68555 37.1361 8.98438C37.1361 10.3105 35.9193 11.1582 34.1556 11.1582C32.3783 11.1582 31.1752 10.3105 31.1752 8.98438C31.1752 7.68555 32.3714 6.82422 34.1556 6.82422ZM34.1556 7.79492C33.1166 7.80176 32.4125 8.25293 32.4193 8.98438C32.4125 9.72949 33.1166 10.1807 34.1556 10.1738C35.181 10.1807 35.8851 9.72949 35.892 8.98438C35.8851 8.25293 35.181 7.80176 34.1556 7.79492ZM52.0455 4.41797V8.62891H48.5319V10.0508H53.4674V11.1035H42.2975V10.0508H47.233V8.62891H43.7194V4.41797H52.0455ZM45.0045 5.45703V7.57617H50.7604V5.45703H45.0045ZM52.1002 12.252V16.1621H50.7877V13.291H43.5416V12.252H52.1002ZM60.9394 4.8418V5.52539C60.9394 6.3457 60.9394 7.5625 60.6386 9.14844L59.3534 9.01172C59.6132 7.66504 59.6542 6.67383 59.6542 5.9082H54.7597V4.8418H60.9394ZM57.8222 7.61719V10.1191C59.1347 10.0713 60.495 9.97559 61.7187 9.80469L61.8007 10.748C59.2509 11.1924 56.2909 11.2539 54.1445 11.2676L54.0214 10.1875C54.7665 10.1875 55.6279 10.1875 56.537 10.1602V7.61719H57.8222ZM63.7968 3.91211V7.82227H65.4921V8.90234H63.7968V13.1133H62.498V3.91211H63.7968ZM64.207 14.8359V15.9023H55.8808V12.2793H57.1796V14.8359H64.207ZM76.1223 3.91211V16.1758H74.8098V3.91211H76.1223ZM72.3625 5.01953V9.50391H67.9602V12.1699C69.9426 12.1562 71.6994 12.0742 73.7297 11.7461L73.8664 12.7988C71.6994 13.1611 69.8674 13.25 67.6867 13.25H66.6477V8.45117H71.0363V6.08594H66.6203V5.01953H72.3625Z" fill="white"/>
</svg>
