<svg width="60" height="20" viewBox="0 0 60 20" fill="none" xmlns="http://www.w3.org/2000/svg">
<rect x="0.5" y="0.5" width="59" height="19" rx="3.5" fill="white"/>
<rect x="0.5" y="0.5" width="59" height="19" rx="3.5" stroke="#1C90FF"/>
<path d="M13.5763 5.18359V6.23633H6.68563V5.18359H9.54305V3.80273H10.8419V5.18359H13.5763ZM10.1856 6.79688C11.8468 6.79688 13.002 7.71973 13.002 9.08008C13.002 10.4336 11.8468 11.3564 10.1856 11.3496C8.51766 11.3564 7.35555 10.4336 7.35555 9.08008C7.35555 7.71973 8.51766 6.79688 10.1856 6.79688ZM10.1856 7.79492C9.22176 7.80176 8.57918 8.29395 8.58602 9.08008C8.57918 9.86621 9.22176 10.3584 10.1856 10.3652C11.129 10.3584 11.7921 9.86621 11.7852 9.08008C11.7921 8.29395 11.129 7.80176 10.1856 7.79492ZM16.8848 3.91211V11.7871H15.5587V10.2422H13.6036V9.17578H15.5587V7.83594H13.6173V6.7832H15.5587V3.91211H16.8848ZM12.797 11.9238C15.3673 11.9238 16.9327 12.7031 16.9395 14.043C16.9327 15.3623 15.3673 16.1416 12.797 16.1348C10.2198 16.1416 8.64754 15.3623 8.6407 14.043C8.64754 12.7031 10.2198 11.9238 12.797 11.9238ZM12.797 12.9492C11.0538 12.9424 10.0011 13.3115 10.0079 14.043C10.0011 14.7402 11.0538 15.1367 12.797 15.1367C14.5333 15.1367 15.5723 14.7402 15.5723 14.043C15.5723 13.3115 14.5264 12.9424 12.797 12.9492ZM29.0052 3.91211V16.1484H27.7474V3.91211H29.0052ZM26.5033 4.17188V15.5469H25.2728V9.32617H23.3724V8.24609H25.2728V4.17188H26.5033ZM22.183 7.30273C22.183 9.41504 23.0306 11.5137 24.7533 12.5117L23.974 13.4688C22.7982 12.7715 21.9984 11.5205 21.5677 10.0371C21.1302 11.6436 20.3031 13.0039 19.1068 13.7559L18.3138 12.7988C20.0502 11.7324 20.9252 9.49707 20.9252 7.30273V6.3457H18.683V5.2793H24.2884V6.3457H22.183V7.30273ZM34.6041 6.44141C34.611 7.82227 35.7184 9.1416 37.5709 9.6543L36.983 10.666C35.568 10.2627 34.5289 9.4082 33.9752 8.31445C33.4352 9.52441 32.3551 10.4609 30.8991 10.8984L30.2838 9.87305C32.1569 9.33301 33.3053 7.95215 33.3053 6.44141V6.30469H30.653V5.25195H33.3053V3.87109H34.6178V5.25195H37.2565V6.30469H34.6041V6.44141ZM39.9225 3.91211V6.85156H41.6998V7.93164H39.9225V10.9805H38.6237V3.91211H39.9225ZM40.1276 11.5957V12.6621H36.778C37.0377 13.7969 38.5895 14.8154 40.6198 15.123L40.1276 16.1211C38.2819 15.8408 36.7643 14.9795 36.067 13.8105C35.3561 14.9795 33.8317 15.8135 31.9791 16.1074L31.487 15.1094C33.5446 14.8154 35.0827 13.8174 35.3424 12.6621H31.9791V11.5957H40.1276ZM52.3027 3.91211V16.1484H51.0038V3.91211H52.3027ZM48.6523 5.21094C48.6591 8.80664 47.1415 11.9102 42.9374 13.9336L42.2402 12.8945C45.5077 11.3428 47.08 9.12793 47.3398 6.26367H42.8417V5.21094H48.6523Z" fill="#1C90FF"/>
</svg>
