<svg width="53" height="20" viewBox="0 0 53 20" fill="none" xmlns="http://www.w3.org/2000/svg">
<rect width="53" height="20" rx="4" fill="#FFEBE6"/>
<path d="M10.4875 15.1914C9.03828 15.1914 7.88301 14.6104 6.97383 13.4141L8.08125 12.5117C8.77851 13.4072 9.50312 13.79 10.4875 13.7832C11.7248 13.79 12.4836 13.1816 12.4836 12.1973C12.4836 11.3975 11.9846 10.9736 10.5422 10.5703L10.0637 10.4336C8.19746 9.93457 7.3293 9.08008 7.3293 7.75391C7.3293 6.12012 8.68281 4.91016 10.5559 4.91016C11.8684 4.91016 13.0783 5.5459 13.8645 6.63281L12.7434 7.50781C12.1623 6.72168 11.4104 6.31152 10.5559 6.31836C9.53047 6.31152 8.8332 6.89941 8.8332 7.75391C8.8332 8.41699 9.25019 8.76562 10.4465 9.08008L10.925 9.2168C13.051 9.80469 13.9807 10.7002 13.9875 12.1836C13.9807 13.9814 12.5725 15.1914 10.4875 15.1914ZM14.4288 9.09375V7.94531H15.6183V6.19531H17.0402V7.94531H18.7491V9.09375H17.0402V12.7578C17.0333 13.4961 17.3409 13.8311 18.0382 13.8242C18.2501 13.8311 18.4962 13.79 18.7491 13.7148V15.0273C18.4962 15.123 18.1681 15.1914 17.7921 15.1914C16.4318 15.1914 15.6183 14.3027 15.6183 12.8262V9.09375H14.4288ZM23.087 15.1914C20.9131 15.1914 19.3545 13.5986 19.3545 11.4727C19.3545 9.33301 20.8926 7.75391 22.9502 7.75391C25.0079 7.75391 26.4366 9.33301 26.4366 11.4727C26.4366 11.6299 26.4297 11.7939 26.4092 11.9512H20.8037C20.9746 13.1543 21.8838 13.9336 23.1006 13.9336C23.9961 13.9336 24.6319 13.5166 24.96 12.8262L26.2041 13.332C25.6436 14.4668 24.5567 15.1914 23.087 15.1914ZM20.8584 10.707H24.9463C24.8506 9.75 24.0645 9.01172 22.9502 9.01172C21.8907 9.01172 21.0977 9.6748 20.8584 10.707ZM27.4658 17.9531V7.94531H28.874V8.99805H28.9287C29.3935 8.17773 30.1523 7.75391 31.1572 7.75391C33.1054 7.75391 34.5 9.35352 34.4931 11.4727C34.5 13.5918 33.1054 15.1914 31.1572 15.1914C30.1523 15.1914 29.3867 14.7607 28.9287 13.9336H28.874V17.9531H27.4658ZM30.9384 13.8652C32.1894 13.8721 33.0644 12.874 33.0576 11.4727C33.0644 10.0713 32.1894 9.07324 30.9384 9.08008C29.7011 9.07324 28.8193 10.0645 28.8193 11.4727C28.8193 12.8809 29.7011 13.8721 30.9384 13.8652ZM38.3426 12.8535V11.5L42.0613 5.10156H43.6883L40.0379 11.4043V11.5H43.1824V8.60156H44.618V11.5H46.1219V12.8535H44.618V15H43.1824V12.8535H38.3426Z" fill="#FF5630"/>
</svg>
