<svg width="52" height="20" viewBox="0 0 52 20" fill="none" xmlns="http://www.w3.org/2000/svg">
<rect width="52" height="20" rx="4" fill="#FFEBE6"/>
<path d="M10.1516 15.1914C8.70234 15.1914 7.54707 14.6104 6.63789 13.4141L7.74531 12.5117C8.44258 13.4072 9.16719 13.79 10.1516 13.7832C11.3889 13.79 12.1477 13.1816 12.1477 12.1973C12.1477 11.3975 11.6486 10.9736 10.2062 10.5703L9.72773 10.4336C7.86152 9.93457 6.99336 9.08008 6.99336 7.75391C6.99336 6.12012 8.34687 4.91016 10.2199 4.91016C11.5324 4.91016 12.7424 5.5459 13.5285 6.63281L12.4074 7.50781C11.8264 6.72168 11.0744 6.31152 10.2199 6.31836C9.19453 6.31152 8.49726 6.89941 8.49726 7.75391C8.49726 8.41699 8.91426 8.76562 10.1105 9.08008L10.5891 9.2168C12.715 9.80469 13.6447 10.7002 13.6516 12.1836C13.6447 13.9814 12.2365 15.1914 10.1516 15.1914ZM14.0929 9.09375V7.94531H15.2823V6.19531H16.7042V7.94531H18.4132V9.09375H16.7042V12.7578C16.6974 13.4961 17.005 13.8311 17.7023 13.8242C17.9142 13.8311 18.1603 13.79 18.4132 13.7148V15.0273C18.1603 15.123 17.8321 15.1914 17.4562 15.1914C16.0958 15.1914 15.2823 14.3027 15.2823 12.8262V9.09375H14.0929ZM22.751 15.1914C20.5772 15.1914 19.0186 13.5986 19.0186 11.4727C19.0186 9.33301 20.5567 7.75391 22.6143 7.75391C24.6719 7.75391 26.1006 9.33301 26.1006 11.4727C26.1006 11.6299 26.0938 11.7939 26.0733 11.9512H20.4678C20.6387 13.1543 21.5479 13.9336 22.7647 13.9336C23.6602 13.9336 24.2959 13.5166 24.6241 12.8262L25.8682 13.332C25.3077 14.4668 24.2207 15.1914 22.751 15.1914ZM20.5225 10.707H24.6104C24.5147 9.75 23.7286 9.01172 22.6143 9.01172C21.5547 9.01172 20.7618 9.6748 20.5225 10.707ZM27.1298 17.9531V7.94531H28.538V8.99805H28.5927C29.0576 8.17773 29.8164 7.75391 30.8212 7.75391C32.7695 7.75391 34.164 9.35352 34.1572 11.4727C34.164 13.5918 32.7695 15.1914 30.8212 15.1914C29.8164 15.1914 29.0507 14.7607 28.5927 13.9336H28.538V17.9531H27.1298ZM30.6025 13.8652C31.8535 13.8721 32.7285 12.874 32.7216 11.4727C32.7285 10.0713 31.8535 9.07324 30.6025 9.08008C29.3652 9.07324 28.4834 10.0645 28.4834 11.4727C28.4834 12.8809 29.3652 13.8721 30.6025 13.8652ZM38.3484 10.8574L38.8816 5.08789H44.6375V6.42773H40.2078L39.8934 9.55859H39.948C40.4881 8.91602 41.2742 8.5332 42.1629 8.5332C43.8377 8.5332 45.2869 9.89355 45.2937 11.8281C45.2869 13.8037 43.7967 15.1914 41.698 15.1914C40.0506 15.1914 38.7176 14.3369 38.0203 12.8398L39.3602 12.293C39.8387 13.3389 40.6385 13.8652 41.6844 13.8652C42.9695 13.8652 43.824 13.0518 43.8309 11.8418C43.824 10.6318 42.9695 9.81836 41.698 9.81836C40.8094 9.81836 40.1258 10.208 39.7977 10.8574H38.3484Z" fill="#FF5630"/>
</svg>
