<svg width="36" height="20" viewBox="0 0 36 20" fill="none" xmlns="http://www.w3.org/2000/svg">
<rect width="36" height="20" rx="4" fill="#FFEBE6"/>
<path d="M15.3705 3.91022H16.6709V10.2479H15.3705V3.91022ZM14.2345 8.47376L14.2925 9.41644C11.8512 9.78867 8.99895 9.87569 6.84771 9.87086L6.69785 8.82666C7.16677 8.82666 7.6647 8.82182 8.1868 8.81215V5.73757H7.03141V4.72237H13.6785V5.73757H12.5086V8.63812C13.1032 8.59461 13.6833 8.54144 14.2345 8.47376ZM11.2614 5.73757H9.43404V8.78798C10.0335 8.76865 10.6474 8.74931 11.2614 8.71547V5.73757ZM9.85945 13.8398V15H17.0963V16.0442H8.57837V12.8923H15.385V11.8239H8.54453V10.8087H16.6709V13.8398H9.85945ZM23.9077 6.72376C23.11 8.17403 21.3552 9.20856 19.3635 9.52762L18.8414 8.46892C21.244 8.14503 23.226 6.63674 23.226 4.98826V4.32113H24.5796V4.98826C24.5796 6.6174 26.5665 8.14503 28.9788 8.46892L28.4615 9.52762C26.4601 9.20856 24.7053 8.16436 23.9077 6.72376ZM18.3144 10.7314H29.4815V11.8046H24.5071V16.1602H23.2309V11.8046H18.3144V10.7314Z" fill="#FF5630"/>
</svg>
