<svg width="36" height="20" viewBox="0 0 36 20" fill="none" xmlns="http://www.w3.org/2000/svg">
<rect width="36" height="20" rx="4" fill="#E3FCEF"/>
<path d="M10.8119 6.14062C10.8187 7.80859 11.9193 9.4082 13.7513 10.0781L13.0541 11.0762C11.7074 10.5635 10.7162 9.55176 10.1966 8.28711C9.66344 9.69531 8.6107 10.8096 7.16148 11.377L6.47789 10.3379C8.37145 9.6543 9.51305 7.93848 9.51305 6.11328V4.65039H10.8119V6.14062ZM16.7045 3.92578V13.0449H15.3783V7.78125H12.808V6.71484H15.3783V3.92578H16.7045ZM16.9779 14.8359V15.9023H8.69273V12.0605H9.99156V14.8359H16.9779ZM23.6022 4.78711V5.83984H20.0612V7.20703H23.4655V8.21875H20.0612V9.69531C21.7291 9.68848 22.775 9.62012 24.026 9.39453L24.1491 10.4473C22.734 10.7139 21.5104 10.7617 19.61 10.7617H18.8034V4.78711H23.6022ZM28.7565 3.92578V11.3496H27.5123V8.10938H26.0358V11.2812H24.8053V4.14453H26.0358V7.04297H27.5123V3.92578H28.7565ZM28.7565 11.9648V16.1621H27.4577V13.0312H20.403V11.9648H28.7565Z" fill="#00875A"/>
</svg>
