<svg width="99" height="20" viewBox="0 0 99 20" fill="none" xmlns="http://www.w3.org/2000/svg">
<rect width="99" height="20" rx="4" fill="#EAE6FF"/>
<path d="M16.4575 3.91211V6.46875H18.2349V7.53516H16.4575V10.1055H15.1587V3.91211H16.4575ZM16.4575 10.666V13.7695H9.85402V14.959H16.895V15.998H8.56887V12.7852H15.1861V11.6914H8.52785V10.666H16.4575ZM10.2505 4.32227C12.1099 4.3291 13.4634 5.45703 13.4634 7.05664C13.4634 8.67676 12.1099 9.80469 10.2505 9.80469C8.39113 9.80469 7.03078 8.67676 7.02394 7.05664C7.03078 5.45703 8.39113 4.3291 10.2505 4.32227ZM10.2505 5.38867C9.12941 5.38867 8.29543 6.07227 8.29543 7.05664C8.29543 8.06152 9.12941 8.75195 10.2505 8.75195C11.3784 8.75195 12.1987 8.06152 12.2056 7.05664C12.1987 6.07227 11.3784 5.38867 10.2505 5.38867ZM21.9471 4.82812C23.7791 4.82812 25.0984 6.50293 25.0916 9.12109C25.0984 11.7461 23.7791 13.4277 21.9471 13.4277C20.1219 13.4277 18.8094 11.7461 18.8025 9.12109C18.8094 6.50293 20.1219 4.82812 21.9471 4.82812ZM21.9471 6.00391C20.826 6.00391 20.0604 7.2002 20.0604 9.12109C20.0604 11.0625 20.826 12.2588 21.9471 12.252C23.075 12.2588 23.8406 11.0625 23.8475 9.12109C23.8406 7.2002 23.075 6.00391 21.9471 6.00391ZM28.2088 3.91211V8.72461H30.1639V9.81836H28.2088V16.1621H26.8963V3.91211H28.2088ZM40.3018 8.39648V9.46289H31.9757V4.60938H40.1378V5.66211H33.3155V8.39648H40.3018ZM41.669 10.9395V12.0059H36.6788V16.1211H35.3936V12.0059H30.4718V10.9395H41.669ZM48.5394 4.95117V6.00391H51.1918V3.92578H52.5179V12.8535H51.1918V9.69531H48.5394V10.7617H42.8519V4.95117H48.5394ZM44.1234 6.00391V9.72266H47.2679V6.00391H44.1234ZM52.7914 14.8359V15.9023H44.5062V12.0469H45.805V14.8359H52.7914ZM48.5394 8.61523H51.1918V7.05664H48.5394V8.61523ZM63.5243 7.54883V8.90234H68.5009V9.94141H57.3036V8.90234H62.2392V7.54883H63.5243ZM67.4755 4.26758V5.2793H63.7841C64.0097 6.3252 65.7255 7.14551 67.9267 7.28906L67.5165 8.28711C65.3495 8.10254 63.5585 7.30957 62.9091 6.09961C62.246 7.31641 60.4618 8.10254 58.288 8.28711L57.8642 7.28906C60.0517 7.14551 61.7812 6.31836 62.0068 5.2793H58.329V4.26758H67.4755ZM67.4482 11.4453V12.457H58.3427V11.4453H62.2392V10.3926H63.538V11.4453H67.4482ZM62.8818 12.9902C65.2675 12.9902 66.6142 13.5439 66.6142 14.6035C66.6142 15.6631 65.2607 16.2168 62.8818 16.2168C60.5097 16.2168 59.163 15.6631 59.163 14.6035C59.163 13.5439 60.5028 12.9902 62.8818 12.9902ZM62.8818 13.8789C61.3437 13.8721 60.5028 14.1113 60.5028 14.6035C60.5028 15.0889 61.3573 15.3281 62.8818 15.3281C64.4198 15.3281 65.2743 15.0889 65.2743 14.6035C65.2743 14.1113 64.4335 13.8721 62.8818 13.8789ZM72.4182 4.82812C74.2502 4.82812 75.5695 6.50293 75.5627 9.12109C75.5695 11.7461 74.2502 13.4277 72.4182 13.4277C70.593 13.4277 69.2805 11.7461 69.2736 9.12109C69.2805 6.50293 70.593 4.82812 72.4182 4.82812ZM72.4182 6.00391C71.2971 6.00391 70.5314 7.2002 70.5314 9.12109C70.5314 11.0625 71.2971 12.2588 72.4182 12.252C73.5461 12.2588 74.3117 11.0625 74.3186 9.12109C74.3117 7.2002 73.5461 6.00391 72.4182 6.00391ZM78.6799 3.91211V8.72461H80.635V9.81836H78.6799V16.1621H77.3674V3.91211H78.6799ZM92.1538 13.5508V14.6309H80.9565V13.5508H83.6225V10.3516C82.6177 9.79785 82.0024 8.91602 82.0093 7.82227C82.0024 5.8877 83.9097 4.63672 86.521 4.63672C89.1665 4.63672 91.06 5.8877 91.06 7.82227C91.06 8.90918 90.4585 9.78418 89.4604 10.3379V13.5508H92.1538ZM86.521 5.66211C84.6274 5.66211 83.2739 6.50293 83.2807 7.82227C83.2739 9.1416 84.6274 9.98242 86.521 9.98242C88.4419 9.98242 89.7817 9.1416 89.7886 7.82227C89.7817 6.50293 88.4419 5.66211 86.521 5.66211ZM84.9214 13.5508H88.1616V10.8301C87.6626 10.9463 87.1089 11.0078 86.521 11.0078C85.9468 11.0078 85.4136 10.9463 84.9214 10.8301V13.5508Z" fill="#6554C0"/>
</svg>
