<svg width="81" height="24" viewBox="0 0 81 24" fill="none" xmlns="http://www.w3.org/2000/svg">
<rect width="81" height="24" rx="4" fill="#EAE6FF"/>
<path d="M18.2768 12.4643L14.3393 16.4018C14.216 16.5251 14.0488 16.5943 13.8745 16.5943C13.7001 16.5943 13.5329 16.5251 13.4096 16.4018C13.2863 16.2785 13.2171 16.1113 13.2171 15.937C13.2171 15.7626 13.2863 15.5954 13.4096 15.4721L16.2266 12.6563H8.1875C8.01345 12.6563 7.84653 12.5871 7.72346 12.464C7.60039 12.341 7.53125 12.1741 7.53125 12C7.53125 11.826 7.60039 11.659 7.72346 11.536C7.84653 11.4129 8.01345 11.3438 8.1875 11.3438H16.2266L13.4107 8.52625C13.2874 8.40297 13.2182 8.23576 13.2182 8.06141C13.2182 7.88706 13.2874 7.71985 13.4107 7.59657C13.534 7.47328 13.7012 7.40402 13.8755 7.40402C14.0499 7.40402 14.2171 7.47328 14.3404 7.59657L18.2779 11.5341C18.3391 11.5951 18.3876 11.6677 18.4207 11.7475C18.4538 11.8274 18.4707 11.913 18.4706 11.9994C18.4705 12.0858 18.4534 12.1714 18.4201 12.2512C18.3868 12.331 18.3381 12.4034 18.2768 12.4643Z" fill="#6554C0"/>
<path d="M28.8959 8.14062C28.9028 9.80859 30.0034 11.4082 31.8354 12.0781L31.1381 13.0762C29.7914 12.5635 28.8002 11.5518 28.2807 10.2871C27.7475 11.6953 26.6948 12.8096 25.2455 13.377L24.562 12.3379C26.4555 11.6543 27.5971 9.93848 27.5971 8.11328V6.65039H28.8959V8.14062ZM34.7885 5.92578V15.0449H33.4623V9.78125H30.892V8.71484H33.4623V5.92578H34.7885ZM35.062 16.8359V17.9023H26.7768V14.0605H28.0756V16.8359H35.062ZM46.8405 5.91211V13.6367H45.5964V10.2188H44.2019V13.2129H42.9714V6.14453H44.2019V9.15234H45.5964V5.91211H46.8405ZM42.5202 7.30664V8.3457H36.3269V7.30664H38.7878V6.02148H40.073V7.30664H42.5202ZM39.4304 8.90625C40.9821 8.89941 42.0759 9.74707 42.0827 11.0117C42.0759 12.2832 40.9821 13.1172 39.4304 13.1172C37.8923 13.1172 36.7917 12.2832 36.7917 11.0117C36.7917 9.74707 37.8923 8.89941 39.4304 8.90625ZM39.4304 9.86328C38.5622 9.85645 37.9607 10.3076 37.9675 11.0117C37.9607 11.7227 38.5622 12.1602 39.4304 12.1602C40.3054 12.1602 40.907 11.7227 40.907 11.0117C40.907 10.3076 40.3122 9.85645 39.4304 9.86328ZM42.739 13.8281C45.3366 13.8281 46.9021 14.6006 46.9089 15.9883C46.9021 17.3555 45.3366 18.1416 42.739 18.1348C40.1413 18.1416 38.5827 17.3555 38.5827 15.9883C38.5827 14.6006 40.1482 13.8281 42.739 13.8281ZM42.739 14.8262C40.9275 14.8193 39.8747 15.2295 39.8679 15.9883C39.8747 16.7334 40.9206 17.1504 42.739 17.1504C44.5642 17.1504 45.6032 16.7334 45.5964 15.9883C45.6032 15.2295 44.5505 14.8193 42.739 14.8262ZM61.5794 5.91211V18.1484H60.2805V5.91211H61.5794ZM57.929 7.21094C57.9358 10.8066 56.4182 13.9102 52.2141 15.9336L51.5169 14.8945C54.7845 13.3428 56.3567 11.1279 56.6165 8.26367H52.1184V7.21094H57.929ZM73.1255 9.20703V10.2734H64.7173V6.14453H66.0162V9.20703H73.1255ZM74.397 11.5723V12.6387H63.2271V11.5723H74.397ZM68.7916 13.6367C71.4371 13.6299 73.0367 14.4502 73.0298 15.8789C73.0367 17.2939 71.4371 18.1211 68.7916 18.1211C66.1461 18.1211 64.5396 17.2939 64.5396 15.8789C64.5396 14.4502 66.1461 13.6299 68.7916 13.6367ZM68.7916 14.6484C66.9322 14.6553 65.8589 15.0859 65.8658 15.8789C65.8589 16.665 66.939 17.0957 68.7916 17.0957C70.6373 17.0957 71.7173 16.665 71.7173 15.8789C71.7173 15.0859 70.6509 14.6553 68.7916 14.6484Z" fill="#6554C0"/>
</svg>
