<svg width="81" height="24" viewBox="0 0 81 24" fill="none" xmlns="http://www.w3.org/2000/svg">
<rect width="81" height="24" rx="4" fill="#E3FCEF"/>
<path d="M16.9643 15.9643C16.9033 16.0255 16.8309 16.074 16.7511 16.1071C16.6713 16.1403 16.5858 16.1573 16.4995 16.1573C16.4131 16.1573 16.3276 16.1403 16.2478 16.1071C16.168 16.074 16.0956 16.0255 16.0346 15.9643L10.1563 10.0859V14.1875C10.1563 14.3615 10.0871 14.5285 9.96404 14.6515C9.84097 14.7746 9.67405 14.8437 9.5 14.8437C9.32595 14.8437 9.15903 14.7746 9.03596 14.6515C8.91289 14.5285 8.84375 14.3615 8.84375 14.1875V8.5C8.84375 8.32595 8.91289 8.15903 9.03596 8.03596C9.15903 7.91289 9.32595 7.84375 9.5 7.84375H15.1875C15.3615 7.84375 15.5285 7.91289 15.6515 8.03596C15.7746 8.15903 15.8438 8.32595 15.8438 8.5C15.8438 8.67405 15.7746 8.84097 15.6515 8.96404C15.5285 9.08711 15.3615 9.15625 15.1875 9.15625H11.0859L16.9643 15.0357C17.0253 15.0967 17.0737 15.169 17.1067 15.2487C17.1398 15.3284 17.1568 15.4138 17.1568 15.5C17.1568 15.5862 17.1398 15.6716 17.1067 15.7513C17.0737 15.831 17.0253 15.9033 16.9643 15.9643Z" fill="#00875A"/>
<path d="M28.8002 7.86719C28.8071 9.4668 29.9213 10.957 31.7397 11.5723L31.0561 12.584C29.7094 12.1123 28.7114 11.1553 28.185 9.94531C27.645 11.3193 26.5991 12.3994 25.1635 12.9395L24.4662 11.9004C26.394 11.2168 27.4946 9.56934 27.4877 7.77148V6.55469H28.8002V7.86719ZM34.187 5.91211V8.97461H35.9643V10.0684H34.187V13.2812H32.8881V5.91211H34.187ZM30.2358 13.5957C32.7651 13.5957 34.3168 14.4365 34.3237 15.8789C34.3168 17.3008 32.7651 18.1416 30.2358 18.1348C27.6928 18.1416 26.1342 17.3008 26.1342 15.8789C26.1342 14.4365 27.6996 13.5957 30.2358 13.5957ZM30.2358 14.6348C28.4721 14.6279 27.4262 15.0654 27.4194 15.8789C27.4262 16.6719 28.4653 17.1094 30.2358 17.1094C31.9995 17.1094 33.0385 16.6719 33.0385 15.8789C33.0385 15.0654 31.9926 14.6279 30.2358 14.6348ZM40.4148 6.45898C42.2673 6.45898 43.6003 7.49805 43.6003 9.01562C43.6003 10.5059 42.2673 11.5586 40.4148 11.5586C38.5759 11.5586 37.2566 10.5059 37.2566 9.01562C37.2566 7.49805 38.5759 6.45898 40.4148 6.45898ZM40.4148 7.53906C39.3073 7.53223 38.5007 8.12695 38.5007 9.01562C38.5007 9.89746 39.3073 10.4717 40.4148 10.4785C41.5427 10.4717 42.3493 9.89746 42.3425 9.01562C42.3493 8.12695 41.5427 7.53223 40.4148 7.53906ZM46.5808 5.92578V18.1621H45.282V5.92578H46.5808ZM36.3816 12.502C38.6579 12.4951 41.7546 12.4678 44.448 12.0645L44.53 13.0352C43.4157 13.2402 42.2673 13.3701 41.1394 13.4453V17.7793H39.8269V13.5137C38.6443 13.5684 37.53 13.582 36.5456 13.582L36.3816 12.502ZM61.0188 5.91211V9.23438H62.7962V10.3145H61.0188V13.7598H59.72V5.91211H61.0188ZM57.1087 13.8691C59.6175 13.8691 61.1624 14.6621 61.1555 16.0156C61.1624 17.3486 59.6175 18.1416 57.1087 18.1348C54.6067 18.1416 53.0481 17.3486 53.0481 16.0156C53.0481 14.6621 54.6067 13.8691 57.1087 13.8691ZM57.1087 14.8809C55.3723 14.874 54.347 15.2773 54.347 16.0156C54.347 16.7334 55.3655 17.1436 57.1087 17.1367C58.8587 17.1436 59.8772 16.7334 59.8704 16.0156C59.8772 15.2773 58.8518 14.874 57.1087 14.8809ZM58.7083 7.22461V8.26367H51.4348V7.22461H54.4153V5.81641H55.7278V7.22461H58.7083ZM55.0716 8.82422C56.8421 8.82422 58.052 9.68555 58.052 10.9844C58.052 12.3105 56.8352 13.1582 55.0716 13.1582C53.2942 13.1582 52.0911 12.3105 52.0911 10.9844C52.0911 9.68555 53.2874 8.82422 55.0716 8.82422ZM55.0716 9.79492C54.0325 9.80176 53.3284 10.2529 53.3352 10.9844C53.3284 11.7295 54.0325 12.1807 55.0716 12.1738C56.097 12.1807 56.8011 11.7295 56.8079 10.9844C56.8011 10.2529 56.097 9.80176 55.0716 9.79492ZM72.9615 6.41797V10.6289H69.4478V12.0508H74.3834V13.1035H63.2134V12.0508H68.149V10.6289H64.6353V6.41797H72.9615ZM65.9205 7.45703V9.57617H71.6763V7.45703H65.9205ZM73.0162 14.252V18.1621H71.7037V15.291H64.4576V14.252H73.0162Z" fill="#00875A"/>
</svg>
