<svg width="36" height="20" viewBox="0 0 36 20" fill="none" xmlns="http://www.w3.org/2000/svg">
<rect width="36" height="20" rx="4" fill="#FFAB00"/>
<path d="M7.60669 9.88536L7.11843 8.8605C9.40503 8.5511 11.3001 7.18301 11.3436 5.67472H7.52934V4.64019H16.6129V5.67472H12.8132C12.8422 7.18301 14.7324 8.5511 17.0432 8.8605L16.5646 9.88536C14.5583 9.57113 12.8228 8.58011 12.0735 7.18301C11.3242 8.58011 9.58873 9.57113 7.60669 9.88536ZM6.49481 10.8135H17.6619V11.8722H12.6875V16.1554H11.4112V11.8722H6.49481V10.8135ZM27.1466 3.91022H28.4422V16.1844H27.1466V3.91022ZM22.3027 4.78039C24.2412 4.78039 25.6286 5.97928 25.6383 7.70028C25.6286 9.4261 24.2412 10.6202 22.3027 10.6202C20.3738 10.6202 18.9574 9.4261 18.967 7.70028C18.9574 5.97928 20.3738 4.78039 22.3027 4.78039ZM22.3027 5.90677C21.1135 5.90677 20.2385 6.62224 20.2481 7.70028C20.2385 8.78315 21.1135 9.49378 22.3027 9.49378C23.4919 9.49378 24.3669 8.78315 24.3717 7.70028C24.3669 6.62224 23.4919 5.90677 22.3027 5.90677ZM18.5368 13.5497L18.3773 12.4669C20.6107 12.4717 23.6998 12.4475 26.378 12.0608L26.4795 13.0083C23.7046 13.5352 20.7267 13.5497 18.5368 13.5497Z" fill="#172B4D"/>
</svg>
