<svg width="121" height="20" viewBox="0 0 121 20" fill="none" xmlns="http://www.w3.org/2000/svg">
<path d="M8 3.25C6.66498 3.25 5.35994 3.64588 4.2499 4.38758C3.13987 5.12928 2.27471 6.18349 1.76382 7.41689C1.25292 8.65029 1.11925 10.0075 1.3797 11.3169C1.64015 12.6262 2.28303 13.829 3.22703 14.773C4.17104 15.717 5.37377 16.3599 6.68314 16.6203C7.99251 16.8808 9.34971 16.7471 10.5831 16.2362C11.8165 15.7253 12.8707 14.8601 13.6124 13.7501C14.3541 12.6401 14.75 11.335 14.75 10C14.748 8.2104 14.0362 6.49466 12.7708 5.22922C11.5053 3.96378 9.7896 3.25199 8 3.25ZM8 15.25C6.96165 15.25 5.94662 14.9421 5.08326 14.3652C4.2199 13.7883 3.547 12.9684 3.14964 12.0091C2.75228 11.0498 2.64831 9.99418 2.85088 8.97578C3.05345 7.95738 3.55347 7.02191 4.28769 6.28769C5.02192 5.55346 5.95738 5.05345 6.97578 4.85088C7.99418 4.6483 9.04978 4.75227 10.0091 5.14963C10.9684 5.54699 11.7883 6.2199 12.3652 7.08326C12.9421 7.94661 13.25 8.96165 13.25 10C13.2485 11.3919 12.6949 12.7264 11.7107 13.7107C10.7264 14.6949 9.39193 15.2485 8 15.25Z" fill="#26AD9F"/>
<path d="M30.1284 8.56077H32.0331V9.84185H30.1284V16.2086H28.6056V3.86188H30.1284V8.56077ZM22.3936 7.95649H25.3086V4.8674H26.8169V13.3177H20.8805V4.8674H22.3936V7.95649ZM22.3936 12.0704H25.3086V9.14572H22.3936V12.0704ZM38.6462 11.5097V13.5256H43.5675V14.7825H32.2698V13.5256H37.1379V11.5097H33.6089V7.46823H40.7249V5.93094H33.5896V4.70304H42.2284V8.67196H35.1269V10.2673H42.5136V11.5097H38.6462ZM53.7676 8.68646H55.5998V9.9482H53.7676V16.1892H52.2448V3.86188H53.7676V8.68646ZM44.684 5.14296H50.5045C50.4948 8.77348 48.9914 11.9641 44.8822 13.9848L44.0266 12.8149C47.0335 11.3066 48.6578 9.20856 48.9575 6.39503H44.684V5.14296ZM64.6929 16.2086V3.86188H66.2253V16.2086H64.6929ZM56.6197 5.17196H62.5416C62.5368 8.85083 61.1107 11.9738 56.7889 14.0283L55.9912 12.8101C59.2253 11.2728 60.724 9.18923 60.9947 6.37569H56.6197V5.17196ZM79.6224 8.29489V3.86188H81.1307V16.2376H79.6224V9.53246H77.1086V13.2403H71.2398V4.81906H72.7626V7.88881H75.6245V4.81906H77.1086V8.29489H79.6224ZM72.7626 12.0124H75.6245V9.08287H72.7626V12.0124ZM85.5346 8.52693H92.5974V9.69199H84.007V4.28729H92.5056V5.45718H85.5346V6.41436H92.201V7.55041H85.5346V8.52693ZM82.5663 11.7997V10.5912H93.8495V11.7997H82.5663ZM83.978 12.5104H85.4814V14.7438H92.6893V15.9765H83.978V12.5104ZM107.803 10.1802H106.285V7.06215H103.824V5.84392H106.285V3.86188H107.803V10.1802ZM101.189 7.54075C100.648 8.79765 99.6375 9.77417 98.1824 10.2528L97.3847 9.0442C99.3716 8.43992 100.401 6.91713 100.411 5.24931V4.26312H101.939V5.24931C101.929 6.7721 102.93 8.21754 104.844 8.80249L104.037 9.98204C102.698 9.53729 101.731 8.66229 101.189 7.54075ZM101.175 13.9123V14.8598H108.189V16.0635H99.681V12.7907H106.294V11.9109H99.6617V10.7265H107.803V13.9123H101.175ZM115.992 8.1837V6.9413H118.104V3.86188H119.622V11.2051H118.104V8.1837H115.992ZM113.067 8.27072C112.525 9.58564 111.496 10.6492 110.026 11.1664L109.233 9.96271C111.22 9.28591 112.264 7.62293 112.264 5.98412V5.89226H109.688V4.66436H116.369V5.89226H113.811V5.96961C113.811 7.48273 114.807 9.00069 116.717 9.63881L115.958 10.8425C114.585 10.3785 113.608 9.43577 113.067 8.27072ZM115.441 11.5097C118.056 11.5145 119.656 12.3798 119.656 13.864C119.656 15.3481 118.056 16.2134 115.441 16.2182C112.83 16.2134 111.23 15.3481 111.235 13.864C111.23 12.3798 112.83 11.5145 115.441 11.5097ZM115.441 15.0387C117.166 15.0483 118.143 14.6326 118.148 13.864C118.143 13.0905 117.166 12.6796 115.441 12.6796C113.72 12.6796 112.738 13.0905 112.748 13.864C112.738 14.6326 113.72 15.0483 115.441 15.0387Z" fill="#26AD9F"/>
</svg>
