<svg width="117" height="21" viewBox="0 0 117 21" fill="none" xmlns="http://www.w3.org/2000/svg">
<path d="M8 3.75C6.66498 3.75 5.35994 4.14588 4.2499 4.88758C3.13987 5.62928 2.27471 6.68349 1.76382 7.91689C1.25292 9.15029 1.11925 10.5075 1.3797 11.8169C1.64015 13.1262 2.28303 14.329 3.22703 15.273C4.17104 16.217 5.37377 16.8599 6.68314 17.1203C7.99251 17.3808 9.34971 17.2471 10.5831 16.7362C11.8165 16.2253 12.8707 15.3601 13.6124 14.2501C14.3541 13.1401 14.75 11.835 14.75 10.5C14.748 8.7104 14.0362 6.99466 12.7708 5.72922C11.5053 4.46378 9.7896 3.75199 8 3.75ZM8 15.75C6.96165 15.75 5.94662 15.4421 5.08326 14.8652C4.2199 14.2883 3.547 13.4684 3.14964 12.5091C2.75228 11.5498 2.64831 10.4942 2.85088 9.47578C3.05345 8.45738 3.55347 7.52191 4.28769 6.78769C5.02192 6.05346 5.95738 5.55345 6.97578 5.35088C7.99418 5.1483 9.04978 5.25227 10.0091 5.64963C10.9684 6.04699 11.7883 6.7199 12.3652 7.58326C12.9421 8.44661 13.25 9.46165 13.25 10.5C13.2485 11.8919 12.6949 13.2264 11.7107 14.2107C10.7264 15.1949 9.39193 15.7485 8 15.75Z" fill="#26AD9F"/>
<path d="M28.9075 13.1381V12.0843H31.3295V4.87155H32.8571V14.221H31.3295V13.1381H28.9075ZM26.4662 9.6768C24.6389 9.6768 23.3771 8.83564 23.3771 7.51105C23.3771 6.2058 24.634 5.3163 26.4662 5.32113C28.2694 5.3163 29.536 6.2058 29.5457 7.51105C29.536 8.83564 28.2694 9.6768 26.4662 9.6768ZM26.4662 6.44268C25.48 6.43785 24.8129 6.83909 24.8226 7.51105C24.8129 8.18301 25.48 8.56975 26.4662 8.56975C27.4137 8.56975 28.0857 8.18301 28.0954 7.51105C28.0857 6.83909 27.4137 6.43785 26.4662 6.44268ZM27.3751 13.8778H25.8474V11.5863C24.6969 11.6347 23.5947 11.6395 22.623 11.6395L22.4393 10.4261C24.7162 10.4116 27.7811 10.3874 30.4013 10.0539L30.4932 11.1464C29.478 11.3156 28.4193 11.4268 27.3751 11.5041V13.8778ZM25.6009 13.317V15.7438H33.1423V16.9765H24.0781V13.317H25.6009ZM43.0621 4.86188H44.5945V17.2376H43.0621V4.86188ZM34.9599 5.8674H36.4827V8.95649H39.4751V5.8674H40.9785V14.3177H34.9599V5.8674ZM36.4827 10.1457V13.0704H39.4751V10.1457H36.4827ZM54.9639 7.66575H52.1358C51.3672 9.5511 49.5543 10.7742 46.823 11.3881L46.3009 10.1457C49.2014 9.54144 50.6517 8.26519 50.8644 6.61671H46.9729V5.38881H52.5516C52.5516 5.77555 52.5226 6.14296 52.4646 6.49586H54.9639V4.86188H56.4818V11.1126H54.9639V10.0442H51.986V8.87914H54.9639V7.66575ZM49.8782 14.8543V15.8743H56.8009V17.0925H48.3603V13.7182H54.9542V12.7997H48.3409V11.596H56.4818V14.8543H49.8782ZM67.1412 17.2086V4.86188H68.5818V17.2086H67.1412ZM62.8629 9.1692H64.6419V5.09392H66.068V16.614H64.6419V10.3971H62.8629V9.1692ZM61.7655 7.41436V8.23619C61.7607 10.3198 62.51 12.413 64.2793 13.4282L63.385 14.5449C62.2393 13.8681 61.4755 12.6934 61.0501 11.2866C60.615 12.8094 59.827 14.1098 58.6619 14.8301L57.7338 13.7086C59.5176 12.616 60.3007 10.3874 60.3007 8.23619V7.41436H58.1543V6.18646H63.7621V7.41436H61.7655ZM79.6231 4.86188V8.70994H81.2233V9.98619H79.6231V14.1195H78.0762V4.86188H79.6231ZM76.3697 10.1457L74.8711 10.0104C75.1176 8.73412 75.1659 7.7866 75.1804 7.02762H70.3752V5.77555H76.6694V6.51036C76.6597 7.35152 76.6597 8.58425 76.3697 10.1457ZM77.351 10.7307L77.4332 11.8329C74.8614 12.2921 71.9367 12.3405 69.7757 12.3453L69.6404 11.1271C70.3655 11.1271 71.1825 11.1222 72.0478 11.1029V8.59392H73.5561V11.0546C74.8372 11.0014 76.1473 10.9047 77.351 10.7307ZM71.4822 13.288H73.0099V15.7438H80.0195V16.9765H71.4822V13.288ZM91.9407 13.9744H90.4227V10.8128H88.257V9.58494H90.4227V8.03315H88.257V6.81492H90.4227V4.87155H91.9407V13.9744ZM88.0394 10.866L88.2038 12.0988C86.6133 12.3743 85.2694 12.4081 83.0021 12.4081H82.0691V8.40539H85.9655V6.94061H82.0498V5.72237H87.498V9.56077H83.5919V11.1802C85.4628 11.1706 86.6568 11.1029 88.0394 10.866ZM85.2549 13.2928V15.7003H92.2694V16.9427H83.7418V13.2928H85.2549ZM100.13 9.1837V7.9413H102.242V4.86188H103.76V12.2051H102.242V9.1837H100.13ZM97.205 9.27072C96.6636 10.5856 95.6339 11.6492 94.1643 12.1664L93.3715 10.9627C95.3583 10.2859 96.4025 8.62293 96.4025 6.98412V6.89226H93.8259V5.66436H100.507V6.89226H97.9495V6.96961C97.9495 8.48273 98.9454 10.0007 100.855 10.6388L100.096 11.8425C98.723 11.3785 97.7465 10.4358 97.205 9.27072ZM99.5786 12.5097C102.194 12.5145 103.794 13.3798 103.794 14.864C103.794 16.3481 102.194 17.2134 99.5786 17.2182C96.9681 17.2134 95.368 16.3481 95.3728 14.864C95.368 13.3798 96.9681 12.5145 99.5786 12.5097ZM99.5786 16.0387C101.304 16.0483 102.281 15.6326 102.286 14.864C102.281 14.0905 101.304 13.6796 99.5786 13.6796C97.8576 13.6796 96.8763 14.0905 96.886 14.864C96.8763 15.6326 97.8576 16.0483 99.5786 16.0387ZM111.606 12.0746V14.482H116.527V15.7244H105.23V14.482H110.098V12.0746H106.472V5.67887H107.995V7.69959H113.719V5.67887H115.232V12.0746H111.606ZM113.719 8.91782H107.995V10.8515H113.719V8.91782Z" fill="#26AD9F"/>
</svg>
