<svg width="65" height="18" viewBox="0 0 65 18" fill="none" xmlns="http://www.w3.org/2000/svg">
<path d="M10 3.9375C8.99873 3.9375 8.01995 4.23441 7.18743 4.79069C6.3549 5.34696 5.70603 6.13761 5.32286 7.06267C4.93969 7.98772 4.83944 9.00562 5.03478 9.98764C5.23011 10.9697 5.71227 11.8717 6.42027 12.5797C7.12828 13.2877 8.03033 13.7699 9.01236 13.9652C9.99439 14.1606 11.0123 14.0603 11.9373 13.6771C12.8624 13.294 13.653 12.6451 14.2093 11.8126C14.7656 10.9801 15.0625 10.0013 15.0625 9C15.061 7.6578 14.5272 6.371 13.5781 5.42192C12.629 4.47284 11.3422 3.93899 10 3.9375ZM10 12.9375C9.22124 12.9375 8.45996 12.7066 7.81244 12.2739C7.16493 11.8413 6.66025 11.2263 6.36223 10.5068C6.06421 9.78733 5.98623 8.99563 6.13816 8.23183C6.29009 7.46803 6.6651 6.76644 7.21577 6.21577C7.76644 5.6651 8.46803 5.29009 9.23183 5.13816C9.99563 4.98623 10.7873 5.0642 11.5068 5.36222C12.2263 5.66024 12.8413 6.16492 13.2739 6.81244C13.7066 7.45996 13.9375 8.22124 13.9375 9C13.9364 10.0439 13.5212 11.0448 12.783 11.783C12.0448 12.5212 11.0439 12.9364 10 12.9375Z" fill="#26AD9F"/>
<path d="M25.3057 6.00967C24.6095 7.20718 23.1841 8.08978 21.4023 8.35497L20.8844 7.30249C23.1261 7.01243 24.6178 5.66989 24.6178 4.33149V3.78867H25.9852V4.33149C25.9852 5.6616 27.4811 7.01243 29.7352 7.30249L29.2214 8.35497C27.4231 8.08978 25.9935 7.20718 25.3057 6.00967ZM20.47 9.27486H30.1206V10.3481H25.9148V14.0359H24.6261V10.3481H20.47V9.27486ZM38.9506 3.46133V5.69061H40.4464V6.76796H38.9506V9.00967H37.6495V3.46133H38.9506ZM36.7047 7.09945L36.8622 8.16851C35.1011 8.5 33.4685 8.61188 31.9395 8.61188H31.0569V3.92541H32.3663V7.53039C33.7213 7.51796 35.1591 7.41851 36.7047 7.09945ZM33.3649 10.692H37.6495V9.51105H38.9589V13.9116H32.0721V9.51105H33.3649V10.692ZM33.3649 12.8591H37.6495V11.7279H33.3649V12.8591ZM44.5361 4.52624H47.0264V5.55387H40.7405V4.52624H43.2391V3.3826H44.5361V4.52624ZM49.0899 3.45304V6.23757H50.5692V7.33149H49.0899V10.2113H47.7806V3.45304H49.0899ZM46.4712 7.86602C46.467 9.00138 45.4145 9.75138 43.8897 9.75138C42.3358 9.75138 41.2833 9.00138 41.2875 7.86602C41.2833 6.73066 42.3358 5.97238 43.8897 5.97238C45.4145 5.97238 46.467 6.73066 46.4712 7.86602ZM42.5513 7.86602C42.543 8.44199 43.0817 8.77348 43.8897 8.76934C44.6894 8.77348 45.2281 8.44199 45.2364 7.86602C45.2281 7.27762 44.6894 6.9337 43.8897 6.92956C43.0817 6.9337 42.543 7.27762 42.5513 7.86602ZM45.6673 10.2983C47.8386 10.2983 49.2018 10.9945 49.206 12.1713C49.2018 13.3315 47.8386 14.0318 45.6673 14.0276C43.467 14.0318 42.1162 13.3315 42.1245 12.1713C42.1162 10.9945 43.467 10.2983 45.6673 10.2983ZM45.6673 13.0456C47.0927 13.0497 47.9007 12.7307 47.9007 12.1713C47.9007 11.587 47.0927 11.3011 45.6673 11.3011C44.217 11.3011 43.409 11.587 43.4132 12.1713C43.409 12.7307 44.217 13.0497 45.6673 13.0456ZM56.3329 7.55939V8.67818H60.5139V9.73066H50.8633V8.67818H55.0277V7.55939H52.0774V3.87983H59.2873V7.55939H56.3329ZM58.0028 4.90331H53.3495V6.52762H58.0028V4.90331ZM58.0277 11.6492H51.9324V10.6215H59.3371V14.0359H58.0277V11.6492Z" fill="#26AD9F"/>
</svg>
