<svg width="110" height="20" viewBox="0 0 110 20" fill="none" xmlns="http://www.w3.org/2000/svg">
<path d="M8 3.25C6.66498 3.25 5.35994 3.64588 4.2499 4.38758C3.13987 5.12928 2.27471 6.18349 1.76382 7.41689C1.25292 8.65029 1.11925 10.0075 1.3797 11.3169C1.64015 12.6262 2.28303 13.829 3.22703 14.773C4.17104 15.717 5.37377 16.3599 6.68314 16.6203C7.99251 16.8808 9.34971 16.7471 10.5831 16.2362C11.8165 15.7253 12.8707 14.8601 13.6124 13.7501C14.3541 12.6401 14.75 11.335 14.75 10C14.748 8.2104 14.0362 6.49466 12.7708 5.22922C11.5053 3.96378 9.7896 3.25199 8 3.25ZM8 15.25C6.96165 15.25 5.94662 14.9421 5.08326 14.3652C4.2199 13.7883 3.547 12.9684 3.14964 12.0091C2.75228 11.0498 2.64831 9.99418 2.85088 8.97578C3.05345 7.95738 3.55347 7.02191 4.28769 6.28769C5.02192 5.55346 5.95738 5.05345 6.97578 4.85088C7.99418 4.6483 9.04978 4.75227 10.0091 5.14963C10.9684 5.54699 11.7883 6.2199 12.3652 7.08326C12.9421 7.94661 13.25 8.96165 13.25 10C13.2485 11.3919 12.6949 12.7264 11.7107 13.7107C10.7264 14.6949 9.39193 15.2485 8 15.25Z" fill="#26AD9F"/>
<path d="M30.0596 16.2086V3.86188H31.5195V16.2086H30.0596ZM26.0955 8.41091H27.5361V4.07459H28.9816V15.6188H27.5361V9.64365H26.0955V13.0325H21.2419V5.19613H26.0955V8.41091ZM22.668 11.8336H24.6694V6.39503H22.668V11.8336ZM41.4441 3.87155H42.9669V12.8004H41.4441V3.87155ZM36.2328 10.8667C34.3523 10.8715 32.8972 9.5953 32.902 7.76796C32.8972 5.96961 34.3523 4.6837 36.2328 4.6837C38.1133 4.6837 39.5588 5.96961 39.5588 7.76796C39.5588 9.5953 38.1133 10.8715 36.2328 10.8667ZM34.3861 7.76796C34.3813 8.86533 35.1741 9.54213 36.2328 9.54213C37.2625 9.54213 38.065 8.86533 38.065 7.76796C38.065 6.69959 37.2625 6.00829 36.2328 6.00829C35.1741 6.00829 34.3813 6.69959 34.3861 7.76796ZM36.3246 11.8916V14.7438H43.315V15.9765H34.7922V11.8916H36.3246ZM56.2915 3.86188H57.824V16.2376H56.2915V3.86188ZM51.1672 4.75621C53.0187 4.76105 54.382 6.45304 54.382 9.12155C54.382 11.8094 53.0187 13.5014 51.1672 13.4965C49.2915 13.5014 47.9331 11.8094 47.9379 9.12155C47.9331 6.45304 49.2915 4.76105 51.1672 4.75621ZM51.1672 6.12914C50.1133 6.12914 49.4027 7.23619 49.4027 9.12155C49.4027 11.0214 50.1133 12.1236 51.1672 12.1236C52.2017 12.1236 52.9124 11.0214 52.9124 9.12155C52.9124 7.23619 52.2017 6.12914 51.1672 6.12914ZM68.1111 3.86188H69.6436V16.2376H68.1111V3.86188ZM60.0089 5.01726H65.8922V13.2113H60.0089V5.01726ZM64.4129 6.20649H61.522V11.9979H64.4129V6.20649ZM79.9307 16.2086V3.86188H81.4632V16.2086H79.9307ZM75.8458 6.32735V7.36671C75.8458 9.3971 77.035 11.529 79.0219 12.3605L78.1952 13.5594C76.7353 12.9261 75.6621 11.6305 75.0965 10.0594C74.5309 11.7562 73.448 13.1823 71.9977 13.8688L71.1227 12.6699C73.0757 11.7756 74.2891 9.47445 74.2988 7.36671V6.32735H71.5771V5.08011H78.5433V6.32735H75.8458ZM96.3927 10.1802H94.8748V7.06215H92.4141V5.84392H94.8748V3.86188H96.3927V10.1802ZM89.7795 7.54075C89.238 8.79765 88.2277 9.77417 86.7726 10.2528L85.9749 9.0442C87.9618 8.43992 88.9915 6.91713 89.0012 5.24931V4.26312H90.5288V5.24931C90.5191 6.7721 91.5198 8.21754 93.4342 8.80249L92.6268 9.98204C91.2878 9.53729 90.3209 8.66229 89.7795 7.54075ZM89.765 13.9123V14.8598H96.7795V16.0635H88.2712V12.7907H94.8844V11.9109H88.2518V10.7265H96.3927V13.9123H89.765ZM104.582 8.1837V6.9413H106.694V3.86188H108.212V11.2051H106.694V8.1837H104.582ZM101.657 8.27072C101.116 9.58564 100.086 10.6492 98.6163 11.1664L97.8235 9.96271C99.8104 9.28591 100.855 7.62293 100.855 5.98412V5.89226H98.278V4.66436H104.959V5.89226H102.402V5.96961C102.402 7.48273 103.397 9.00069 105.307 9.63881L104.548 10.8425C103.175 10.3785 102.199 9.43577 101.657 8.27072ZM104.031 11.5097C106.646 11.5145 108.246 12.3798 108.246 13.864C108.246 15.3481 106.646 16.2134 104.031 16.2182C101.42 16.2134 99.8201 15.3481 99.8249 13.864C99.8201 12.3798 101.42 11.5145 104.031 11.5097ZM104.031 15.0387C105.757 15.0483 106.733 14.6326 106.738 13.864C106.733 13.0905 105.757 12.6796 104.031 12.6796C102.31 12.6796 101.328 13.0905 101.338 13.864C101.328 14.6326 102.31 15.0483 104.031 15.0387Z" fill="#26AD9F"/>
</svg>
