<svg width="108" height="20" viewBox="0 0 108 20" fill="none" xmlns="http://www.w3.org/2000/svg">
<path d="M8 3.25C6.66498 3.25 5.35994 3.64588 4.2499 4.38758C3.13987 5.12928 2.27471 6.18349 1.76382 7.41689C1.25292 8.65029 1.11925 10.0075 1.3797 11.3169C1.64015 12.6262 2.28303 13.829 3.22703 14.773C4.17104 15.717 5.37377 16.3599 6.68314 16.6203C7.99251 16.8808 9.34971 16.7471 10.5831 16.2362C11.8165 15.7253 12.8707 14.8601 13.6124 13.7501C14.3541 12.6401 14.75 11.335 14.75 10C14.748 8.2104 14.0362 6.49466 12.7708 5.22922C11.5053 3.96378 9.7896 3.25199 8 3.25ZM8 15.25C6.96165 15.25 5.94662 14.9421 5.08326 14.3652C4.2199 13.7883 3.547 12.9684 3.14964 12.0091C2.75228 11.0498 2.64831 9.99418 2.85088 8.97578C3.05345 7.95738 3.55347 7.02191 4.28769 6.28769C5.02192 5.55346 5.95738 5.05345 6.97578 4.85088C7.99418 4.6483 9.04978 4.75227 10.0091 5.14963C10.9684 5.54699 11.7883 6.2199 12.3652 7.08326C12.9421 7.94661 13.25 8.96165 13.25 10C13.2485 11.3919 12.6949 12.7264 11.7107 13.7107C10.7264 14.6949 9.39193 15.2485 8 15.25Z" fill="#26AD9F"/>
<path d="M24.988 5.04144H27.8934V6.24517H20.5598V5.04144H23.4749V3.80387H24.988V5.04144ZM30.3009 7.14434H32.0267V8.38674H30.3009V11.5967H28.7732V3.86188H30.3009V7.14434ZM27.2456 8.98619C27.2408 10.3398 26.0129 11.2438 24.2339 11.2438C22.4404 11.2438 21.1931 10.3398 21.198 8.98619C21.1931 7.6326 22.4404 6.72859 24.2339 6.72376C26.0129 6.72859 27.2408 7.6326 27.2456 8.98619ZM22.6724 8.98619C22.6627 9.68232 23.2912 10.0739 24.2339 10.0691C25.1669 10.0739 25.7953 9.68232 25.805 8.98619C25.7953 8.28522 25.1669 7.87914 24.2339 7.87431C23.2912 7.87914 22.6627 8.28522 22.6724 8.98619ZM28.7732 13.395H22.0633V12.172H30.3009V16.2086H28.7732V13.395ZM41.492 8.22721H40.2544V11.0601H38.8428V4.09876H40.2544V6.98964H41.492V3.87155H42.9375V11.4468H41.492V8.22721ZM38.6301 9.44544L37.8228 10.6105C36.7206 10.1899 35.9568 9.40193 35.512 8.43992C35.0576 9.54696 34.2551 10.4945 33.0804 10.9876L32.2586 9.81285C33.9603 9.06837 34.7531 7.52141 34.7531 6.14848V4.62569H36.2323V6.14848C36.2275 7.48757 37.0058 8.83149 38.6301 9.44544ZM38.7655 11.6499C41.3518 11.6499 42.9955 12.5007 43.0003 13.9268C42.9955 15.3481 41.3518 16.2037 38.7655 16.1989C36.1598 16.2037 34.5259 15.3481 34.5355 13.9268C34.5259 12.5007 36.1598 11.6499 38.7655 11.6499ZM38.7655 15.0387C40.4575 15.0483 41.4678 14.6519 41.4775 13.9268C41.4678 13.1968 40.4575 12.7956 38.7655 12.8004C37.0542 12.7956 36.0438 13.1968 36.0486 13.9268C36.0438 14.6519 37.0542 15.0483 38.7655 15.0387ZM53.0216 8.89917H50.5368V9.84668H44.7453V4.40331H46.273V5.95994H49.0333V4.40331H50.5368V5.49586H53.0216V3.86188H54.5347V10.2479H53.0216V8.89917ZM53.0216 7.73412V6.64641H50.5368V7.73412H53.0216ZM46.273 8.64296H49.0333V7.12017H46.273V8.64296ZM47.9263 13.9268V14.8598H54.9311V16.0635H46.4035V12.8004H53.0216V11.9351H46.389V10.7555H54.5347V13.9268H47.9263ZM67.8834 6.25967V3.86188H69.4014V11.1954H67.8834V7.50691H65.4228V6.25967H67.8834ZM62.7881 8.1547C62.2467 9.45028 61.2412 10.4655 59.8199 10.9876L58.9981 9.75967C61.0043 9.09738 62.0002 7.4779 62.0098 5.72307V4.49517H63.5423V5.81008C63.5326 7.40055 64.5285 8.91851 66.4283 9.53729L65.6162 10.7459C64.2723 10.2769 63.3151 9.33909 62.7881 8.1547ZM67.8834 12.9986H60.9753V11.7949H69.4014V16.2086H67.8834V12.9986ZM80.549 8.74448H82.4537V10.0256H80.549V16.2086H79.0263V3.86188H80.549V8.74448ZM75.2217 7.13467V7.78246C75.2169 9.60981 76.2514 11.6064 78.1561 12.5104L77.3053 13.6657C75.971 13.047 75.0042 11.8191 74.4821 10.3736C73.9455 11.9302 72.9303 13.2452 71.5187 13.8785L70.6727 12.7037C72.6257 11.8287 73.7134 9.72583 73.7182 7.78246V7.13467H71.0787V5.92127H73.7086V4.12293H75.2362V5.92127H77.8322V7.13467H75.2217ZM92.3895 15H86.2452V5.09945H88.0194V13.5014H92.3895V15ZM94.3322 6.51588C93.7714 6.51588 93.317 6.0953 93.317 5.5732C93.317 5.04627 93.7714 4.62569 94.3322 4.62569C94.8785 4.62569 95.3377 5.04627 95.3377 5.5732C95.3377 6.0953 94.8785 6.51588 94.3322 6.51588ZM95.1976 15H93.4572V7.57459H95.1976V15ZM102.449 9.69199H100.796C100.69 9.13605 100.226 8.77348 99.4861 8.77348C98.7416 8.77348 98.1953 9.14572 98.1953 9.64848C98.1953 10.0401 98.4999 10.3253 99.254 10.4993L100.516 10.77C101.913 11.0698 102.594 11.7224 102.599 12.7811C102.594 14.1782 101.376 15.145 99.4377 15.145C97.5427 15.145 96.426 14.3039 96.252 12.8874H98.0165C98.1276 13.5159 98.6207 13.8301 99.4329 13.8301C100.274 13.8301 100.82 13.4869 100.825 12.9358C100.82 12.5055 100.487 12.23 99.7471 12.0704L98.5482 11.8191C97.1753 11.5338 96.4598 10.8135 96.4647 9.75C96.4598 8.37707 97.6442 7.4779 99.4619 7.4779C101.231 7.4779 102.324 8.34323 102.449 9.69199ZM106.688 13.6367C106.891 13.6416 107.234 13.6174 107.452 13.6029V15.029C107.244 15.0628 106.91 15.1015 106.466 15.1015C105.156 15.1015 104.145 14.4537 104.15 13.0566V8.91851H103.096V7.57459H104.15V5.79558H105.89V7.57459H107.35V8.91851H105.89V12.7666C105.89 13.482 106.243 13.6271 106.688 13.6367Z" fill="#26AD9F"/>
</svg>
