<svg width="124" height="20" viewBox="0 0 124 20" fill="none" xmlns="http://www.w3.org/2000/svg">
<path d="M8 3.25C6.66498 3.25 5.35994 3.64588 4.2499 4.38758C3.13987 5.12928 2.27471 6.18349 1.76382 7.41689C1.25292 8.65029 1.11925 10.0075 1.3797 11.3169C1.64015 12.6262 2.28303 13.829 3.22703 14.773C4.17104 15.717 5.37377 16.3599 6.68314 16.6203C7.99251 16.8808 9.34971 16.7471 10.5831 16.2362C11.8165 15.7253 12.8707 14.8601 13.6124 13.7501C14.3541 12.6401 14.75 11.335 14.75 10C14.748 8.2104 14.0362 6.49466 12.7708 5.22922C11.5053 3.96378 9.7896 3.25199 8 3.25ZM8 15.25C6.96165 15.25 5.94662 14.9421 5.08326 14.3652C4.2199 13.7883 3.547 12.9684 3.14964 12.0091C2.75228 11.0498 2.64831 9.99418 2.85088 8.97578C3.05345 7.95738 3.55347 7.02191 4.28769 6.28769C5.02192 5.55346 5.95738 5.05345 6.97578 4.85088C7.99418 4.6483 9.04978 4.75227 10.0091 5.14963C10.9684 5.54699 11.7883 6.2199 12.3652 7.08326C12.9421 7.94661 13.25 8.96165 13.25 10C13.2485 11.3919 12.6949 12.7264 11.7107 13.7107C10.7264 14.6949 9.39193 15.2485 8 15.25Z" fill="#26AD9F"/>
<path d="M29.6287 16.2086V3.86188H31.0886V16.2086H29.6287ZM25.6646 8.41091H27.1052V4.07459H28.5506V15.6188H27.1052V9.64365H25.6646V13.0325H20.811V5.19613H25.6646V8.41091ZM22.2371 11.8336H24.2385V6.39503H22.2371V11.8336ZM35.1589 7.8453H42.2314V9.0732H33.6361V4.44199H35.1589V7.8453ZM32.2487 10.6008H43.5077V11.8239H40.8102V16.2086H39.2777V11.8239H36.4835V16.2086H34.9607V11.8239H32.2487V10.6008ZM55.8751 3.86188H57.3785V10.8957H55.8751V3.86188ZM47.7438 4.62569H53.6948V9.7645H47.7438V4.62569ZM49.2376 8.57528H52.1914V5.82459H49.2376V8.57528ZM57.6347 12.7666H54.1009C54.2411 13.7238 55.7349 14.7776 58.0988 15.0193L57.5864 16.1796C55.5802 15.9669 54.0622 15.1789 53.3081 14.1492C52.5491 15.1934 51.0118 15.9572 49.0008 16.1796L48.4787 15.0193C50.8523 14.8066 52.3654 13.7479 52.5056 12.7666H48.9814V11.6305H52.5394V10.5428H54.0622V11.6305H57.6347V12.7666ZM70.7369 3.87155H72.2597V12.8004H70.7369V3.87155ZM65.5256 10.8667C63.6451 10.8715 62.19 9.5953 62.1948 7.76796C62.19 5.96961 63.6451 4.6837 65.5256 4.6837C67.4061 4.6837 68.8516 5.96961 68.8516 7.76796C68.8516 9.5953 67.4061 10.8715 65.5256 10.8667ZM63.6789 7.76796C63.6741 8.86533 64.4669 9.54213 65.5256 9.54213C66.5553 9.54213 67.3578 8.86533 67.3578 7.76796C67.3578 6.69959 66.5553 6.00829 65.5256 6.00829C64.4669 6.00829 63.6741 6.69959 63.6789 7.76796ZM65.6175 11.8916V14.7438H72.6078V15.9765H64.085V11.8916H65.6175ZM76.7119 10.3398H83.8376V11.5435H75.1698V4.82873H83.7264V6.06146H76.7119V7.54075H83.4461V8.74448H76.7119V10.3398ZM73.792 14.7148V13.4724H85.0897V14.7148H73.792ZM91.988 11.5097V13.5256H96.9093V14.7825H85.6117V13.5256H90.4798V11.5097H86.9507V7.46823H94.0668V5.93094H86.9314V4.70304H95.5702V8.67196H88.4687V10.2673H95.8554V11.5097H91.988ZM110.824 10.1802H109.306V7.06215H106.845V5.84392H109.306V3.86188H110.824V10.1802ZM104.21 7.54075C103.669 8.79765 102.659 9.77417 101.204 10.2528L100.406 9.0442C102.393 8.43992 103.422 6.91713 103.432 5.24931V4.26312H104.96V5.24931C104.95 6.7721 105.951 8.21754 107.865 8.80249L107.058 9.98204C105.719 9.53729 104.752 8.66229 104.21 7.54075ZM104.196 13.9123V14.8598H111.21V16.0635H102.702V12.7907H109.315V11.9109H102.683V10.7265H110.824V13.9123H104.196ZM119.013 8.1837V6.9413H121.125V3.86188H122.643V11.2051H121.125V8.1837H119.013ZM116.088 8.27072C115.547 9.58564 114.517 10.6492 113.047 11.1664L112.254 9.96271C114.241 9.28591 115.286 7.62293 115.286 5.98412V5.89226H112.709V4.66436H119.39V5.89226H116.833V5.96961C116.833 7.48273 117.828 9.00069 119.738 9.63881L118.979 10.8425C117.606 10.3785 116.629 9.43577 116.088 8.27072ZM118.462 11.5097C121.077 11.5145 122.677 12.3798 122.677 13.864C122.677 15.3481 121.077 16.2134 118.462 16.2182C115.851 16.2134 114.251 15.3481 114.256 13.864C114.251 12.3798 115.851 11.5145 118.462 11.5097ZM118.462 15.0387C120.187 15.0483 121.164 14.6326 121.169 13.864C121.164 13.0905 120.187 12.6796 118.462 12.6796C116.741 12.6796 115.759 13.0905 115.769 13.864C115.759 14.6326 116.741 15.0483 118.462 15.0387Z" fill="#26AD9F"/>
</svg>
