<svg width="57" height="18" viewBox="0 0 57 18" fill="none" xmlns="http://www.w3.org/2000/svg">
<path d="M6 3.9375C4.99873 3.9375 4.01995 4.23441 3.18743 4.79069C2.3549 5.34696 1.70603 6.13761 1.32286 7.06267C0.939694 7.98772 0.839439 9.00562 1.03478 9.98764C1.23011 10.9697 1.71227 11.8717 2.42027 12.5797C3.12828 13.2877 4.03033 13.7699 5.01236 13.9652C5.99439 14.1606 7.01229 14.0603 7.93734 13.6771C8.86239 13.294 9.65304 12.6451 10.2093 11.8126C10.7656 10.9801 11.0625 10.0013 11.0625 9C11.061 7.6578 10.5272 6.371 9.57809 5.42192C8.62901 4.47284 7.3422 3.93899 6 3.9375ZM6 12.9375C5.22124 12.9375 4.45996 12.7066 3.81244 12.2739C3.16493 11.8413 2.66025 11.2263 2.36223 10.5068C2.06421 9.78733 1.98623 8.99563 2.13816 8.23183C2.29009 7.46803 2.6651 6.76644 3.21577 6.21577C3.76644 5.6651 4.46803 5.29009 5.23183 5.13816C5.99563 4.98623 6.78733 5.0642 7.50682 5.36222C8.2263 5.66024 8.84126 6.16492 9.27391 6.81244C9.70657 7.45996 9.9375 8.22124 9.9375 9C9.93639 10.0439 9.52118 11.0448 8.783 11.783C8.04482 12.5212 7.04395 12.9364 6 12.9375Z" fill="#26AD9F"/>
<path d="M21.3057 6.00967C20.6095 7.20718 19.1841 8.08978 17.4023 8.35497L16.8844 7.30249C19.1261 7.01243 20.6178 5.66989 20.6178 4.33149V3.78867H21.9852V4.33149C21.9852 5.6616 23.4811 7.01243 25.7352 7.30249L25.2214 8.35497C23.4231 8.08978 21.9935 7.20718 21.3057 6.00967ZM16.47 9.27486H26.1206V10.3481H21.9148V14.0359H20.6261V10.3481H16.47V9.27486ZM34.9506 3.46133V5.69061H36.4464V6.76796H34.9506V9.00967H33.6495V3.46133H34.9506ZM32.7047 7.09945L32.8622 8.16851C31.1011 8.5 29.4685 8.61188 27.9395 8.61188H27.0569V3.92541H28.3663V7.53039C29.7213 7.51796 31.1591 7.41851 32.7047 7.09945ZM29.3649 10.692H33.6495V9.51105H34.9589V13.9116H28.0721V9.51105H29.3649V10.692ZM29.3649 12.8591H33.6495V11.7279H29.3649V12.8591ZM40.5361 4.52624H43.0264V5.55387H36.7405V4.52624H39.2391V3.3826H40.5361V4.52624ZM45.0899 3.45304V6.23757H46.5692V7.33149H45.0899V10.2113H43.7806V3.45304H45.0899ZM42.4712 7.86602C42.467 9.00138 41.4145 9.75138 39.8897 9.75138C38.3358 9.75138 37.2833 9.00138 37.2875 7.86602C37.2833 6.73066 38.3358 5.97238 39.8897 5.97238C41.4145 5.97238 42.467 6.73066 42.4712 7.86602ZM38.5513 7.86602C38.543 8.44199 39.0817 8.77348 39.8897 8.76934C40.6894 8.77348 41.2281 8.44199 41.2364 7.86602C41.2281 7.27762 40.6894 6.9337 39.8897 6.92956C39.0817 6.9337 38.543 7.27762 38.5513 7.86602ZM41.6673 10.2983C43.8386 10.2983 45.2018 10.9945 45.206 12.1713C45.2018 13.3315 43.8386 14.0318 41.6673 14.0276C39.467 14.0318 38.1162 13.3315 38.1245 12.1713C38.1162 10.9945 39.467 10.2983 41.6673 10.2983ZM41.6673 13.0456C43.0927 13.0497 43.9007 12.7307 43.9007 12.1713C43.9007 11.587 43.0927 11.3011 41.6673 11.3011C40.217 11.3011 39.409 11.587 39.4132 12.1713C39.409 12.7307 40.217 13.0497 41.6673 13.0456ZM52.3329 7.55939V8.67818H56.5139V9.73066H46.8633V8.67818H51.0277V7.55939H48.0774V3.87983H55.2873V7.55939H52.3329ZM54.0028 4.90331H49.3495V6.52762H54.0028V4.90331ZM54.0277 11.6492H47.9324V10.6215H55.3371V14.0359H54.0277V11.6492Z" fill="#26AD9F"/>
</svg>
