<svg width="56" height="20" viewBox="0 0 56 20" fill="none" xmlns="http://www.w3.org/2000/svg">
<path d="M8 3.25C6.66498 3.25 5.35994 3.64588 4.2499 4.38758C3.13987 5.12928 2.27471 6.18349 1.76382 7.41689C1.25292 8.65029 1.11925 10.0075 1.3797 11.3169C1.64015 12.6262 2.28303 13.829 3.22703 14.773C4.17104 15.717 5.37377 16.3599 6.68314 16.6203C7.99251 16.8808 9.34971 16.7471 10.5831 16.2362C11.8165 15.7253 12.8707 14.8601 13.6124 13.7501C14.3541 12.6401 14.75 11.335 14.75 10C14.748 8.2104 14.0362 6.49466 12.7708 5.22922C11.5053 3.96378 9.7896 3.25199 8 3.25ZM8 15.25C6.96165 15.25 5.94662 14.9421 5.08326 14.3652C4.2199 13.7883 3.547 12.9684 3.14964 12.0091C2.75228 11.0498 2.64831 9.99418 2.85088 8.97578C3.05345 7.95738 3.55347 7.02191 4.28769 6.28769C5.02192 5.55346 5.95738 5.05345 6.97578 4.85088C7.99418 4.6483 9.04978 4.75227 10.0091 5.14963C10.9684 5.54699 11.7883 6.2199 12.3652 7.08326C12.9421 7.94661 13.25 8.96165 13.25 10C13.2485 11.3919 12.6949 12.7264 11.7107 13.7107C10.7264 14.6949 9.39193 15.2485 8 15.25Z" fill="#26AD9F"/>
<path d="M29.2915 16.2376V3.86188H30.824V16.2376H29.2915ZM25.2114 4.8529V6.83011C25.2017 9.09254 26.3958 11.3646 28.402 12.2251L27.498 13.4434C26.0816 12.7859 25.0374 11.4758 24.4621 9.86119C23.9013 11.6015 22.8378 13.0276 21.3392 13.7286L20.411 12.462C22.4607 11.5725 23.6644 9.20856 23.6741 6.83011V4.8529H25.2114ZM36.7651 5.01243H39.6367V6.23066H32.3853V5.01243H35.2617V3.75552H36.7651V5.01243ZM41.1933 7.52624V3.86188H42.7112V11.3356H41.1933V8.77831H39.4288V7.52624H41.1933ZM38.9502 8.92818C38.9405 10.2624 37.732 11.1471 36.0158 11.1471C34.3045 11.1471 33.0814 10.2624 33.0814 8.92818C33.0814 7.6326 34.3045 6.71409 36.0158 6.71409C37.732 6.71409 38.9405 7.6326 38.9502 8.92818ZM34.5414 8.92818C34.5317 9.60981 35.1215 10.011 36.0158 10.0159C36.8956 10.011 37.4854 9.60981 37.4854 8.92818C37.4854 8.27072 36.8956 7.86464 36.0158 7.86464C35.1215 7.86464 34.5317 8.27072 34.5414 8.92818ZM42.7112 16.0635H34.4882V11.9012H42.7112V16.0635ZM41.2223 13.1001H36.0061V14.8356H41.2223V13.1001ZM52.9307 16.2086V3.86188H54.4632V16.2086H52.9307ZM48.8458 6.32735V7.36671C48.8458 9.3971 50.035 11.529 52.0219 12.3605L51.1952 13.5594C49.7353 12.9261 48.6621 11.6305 48.0965 10.0594C47.5309 11.7562 46.448 13.1823 44.9977 13.8688L44.1227 12.6699C46.0757 11.7756 47.2891 9.47445 47.2988 7.36671V6.32735H44.5771V5.08011H51.5433V6.32735H48.8458Z" fill="#26AD9F"/>
</svg>
