<svg width="92" height="20" viewBox="0 0 92 20" fill="none" xmlns="http://www.w3.org/2000/svg">
<path d="M8 3.25C6.66498 3.25 5.35994 3.64588 4.2499 4.38758C3.13987 5.12928 2.27471 6.18349 1.76382 7.41689C1.25292 8.65029 1.11925 10.0075 1.3797 11.3169C1.64015 12.6262 2.28303 13.829 3.22703 14.773C4.17104 15.717 5.37377 16.3599 6.68314 16.6203C7.99251 16.8808 9.34971 16.7471 10.5831 16.2362C11.8165 15.7253 12.8707 14.8601 13.6124 13.7501C14.3541 12.6401 14.75 11.335 14.75 10C14.748 8.2104 14.0362 6.49466 12.7708 5.22922C11.5053 3.96378 9.7896 3.25199 8 3.25ZM8 15.25C6.96165 15.25 5.94662 14.9421 5.08326 14.3652C4.2199 13.7883 3.547 12.9684 3.14964 12.0091C2.75228 11.0498 2.64831 9.99418 2.85088 8.97578C3.05345 7.95738 3.55347 7.02191 4.28769 6.28769C5.02192 5.55346 5.95738 5.05345 6.97578 4.85088C7.99418 4.6483 9.04978 4.75227 10.0091 5.14963C10.9684 5.54699 11.7883 6.2199 12.3652 7.08326C12.9421 7.94661 13.25 8.96165 13.25 10C13.2485 11.3919 12.6949 12.7264 11.7107 13.7107C10.7264 14.6949 9.39193 15.2485 8 15.25Z" fill="#26AD9F"/>
<path d="M22.2285 4.42265H30.6401V8.89434H22.2285V4.42265ZM23.7126 7.70028H29.1415V5.61188H23.7126V7.70028ZM20.7976 11.2583V10.0352H32.0952V11.2583H27.3238V13.5159H25.8204V11.2583H20.7976ZM22.1657 12.3943H23.6836V14.7438H30.848V15.9765H22.1657V12.3943ZM37.0695 5.11395H39.9749V6.31285H32.6414V5.11395H35.5564V3.7797H37.0695V5.11395ZM42.3824 3.86188V7.1105H44.1082V8.38674H42.3824V11.7465H40.8548V3.86188H42.3824ZM39.3271 9.01036C39.3223 10.3349 38.0944 11.2099 36.3154 11.2099C34.5026 11.2099 33.2746 10.3349 33.2795 9.01036C33.2746 7.68577 34.5026 6.8011 36.3154 6.8011C38.0944 6.8011 39.3223 7.68577 39.3271 9.01036ZM34.7539 9.01036C34.7443 9.68232 35.3727 10.0691 36.3154 10.0642C37.2484 10.0691 37.8769 9.68232 37.8865 9.01036C37.8769 8.32389 37.2484 7.92265 36.3154 7.91782C35.3727 7.92265 34.7443 8.32389 34.7539 9.01036ZM38.3893 11.8481C40.9224 11.8481 42.5129 12.6602 42.5177 14.0331C42.5129 15.3867 40.9224 16.2037 38.3893 16.1989C35.8223 16.2037 34.2463 15.3867 34.256 14.0331C34.2463 12.6602 35.8223 11.8481 38.3893 11.8481ZM38.3893 15.0532C40.0523 15.058 40.995 14.6858 40.995 14.0331C40.995 13.3515 40.0523 13.018 38.3893 13.018C36.6973 13.018 35.7546 13.3515 35.7595 14.0331C35.7546 14.6858 36.6973 15.058 38.3893 15.0532ZM51.1709 8.1837V6.9413H53.2835V3.86188H54.8014V11.2051H53.2835V8.1837H51.1709ZM48.2462 8.27072C47.7048 9.58564 46.6751 10.6492 45.2054 11.1664L44.4126 9.96271C46.3995 9.28591 47.4437 7.62293 47.4437 5.98412V5.89226H44.867V4.66436H51.548V5.89226H48.9907V5.96961C48.9907 7.48273 49.9865 9.00069 51.8961 9.63881L51.1371 10.8425C49.7641 10.3785 48.7876 9.43577 48.2462 8.27072ZM50.6198 11.5097C53.2351 11.5145 54.8353 12.3798 54.8353 13.864C54.8353 15.3481 53.2351 16.2134 50.6198 16.2182C48.0093 16.2134 46.4092 15.3481 46.414 13.864C46.4092 12.3798 48.0093 11.5145 50.6198 11.5097ZM50.6198 15.0387C52.3456 15.0483 53.3222 14.6326 53.327 13.864C53.3222 13.0905 52.3456 12.6796 50.6198 12.6796C48.8988 12.6796 47.9175 13.0905 47.9271 13.864C47.9175 14.6326 48.8988 15.0483 50.6198 15.0387ZM62.6473 11.0746V13.482H67.5686V14.7244H56.2709V13.482H61.139V11.0746H57.5133V4.67887H59.0361V6.69959H64.7599V4.67887H66.273V11.0746H62.6473ZM64.7599 7.91782H59.0361V9.85152H64.7599V7.91782ZM76.855 3.86188H78.3778V10.4945H76.855V3.86188ZM71.6437 4.40331C73.5484 4.39848 74.9697 5.58771 74.9697 7.30387C74.9697 8.98619 73.5484 10.1802 71.6437 10.1754C69.7342 10.1802 68.3081 8.98619 68.3129 7.30387C68.3081 5.58771 69.7342 4.39848 71.6437 4.40331ZM71.6437 5.67472C70.5657 5.66989 69.7922 6.31285 69.797 7.30387C69.7922 8.29489 70.5657 8.92334 71.6437 8.92334C72.7024 8.92334 73.4759 8.29489 73.4759 7.30387C73.4759 6.31285 72.7024 5.66989 71.6437 5.67472ZM70.2128 11.0649H71.7065V12.3267H76.8647V11.0649H78.3778V16.0635H70.2128V11.0649ZM71.7065 13.5159V14.8308H76.8647V13.5159H71.7065ZM88.7423 5.62638V3.87155H90.2603V11.471H88.7423V9.44061H86.5572V8.22238H88.7423V6.83494H86.5572V5.62638H88.7423ZM86.3542 9.53246L86.4944 10.7604C85.0248 11.0117 83.7437 11.0504 81.3217 11.0552H80.4081V7.18301H84.2948V5.79558H80.3887V4.59185H85.8079V8.31906H81.9115V9.83702C83.8984 9.83218 85.0344 9.77901 86.3542 9.53246ZM88.7423 13.279H81.81V12.0559H90.2603V16.2182H88.7423V13.279Z" fill="#26AD9F"/>
</svg>
