<svg width="83" height="20" viewBox="0 0 83 20" fill="none" xmlns="http://www.w3.org/2000/svg">
<path d="M8 3.25C6.66498 3.25 5.35994 3.64588 4.2499 4.38758C3.13987 5.12928 2.27471 6.18349 1.76382 7.41689C1.25292 8.65029 1.11925 10.0075 1.3797 11.3169C1.64015 12.6262 2.28303 13.829 3.22703 14.773C4.17104 15.717 5.37377 16.3599 6.68314 16.6203C7.99251 16.8808 9.34971 16.7471 10.5831 16.2362C11.8165 15.7253 12.8707 14.8601 13.6124 13.7501C14.3541 12.6401 14.75 11.335 14.75 10C14.748 8.2104 14.0362 6.49466 12.7708 5.22922C11.5053 3.96378 9.7896 3.25199 8 3.25ZM8 15.25C6.96165 15.25 5.94662 14.9421 5.08326 14.3652C4.2199 13.7883 3.547 12.9684 3.14964 12.0091C2.75228 11.0498 2.64831 9.99418 2.85088 8.97578C3.05345 7.95738 3.55347 7.02191 4.28769 6.28769C5.02192 5.55346 5.95738 5.05345 6.97578 4.85088C7.99418 4.6483 9.04978 4.75227 10.0091 5.14963C10.9684 5.54699 11.7883 6.2199 12.3652 7.08326C12.9421 7.94661 13.25 8.96165 13.25 10C13.2485 11.3919 12.6949 12.7264 11.7107 13.7107C10.7264 14.6949 9.39193 15.2485 8 15.25Z" fill="#26AD9F"/>
<path d="M25.1386 5.04144H28.044V6.24517H20.7104V5.04144H23.6255V3.80387H25.1386V5.04144ZM30.4514 7.14434H32.1773V8.38674H30.4514V11.5967H28.9238V3.86188H30.4514V7.14434ZM27.3962 8.98619C27.3914 10.3398 26.1635 11.2438 24.3845 11.2438C22.5909 11.2438 21.3437 10.3398 21.3485 8.98619C21.3437 7.6326 22.5909 6.72859 24.3845 6.72376C26.1635 6.72859 27.3914 7.6326 27.3962 8.98619ZM22.823 8.98619C22.8133 9.68232 23.4418 10.0739 24.3845 10.0691C25.3175 10.0739 25.9459 9.68232 25.9556 8.98619C25.9459 8.28522 25.3175 7.87914 24.3845 7.87431C23.4418 7.87914 22.8133 8.28522 22.823 8.98619ZM28.9238 13.395H22.2139V12.172H30.4514V16.2086H28.9238V13.395ZM42.126 8.76865H43.818V9.98688H32.5204V8.76865H40.6226C40.8885 7.4634 40.9126 6.48204 40.9175 5.61188H33.9175V4.38398H42.4354V5.34599C42.4354 6.28867 42.4354 7.31837 42.126 8.76865ZM35.4064 12.3218H40.8933V10.9006H42.3967V16.0635H33.9126V10.9006H35.4064V12.3218ZM35.4064 14.8308H40.8933V13.4965H35.4064V14.8308ZM53.1722 8.89917H50.6874V9.84668H44.8959V4.40331H46.4235V5.95994H49.1839V4.40331H50.6874V5.49586H53.1722V3.86188H54.6853V10.2479H53.1722V8.89917ZM53.1722 7.73412V6.64641H50.6874V7.73412H53.1722ZM46.4235 8.64296H49.1839V7.12017H46.4235V8.64296ZM48.0769 13.9268V14.8598H55.0817V16.0635H46.5541V12.8004H53.1722V11.9351H46.5396V10.7555H54.6853V13.9268H48.0769ZM68.034 9.43577H66.3711L66.4291 10.451C64.0796 10.8329 61.3483 10.8812 59.3807 10.8812L59.2115 9.63398C59.6466 9.63398 60.1204 9.62914 60.6135 9.62431V5.94544H59.5354V4.71754H66.1003V5.94544H65.0078V9.45511C65.4622 9.42127 65.907 9.37776 66.3324 9.32942V8.21754H68.034V7.14917H66.3324V5.94061H68.034V3.86188H69.552V11.4372H68.034V9.43577ZM63.5527 5.94544H62.0879V9.60014C62.5713 9.58564 63.0596 9.57113 63.5527 9.54696V5.94544ZM65.3704 11.645C68.005 11.6499 69.5858 12.4765 69.5858 13.9365C69.5858 15.3577 68.005 16.2037 65.3704 16.1989C62.7454 16.2037 61.1597 15.3577 61.1646 13.9365C61.1597 12.4765 62.7454 11.6499 65.3704 11.645ZM65.3704 15.029C67.1059 15.029 68.0727 14.6519 68.0775 13.9365C68.0727 13.1968 67.1059 12.8149 65.3704 12.8149C63.6397 12.8149 62.668 13.1968 62.6777 13.9365C62.668 14.6519 63.6397 15.029 65.3704 15.029ZM80.6755 9.05387H82.3191V10.2818H79.3799V13.076H77.9006V10.2818H76.2521V13.076H74.7632V10.2818H71.0215V9.05387H79.1478C79.3992 7.67127 79.4186 6.62707 79.4186 5.67956H72.3992V4.48066H80.9365V5.49102C80.9365 6.48204 80.9365 7.60359 80.6755 9.05387ZM72.288 12.0028H73.806V14.7438H81.2604V15.9765H72.288V12.0028Z" fill="#26AD9F"/>
</svg>
