<svg width="69" height="18" viewBox="0 0 69 18" fill="none" xmlns="http://www.w3.org/2000/svg">
<path d="M12 3.9375C10.9987 3.9375 10.02 4.23441 9.18743 4.79069C8.3549 5.34696 7.70603 6.13761 7.32286 7.06267C6.93969 7.98772 6.83944 9.00562 7.03478 9.98764C7.23011 10.9697 7.71227 11.8717 8.42027 12.5797C9.12828 13.2877 10.0303 13.7699 11.0124 13.9652C11.9944 14.1606 13.0123 14.0603 13.9373 13.6771C14.8624 13.294 15.653 12.6451 16.2093 11.8126C16.7656 10.9801 17.0625 10.0013 17.0625 9C17.061 7.6578 16.5272 6.371 15.5781 5.42192C14.629 4.47284 13.3422 3.93899 12 3.9375ZM12 12.9375C11.2212 12.9375 10.46 12.7066 9.81244 12.2739C9.16493 11.8413 8.66025 11.2263 8.36223 10.5068C8.06421 9.78733 7.98623 8.99563 8.13816 8.23183C8.29009 7.46803 8.6651 6.76644 9.21577 6.21577C9.76644 5.6651 10.468 5.29009 11.2318 5.13816C11.9956 4.98623 12.7873 5.0642 13.5068 5.36222C14.2263 5.66024 14.8413 6.16492 15.2739 6.81244C15.7066 7.45996 15.9375 8.22124 15.9375 9C15.9364 10.0439 15.5212 11.0448 14.783 11.783C14.0448 12.5212 13.0439 12.9364 12 12.9375Z" fill="#26AD9F"/>
<path d="M27.3057 6.00967C26.6095 7.20718 25.1841 8.08978 23.4023 8.35497L22.8844 7.30249C25.1261 7.01243 26.6178 5.66989 26.6178 4.33149V3.78867H27.9852V4.33149C27.9852 5.6616 29.4811 7.01243 31.7352 7.30249L31.2214 8.35497C29.4231 8.08978 27.9935 7.20718 27.3057 6.00967ZM22.47 9.27486H32.1206V10.3481H27.9148V14.0359H26.6261V10.3481H22.47V9.27486ZM40.9506 3.46133V5.69061H42.4464V6.76796H40.9506V9.00967H39.6495V3.46133H40.9506ZM38.7047 7.09945L38.8622 8.16851C37.1011 8.5 35.4685 8.61188 33.9395 8.61188H33.0569V3.92541H34.3663V7.53039C35.7213 7.51796 37.1591 7.41851 38.7047 7.09945ZM35.3649 10.692H39.6495V9.51105H40.9589V13.9116H34.0721V9.51105H35.3649V10.692ZM35.3649 12.8591H39.6495V11.7279H35.3649V12.8591ZM46.5361 4.52624H49.0264V5.55387H42.7405V4.52624H45.2391V3.3826H46.5361V4.52624ZM51.0899 3.45304V6.23757H52.5692V7.33149H51.0899V10.2113H49.7806V3.45304H51.0899ZM48.4712 7.86602C48.467 9.00138 47.4145 9.75138 45.8897 9.75138C44.3358 9.75138 43.2833 9.00138 43.2875 7.86602C43.2833 6.73066 44.3358 5.97238 45.8897 5.97238C47.4145 5.97238 48.467 6.73066 48.4712 7.86602ZM44.5513 7.86602C44.543 8.44199 45.0817 8.77348 45.8897 8.76934C46.6894 8.77348 47.2281 8.44199 47.2364 7.86602C47.2281 7.27762 46.6894 6.9337 45.8897 6.92956C45.0817 6.9337 44.543 7.27762 44.5513 7.86602ZM47.6673 10.2983C49.8386 10.2983 51.2018 10.9945 51.206 12.1713C51.2018 13.3315 49.8386 14.0318 47.6673 14.0276C45.467 14.0318 44.1162 13.3315 44.1245 12.1713C44.1162 10.9945 45.467 10.2983 47.6673 10.2983ZM47.6673 13.0456C49.0927 13.0497 49.9007 12.7307 49.9007 12.1713C49.9007 11.587 49.0927 11.3011 47.6673 11.3011C46.217 11.3011 45.409 11.587 45.4132 12.1713C45.409 12.7307 46.217 13.0497 47.6673 13.0456ZM58.3329 7.55939V8.67818H62.5139V9.73066H52.8633V8.67818H57.0277V7.55939H54.0774V3.87983H61.2873V7.55939H58.3329ZM60.0028 4.90331H55.3495V6.52762H60.0028V4.90331ZM60.0277 11.6492H53.9324V10.6215H61.3371V14.0359H60.0277V11.6492Z" fill="#26AD9F"/>
</svg>
