<svg width="115" height="53" viewBox="0 0 115 53" fill="none" xmlns="http://www.w3.org/2000/svg">
<g filter="url(#filter0_d_97_86)">
<rect x="2" y="1" width="111" height="49" rx="4" fill="#E7E1D7" shape-rendering="crispEdges"/>
<path d="M40.7692 14H11.2308C10.9043 14 10.5913 14.1212 10.3605 14.3368C10.1297 14.5525 10 14.845 10 15.15V34.7C10 35.31 10.2593 35.895 10.721 36.3263C11.1826 36.7577 11.8087 37 12.4615 37H39.5385C40.1913 37 40.8174 36.7577 41.279 36.3263C41.7407 35.895 42 35.31 42 34.7V15.15C42 14.845 41.8703 14.5525 41.6395 14.3368C41.4087 14.1212 41.0957 14 40.7692 14ZM26 26.2403L14.3954 16.3H37.6046L26 26.2403ZM21.4938 25.5L12.4615 33.2352V17.7648L21.4938 25.5ZM23.3154 27.0597L25.1615 28.6481C25.3886 28.8429 25.6856 28.951 25.9938 28.951C26.3021 28.951 26.5991 28.8429 26.8262 28.6481L28.6723 27.0597L37.5954 34.7H14.3954L23.3154 27.0597ZM30.5062 25.5L39.5385 17.7634V33.2366L30.5062 25.5Z" fill="white"/>
<path d="M57.48 7.64503H68.8957V13.7137H57.48V7.64503ZM59.4941 12.0932H66.8619V9.25898H59.4941V12.0932ZM55.538 16.922V15.2621H70.8705V16.922H64.395V19.9858H62.3546V16.922H55.538ZM57.3947 18.4637H59.4548V21.6523H69.1778V23.3253H57.3947V18.4637ZM85.1132 13.4054H87.6982V15.1374H85.1132V23.6402H83.0466V6.88398H85.1132V13.4054ZM77.9948 10.23V11.6405C77.9817 14.2386 79.5366 17.1844 82.1806 18.4178L81.0259 20.0449C79.1364 19.1657 77.7389 17.3615 76.9844 15.2621C76.2234 17.5649 74.7603 19.5331 72.838 20.4648L71.6243 18.8377C74.2945 17.578 75.9216 14.4354 75.9281 11.6405V10.23H72.2738V8.53729H81.4982V10.23H77.9948ZM64.2113 36.6727V39.9399H70.8902V41.626H55.5577V39.9399H62.1644V36.6727H57.2438V27.9927H59.3104V30.7352H67.0784V27.9927H69.1319V36.6727H64.2113ZM67.0784 32.3885H59.3104V35.0128H67.0784V32.3885ZM84.3915 33.4776V26.884H86.3795V43.6402H84.3915V35.1637H82.5348V42.807H80.5994V27.1989H82.5348V33.4776H84.3915ZM74.7735 28.7997V37.6568C76.2168 37.6305 77.798 37.5059 79.5628 37.1647L79.7793 38.9558C77.5093 39.356 75.587 39.4741 73.8221 39.4675H72.7068V28.7997H74.7735ZM100.32 43.6402V26.884H102.4V43.6402H100.32ZM89.3639 28.6619H97.4008C97.3943 33.6547 95.4589 37.893 89.5935 40.6813L88.511 39.028C92.9002 36.9416 94.934 34.1139 95.3014 30.2956H89.3639V28.6619Z" fill="white"/>
</g>
<defs>
<filter id="filter0_d_97_86" x="0" y="0" width="115" height="53" filterUnits="userSpaceOnUse" color-interpolation-filters="sRGB">
<feFlood flood-opacity="0" result="BackgroundImageFix"/>
<feColorMatrix in="SourceAlpha" type="matrix" values="0 0 0 0 0 0 0 0 0 0 0 0 0 0 0 0 0 0 127 0" result="hardAlpha"/>
<feOffset dy="1"/>
<feGaussianBlur stdDeviation="1"/>
<feComposite in2="hardAlpha" operator="out"/>
<feColorMatrix type="matrix" values="0 0 0 0 0.0588235 0 0 0 0 0.0588235 0 0 0 0 0.0627451 0 0 0 0.05 0"/>
<feBlend mode="normal" in2="BackgroundImageFix" result="effect1_dropShadow_97_86"/>
<feBlend mode="normal" in="SourceGraphic" in2="effect1_dropShadow_97_86" result="shape"/>
</filter>
</defs>
</svg>
