<svg width="26" height="26" viewBox="0 0 26 26" fill="none" xmlns="http://www.w3.org/2000/svg">
<circle cx="13" cy="13" r="12" fill="#FFC400" stroke="#172B4D" style="fill:#FFC400;fill:color(display-p3 1.0000 0.7686 0.0000);fill-opacity:1;stroke:#172B4D;stroke:color(display-p3 0.0902 0.1686 0.3020);stroke-opacity:1;" stroke-width="2"/>
<path d="M13.0069 18.66C10.2869 18.66 8.71888 17.236 8.71888 14.996C8.71888 13.844 9.29488 12.9 10.2229 12.276C9.58288 11.716 9.15088 10.948 9.15088 10.004C9.15088 7.972 10.7189 6.66 13.0389 6.66C15.3109 6.66 16.8949 7.972 16.8949 10.004C16.8949 10.948 16.4949 11.732 15.8389 12.292C16.7349 12.9 17.2789 13.828 17.2789 14.996C17.2789 17.236 15.6789 18.66 13.0069 18.66ZM13.0069 16.676C14.3989 16.676 15.1349 15.924 15.1349 14.996C15.1349 14.068 14.4149 13.316 13.0389 13.316C11.6469 13.316 10.8949 14.068 10.8949 14.996C10.8949 15.924 11.6149 16.676 13.0069 16.676ZM13.0229 11.476C14.2549 11.476 14.8469 10.868 14.8469 10.02C14.8469 9.204 14.2549 8.548 13.0549 8.548C11.8389 8.548 11.2149 9.204 11.2149 10.02C11.2149 10.852 11.7429 11.476 13.0229 11.476Z" fill="#172B4D" style="fill:#172B4D;fill:color(display-p3 0.0902 0.1686 0.3020);fill-opacity:1;"/>
</svg>
