<svg width="26" height="26" viewBox="0 0 26 26" fill="none" xmlns="http://www.w3.org/2000/svg">
<circle cx="13" cy="13" r="12" fill="#FFC400" stroke="#172B4D" style="fill:#FFC400;fill:color(display-p3 1.0000 0.7686 0.0000);fill-opacity:1;stroke:#172B4D;stroke:color(display-p3 0.0902 0.1686 0.3020);stroke-opacity:1;" stroke-width="2"/>
<path d="M13.1379 18.66C11.7939 18.66 10.7059 18.18 9.88988 17.188C9.15388 16.276 8.73788 15.124 8.73788 12.964C8.73788 8.868 10.9779 6.66 14.4499 6.66C15.3619 6.66 16.2099 6.82 16.7539 7.028L15.8899 9.092C15.5219 8.916 14.9139 8.772 14.2579 8.772C12.3859 8.772 11.1539 9.828 10.8819 11.972C11.4419 11.108 12.3539 10.612 13.5859 10.612C15.7779 10.612 17.3939 12.212 17.3939 14.564C17.3939 16.916 15.5699 18.66 13.1379 18.66ZM13.1219 16.58C14.2899 16.58 15.1699 15.732 15.1699 14.564C15.1699 13.396 14.3219 12.564 13.1219 12.564C12.0019 12.564 11.1059 13.396 11.1059 14.58C11.1059 15.732 12.0019 16.58 13.1219 16.58Z" fill="#172B4D" style="fill:#172B4D;fill:color(display-p3 0.0902 0.1686 0.3020);fill-opacity:1;"/>
</svg>
