<svg width="26" height="26" viewBox="0 0 26 26" fill="none" xmlns="http://www.w3.org/2000/svg">
<circle cx="13" cy="13" r="12" fill="#FFC400" stroke="#172B4D" style="fill:#FFC400;fill:color(display-p3 1.0000 0.7686 0.0000);fill-opacity:1;stroke:#172B4D;stroke:color(display-p3 0.0902 0.1686 0.3020);stroke-opacity:1;" stroke-width="2"/>
<path d="M12.7691 18.66C10.7051 18.66 9.42506 18.004 8.41706 16.66L10.3051 15.268C10.8811 16.212 11.6971 16.612 12.7691 16.612C13.9211 16.612 14.7371 16.004 14.7371 15.028C14.7371 14.1 13.9211 13.54 12.7051 13.54H11.4091V11.508H12.6091C13.8411 11.508 14.4811 10.852 14.4811 9.988C14.4811 9.22 13.9051 8.58 12.7051 8.58C11.6491 8.58 10.9611 9.044 10.5131 9.86L8.64106 8.74C9.48906 7.444 10.8971 6.66 12.6891 6.66C15.2011 6.66 16.7211 7.972 16.7211 9.924C16.7211 10.996 16.1931 11.86 15.3451 12.42C16.3691 12.948 17.0091 13.828 17.0091 15.076C17.0091 17.108 15.4091 18.66 12.7691 18.66Z" fill="#172B4D" style="fill:#172B4D;fill:color(display-p3 0.0902 0.1686 0.3020);fill-opacity:1;"/>
</svg>
