<svg width="26" height="26" viewBox="0 0 26 26" fill="none" xmlns="http://www.w3.org/2000/svg">
<circle cx="13" cy="13" r="12" fill="#FFC400" stroke="#172B4D" style="fill:#FFC400;fill:color(display-p3 1.0000 0.7686 0.0000);fill-opacity:1;stroke:#172B4D;stroke:color(display-p3 0.0902 0.1686 0.3020);stroke-opacity:1;" stroke-width="2"/>
<path d="M9.02619 18.5V16.612C9.02619 14.5 10.7542 13.332 12.3062 12.388C13.6022 11.588 14.7062 10.948 14.7062 10.004C14.7062 9.188 14.1142 8.612 13.0422 8.612C11.9702 8.612 11.2022 9.316 10.8182 10.26L8.81819 9.284C9.60219 7.7 11.0902 6.66 13.0742 6.66C15.5382 6.66 16.9782 8.132 16.9782 10.02C16.9782 11.908 15.3942 12.916 13.9062 13.812C12.6262 14.596 11.4422 15.284 11.3782 16.356H16.9302V18.5H9.02619Z" fill="#172B4D" style="fill:#172B4D;fill:color(display-p3 0.0902 0.1686 0.3020);fill-opacity:1;"/>
</svg>
