<svg width="26" height="26" viewBox="0 0 26 26" fill="none" xmlns="http://www.w3.org/2000/svg">
<circle cx="13" cy="13" r="12" fill="#FFC400" stroke="#172B4D" style="fill:#FFC400;fill:color(display-p3 1.0000 0.7686 0.0000);fill-opacity:1;stroke:#172B4D;stroke:color(display-p3 0.0902 0.1686 0.3020);stroke-opacity:1;" stroke-width="2"/>
<path d="M11.9114 18.676C10.6794 18.676 9.60744 18.404 8.79144 17.908L9.94344 15.876C10.4554 16.244 11.1914 16.516 11.9114 16.516C13.8314 16.516 14.8234 15.492 15.0154 13.252C14.5034 14.116 13.6234 14.58 12.4234 14.58C10.4074 14.58 8.71144 13.012 8.71144 10.66C8.71144 8.356 10.4874 6.66 12.8714 6.66C14.2794 6.66 15.3194 7.236 16.1034 8.18C16.7914 9.044 17.1594 10.212 17.1594 12.34C17.1594 16.308 15.4314 18.676 11.9114 18.676ZM12.9034 12.58C13.9914 12.58 14.8554 11.748 14.8554 10.66C14.8554 9.572 13.9594 8.724 12.8874 8.724C11.7994 8.724 10.9354 9.572 10.9354 10.66C10.9354 11.764 11.7994 12.58 12.9034 12.58Z" fill="#172B4D" style="fill:#172B4D;fill:color(display-p3 0.0902 0.1686 0.3020);fill-opacity:1;"/>
</svg>
