<svg width="26" height="26" viewBox="0 0 26 26" fill="none" xmlns="http://www.w3.org/2000/svg">
<circle cx="13" cy="13" r="12" fill="#FFC400" stroke="#172B4D" style="fill:#FFC400;fill:color(display-p3 1.0000 0.7686 0.0000);fill-opacity:1;stroke:#172B4D;stroke:color(display-p3 0.0902 0.1686 0.3020);stroke-opacity:1;" stroke-width="2"/>
<path d="M12.9778 18.66C11.0098 18.66 9.61781 17.78 8.81781 16.484L11.0098 15.252C11.3298 15.988 11.9858 16.564 12.9778 16.564C14.0178 16.564 14.8178 15.764 14.8178 14.676C14.8178 13.54 14.0498 12.756 12.9298 12.756C12.0178 12.756 11.4098 13.268 11.0418 13.924L8.94581 13.076L9.88981 6.82H16.3378V8.916H11.6338L11.2338 11.38C11.7138 10.996 12.4018 10.708 13.2498 10.708C15.4418 10.708 17.1058 12.132 17.1058 14.724C17.1058 17.028 15.4258 18.66 12.9778 18.66Z" fill="#172B4D" style="fill:#172B4D;fill:color(display-p3 0.0902 0.1686 0.3020);fill-opacity:1;"/>
</svg>
