<svg width="41" height="21" viewBox="0 0 41 21" fill="none" xmlns="http://www.w3.org/2000/svg">
<path d="M6.4 1H34.6C35.7366 1 36.5289 1.00078 37.1458 1.05118C37.7509 1.10062 38.0986 1.19279 38.362 1.32698C38.9265 1.6146 39.3854 2.07354 39.673 2.63803C39.8072 2.90138 39.8994 3.24907 39.9488 3.85424C39.9992 4.47108 40 5.26339 40 6.4V20H1V6.4C1 5.26339 1.00078 4.47108 1.05118 3.85424C1.10062 3.24907 1.19279 2.90138 1.32698 2.63803C1.6146 2.07354 2.07354 1.6146 2.63803 1.32698C2.90138 1.19279 3.24907 1.10062 3.85424 1.05118C4.47108 1.00078 5.26339 1 6.4 1Z" fill="#746757"/>
<path d="M6.4 1H34.6C35.7366 1 36.5289 1.00078 37.1458 1.05118C37.7509 1.10062 38.0986 1.19279 38.362 1.32698C38.9265 1.6146 39.3854 2.07354 39.673 2.63803C39.8072 2.90138 39.8994 3.24907 39.9488 3.85424C39.9992 4.47108 40 5.26339 40 6.4V20H1V6.4C1 5.26339 1.00078 4.47108 1.05118 3.85424C1.10062 3.24907 1.19279 2.90138 1.32698 2.63803C1.6146 2.07354 2.07354 1.6146 2.63803 1.32698C2.90138 1.19279 3.24907 1.10062 3.85424 1.05118C4.47108 1.00078 5.26339 1 6.4 1Z" stroke="#746757" stroke-width="2"/>
<path d="M17.5178 7.70442H14.8058C14.0371 9.57044 12.263 10.7645 9.51227 11.3591L8.92249 9.94268C11.7747 9.37707 13.0896 8.19268 13.3168 6.69889H9.62346V5.3018H15.2457C15.2457 5.67887 15.2167 6.0366 15.1683 6.37983H17.5178V4.8087H19.2581V11.0836H17.5178V10.1167H14.6753V8.79213H17.5178V7.70442ZM12.7464 14.9365V15.7535H19.5337V17.136H11.0012V13.6457H17.5081V12.8964H10.9819V11.5283H19.2581V14.9365H12.7464ZM29.9751 17.2617V4.8087H31.6236V17.2617H29.9751ZM25.808 9.08218H27.4468V5.01657H29.0808V16.6816H27.4468V10.4841H25.808V9.08218ZM24.8073 7.48204V8.14434C24.8025 10.2182 25.4503 12.3066 27.268 13.346L26.2479 14.6271C25.1312 13.9744 24.4061 12.8626 23.9855 11.5235C23.5504 12.9786 22.8011 14.2065 21.6651 14.9123L20.6112 13.6264C22.4434 12.4952 23.125 10.2617 23.125 8.14434V7.48204H21.0849V6.08494H26.6927V7.48204H24.8073Z" fill="white"/>
</svg>
