<svg width="73" height="25" viewBox="0 0 73 25" fill="none" xmlns="http://www.w3.org/2000/svg">
<path d="M9.6 1H63.4C65.0967 1 66.309 1.00078 67.2594 1.07842C68.198 1.15512 68.7927 1.30179 69.27 1.54497C70.2108 2.02433 70.9757 2.78924 71.455 3.73005C71.6982 4.20731 71.8449 4.80197 71.9216 5.74064C71.9992 6.69099 72 7.90334 72 9.6V24H1V9.6C1 7.90334 1.00078 6.69099 1.07842 5.74064C1.15512 4.80197 1.30179 4.20731 1.54497 3.73005C2.02433 2.78924 2.78924 2.02433 3.73005 1.54497C4.20731 1.30179 4.80197 1.15512 5.74064 1.07842C6.69099 1.00078 7.90334 1 9.6 1Z" fill="#746757"/>
<path d="M9.6 1H63.4C65.0967 1 66.309 1.00078 67.2594 1.07842C68.198 1.15512 68.7927 1.30179 69.27 1.54497C70.2108 2.02433 70.9757 2.78924 71.455 3.73005C71.6982 4.20731 71.8449 4.80197 71.9216 5.74064C71.9992 6.69099 72 7.90334 72 9.6V24H1V9.6C1 7.90334 1.00078 6.69099 1.07842 5.74064C1.15512 4.80197 1.30179 4.20731 1.54497 3.73005C2.02433 2.78924 2.78924 2.02433 3.73005 1.54497C4.20731 1.30179 4.80197 1.15512 5.74064 1.07842C6.69099 1.00078 7.90334 1 9.6 1Z" stroke="#746757" stroke-width="2"/>
<path d="M18.3533 9.9703C17.5411 11.3191 15.9555 12.3294 13.7994 12.6388L13.1129 11.232C15.941 10.8791 17.4348 9.25483 17.4396 7.78522V7.18094H19.2718V7.78522C19.2718 9.25483 20.7704 10.8791 23.6178 11.232L22.9361 12.6388C20.7607 12.3294 19.1654 11.3191 18.3533 9.9703ZM12.673 13.5815H24.0238V15.0028H19.1751V19.2617H17.4493V15.0028H12.673V13.5815ZM33.5178 9.58356V6.8087H35.2581V13.5041H33.5178V10.971H31.4487C31.1248 12.3391 29.8438 13.2673 28.2388 13.2673C26.3244 13.2673 24.9177 12.0249 24.9273 10.2894C24.9177 8.58287 26.3244 7.33563 28.2388 7.3453C29.8293 7.33563 31.1007 8.24931 31.4439 9.58356H33.5178ZM28.2388 11.8073C29.1863 11.8073 29.8631 11.2175 29.8728 10.2894C29.8631 9.36119 29.1863 8.79075 28.2388 8.79558C27.2671 8.79075 26.5806 9.36119 26.5806 10.2894C26.5806 11.2175 27.2671 11.8073 28.2388 11.8073ZM28.6739 15.2493H33.5178V14.0504H35.2581V19.1215H26.9577V14.0504H28.6739V15.2493ZM28.6739 17.7099H33.5178V16.5884H28.6739V17.7099ZM45.6174 9.70442H42.9054C42.1367 11.5704 40.3626 12.7645 37.6119 13.3591L37.0221 11.9427C39.8743 11.3771 41.1892 10.1927 41.4164 8.69889H37.7231V7.3018H43.3453C43.3453 7.67887 43.3163 8.0366 43.268 8.37983H45.6174V6.8087H47.3577V13.0836H45.6174V12.1167H42.7749V10.7921H45.6174V9.70442ZM40.846 16.9365V17.7535H47.6333V19.136H39.1008V15.6457H45.6077V14.8964H39.0815V13.5283H47.3577V16.9365H40.846ZM58.8192 11.8122H60.516V13.2721H58.8192V19.2617H57.0596V6.8087H58.8192V11.8122ZM55.6238 13.828L53.9076 13.6927C54.1928 11.8847 54.2218 10.5504 54.2267 9.4482H49.5133V8.05594H55.9622V9.05663C55.9573 10.2265 55.9573 11.759 55.6238 13.828ZM52.8634 11.6236V15.2445C54.0865 15.1913 55.3289 15.1043 56.4746 14.9593L56.5761 16.25C54.0236 16.6851 51.2053 16.7286 49.025 16.7189L48.8607 15.3267C49.5616 15.3218 50.3351 15.317 51.1473 15.2977V11.6236H52.8634Z" fill="white"/>
</svg>
