<svg width="73" height="25" viewBox="0 0 73 25" fill="none" xmlns="http://www.w3.org/2000/svg">
<path d="M9.6 1H63.4C65.0967 1 66.309 1.00078 67.2594 1.07842C68.198 1.15512 68.7927 1.30179 69.27 1.54497C70.2108 2.02433 70.9757 2.78924 71.455 3.73005C71.6982 4.20731 71.8449 4.80197 71.9216 5.74064C71.9992 6.69099 72 7.90334 72 9.6V24H1V9.6C1 7.90334 1.00078 6.69099 1.07842 5.74064C1.15512 4.80197 1.30179 4.20731 1.54497 3.73005C2.02433 2.78924 2.78924 2.02433 3.73005 1.54497C4.20731 1.30179 4.80197 1.15512 5.74064 1.07842C6.69099 1.00078 7.90334 1 9.6 1Z" fill="#746757"/>
<path d="M9.6 1H63.4C65.0967 1 66.309 1.00078 67.2594 1.07842C68.198 1.15512 68.7927 1.30179 69.27 1.54497C70.2108 2.02433 70.9757 2.78924 71.455 3.73005C71.6982 4.20731 71.8449 4.80197 71.9216 5.74064C71.9992 6.69099 72 7.90334 72 9.6V24H1V9.6C1 7.90334 1.00078 6.69099 1.07842 5.74064C1.15512 4.80197 1.30179 4.20731 1.54497 3.73005C2.02433 2.78924 2.78924 2.02433 3.73005 1.54497C4.20731 1.30179 4.80197 1.15512 5.74064 1.07842C6.69099 1.00078 7.90334 1 9.6 1Z" stroke="#746757" stroke-width="2"/>
<path d="M13.6205 11.7831L13.1419 10.4972C15.6219 10.3909 16.8837 9.79627 17.2462 9.07597H13.7607V7.78522H17.4638V6.80387H19.1944V7.78522H22.9216V9.07597H19.4071C19.76 9.79627 21.0266 10.3909 23.5404 10.4972L23.028 11.7831C20.7221 11.6623 19.1171 11.0773 18.3291 10.1443C17.5459 11.0773 15.9458 11.6623 13.6205 11.7831ZM23.9948 12.1167V13.3881H19.1993V14.1713H22.6364V17.2072H15.7041V17.8888H22.9603V19.1747H13.9928V16.0373H20.9154V15.4185H13.9831V14.1713H17.4734V13.3881H12.6972V12.1167H23.9948ZM33.5178 9.70442H30.8058C30.0371 11.5704 28.263 12.7645 25.5123 13.3591L24.9225 11.9427C27.7747 11.3771 29.0896 10.1927 29.3168 8.69889H25.6235V7.3018H31.2457C31.2457 7.67887 31.2167 8.0366 31.1683 8.37983H33.5178V6.8087H35.2581V13.0836H33.5178V12.1167H30.6753V10.7921H33.5178V9.70442ZM28.7464 16.9365V17.7535H35.5337V19.136H27.0012V15.6457H33.5081V14.8964H26.9819V13.5283H35.2581V16.9365H28.7464ZM43.4033 11.6913V12.8757H48.2231V14.2728H36.8722V12.8757H41.6533V11.6913H38.2742V7.30663H46.7825V11.6913H43.4033ZM45.0663 8.66506H39.9807V10.3232H45.0663V8.66506ZM45.0953 16.5642H38.1291V15.1961H46.8405V19.2617H45.0953V16.5642ZM55.5126 12.5856V13.4896H60.3372V14.8819H48.9573V13.4896H53.7868V12.5856H50.3738V9.16298H57.2143V8.40401H50.3544V7.05525H58.9643V10.4199H52.1093V11.2465H59.1915V12.5856H55.5126ZM57.2723 16.9606H50.2288V15.5877H59.0319V19.2037H57.2723V16.9606Z" fill="white"/>
</svg>
