<svg width="41" height="21" viewBox="0 0 41 21" fill="none" xmlns="http://www.w3.org/2000/svg">
<path d="M6.4 1H34.6C35.7366 1 36.5289 1.00078 37.1458 1.05118C37.7509 1.10062 38.0986 1.19279 38.362 1.32698C38.9265 1.6146 39.3854 2.07354 39.673 2.63803C39.8072 2.90138 39.8994 3.24907 39.9488 3.85424C39.9992 4.47108 40 5.26339 40 6.4V20H1V6.4C1 5.26339 1.00078 4.47108 1.05118 3.85424C1.10062 3.24907 1.19279 2.90138 1.32698 2.63803C1.6146 2.07354 2.07354 1.6146 2.63803 1.32698C2.90138 1.19279 3.24907 1.10062 3.85424 1.05118C4.47108 1.00078 5.26339 1 6.4 1Z" fill="#746757"/>
<path d="M6.4 1H34.6C35.7366 1 36.5289 1.00078 37.1458 1.05118C37.7509 1.10062 38.0986 1.19279 38.362 1.32698C38.9265 1.6146 39.3854 2.07354 39.673 2.63803C39.8072 2.90138 39.8994 3.24907 39.9488 3.85424C39.9992 4.47108 40 5.26339 40 6.4V20H1V6.4C1 5.26339 1.00078 4.47108 1.05118 3.85424C1.10062 3.24907 1.19279 2.90138 1.32698 2.63803C1.6146 2.07354 2.07354 1.6146 2.63803 1.32698C2.90138 1.19279 3.24907 1.10062 3.85424 1.05118C4.47108 1.00078 5.26339 1 6.4 1Z" stroke="#746757" stroke-width="2"/>
<path d="M13.3362 5.93025H16.1545V7.29834H8.76779V5.93025H11.5958V4.75069H13.3362V5.93025ZM18.6442 8.04765H20.3168V9.46892H18.6442V12.6209H16.8942V4.8087H18.6442V8.04765ZM15.5261 9.99586C15.5261 11.364 14.2692 12.2873 12.466 12.2873C10.658 12.2873 9.37208 11.364 9.37691 9.99586C9.37208 8.62776 10.658 7.70442 12.466 7.69959C14.2692 7.70442 15.5261 8.62776 15.5261 9.99586ZM11.0737 9.99586C11.0737 10.6291 11.6297 10.9579 12.466 10.9579C13.2975 10.9579 13.8679 10.6291 13.8728 9.99586C13.8679 9.35773 13.2975 9.0145 12.466 9.00967C11.6297 9.0145 11.0737 9.35773 11.0737 9.99586ZM16.8942 14.5352H10.2664V13.143H18.6442V17.2617H16.8942V14.5352ZM29.9075 9.28039H28.8633V12.0456H27.2438V5.04558H28.8633V7.86395H29.9075V4.82804H31.5608V12.4372H29.9075V9.28039ZM24.029 9.60912C23.5746 10.6823 22.7963 11.5815 21.636 12.0649L20.6982 10.7162C22.4482 9.95235 23.1492 8.41989 23.154 7.03729V5.57251H24.8508V7.03729C24.846 8.37638 25.547 9.7058 27.1954 10.3343L26.2673 11.6685C25.2037 11.2624 24.4738 10.5228 24.029 9.60912ZM27.3066 12.6064C29.9316 12.6064 31.6188 13.4765 31.6236 14.9268C31.6188 16.3771 29.9316 17.2617 27.3066 17.2569C24.672 17.2617 22.9945 16.3771 23.0041 14.9268C22.9945 13.4765 24.672 12.6064 27.3066 12.6064ZM27.3066 15.942C28.9261 15.9468 29.864 15.6036 29.8688 14.9268C29.864 14.2597 28.9261 13.9068 27.3066 13.9116C25.6775 13.9068 24.7396 14.2597 24.7445 14.9268C24.7396 15.6036 25.6775 15.9468 27.3066 15.942Z" fill="white"/>
</svg>
